G04 This is an RS-274x file exported by *
G04 gerbv version 2.6.0 *
G04 More information is available about gerbv at *
G04 http://gerbv.gpleda.org/ *
G04 --End of header info--*
%MOIN*%
%FSLAX34Y34*%
%IPPOS*%
G04 --Define apertures--*
%ADD10C,0.0039*%
%ADD11C,0.0059*%
G04 --Start main section--*
G54D10*
G01X0032797Y-034510D02*
G01X0027297Y-034510D01*
G01X0027297Y-034510D02*
G01X0027297Y-034896D01*
G01X0027297Y-034896D02*
G01X0026977Y-034896D01*
G01X0026977Y-034896D02*
G01X0026977Y-036274D01*
G01X0026977Y-036274D02*
G01X0027297Y-036274D01*
G01X0027297Y-036274D02*
G01X0027297Y-038246D01*
G01X0027297Y-038246D02*
G01X0026977Y-038246D01*
G01X0026977Y-038246D02*
G01X0026977Y-039624D01*
G01X0026977Y-039624D02*
G01X0027297Y-039624D01*
G01X0027297Y-039624D02*
G01X0027297Y-040010D01*
G01X0027297Y-040010D02*
G01X0032797Y-040010D01*
G01X0032797Y-040010D02*
G01X0032797Y-039624D01*
G01X0032797Y-039624D02*
G01X0033117Y-039624D01*
G01X0033117Y-039624D02*
G01X0033117Y-038246D01*
G01X0033117Y-038246D02*
G01X0032797Y-038246D01*
G01X0032797Y-038246D02*
G01X0032797Y-036274D01*
G01X0032797Y-036274D02*
G01X0033117Y-036274D01*
G01X0033117Y-036274D02*
G01X0033117Y-034896D01*
G01X0033117Y-034896D02*
G01X0032797Y-034896D01*
G01X0032797Y-034896D02*
G01X0032797Y-034510D01*
G54D11*
G01X0016700Y-040000D02*
G01X0015700Y-040000D01*
G01X0015700Y-040000D02*
G01X0015700Y-041000D01*
G01X0016700Y-041000D02*
G01X0016700Y-027000D01*
G01X0016700Y-027000D02*
G01X0012700Y-027000D01*
G01X0012700Y-027000D02*
G01X0012700Y-041000D01*
G01X0012700Y-041000D02*
G01X0016700Y-041000D01*
G01X0012700Y-037000D02*
G01X0011700Y-037000D01*
G01X0011700Y-037000D02*
G01X0011700Y-041000D01*
G01X0011700Y-041000D02*
G01X0012700Y-041000D01*
G01X0012700Y-041000D02*
G01X0012700Y-037000D01*
G54D10*
G01X0017793Y-012010D02*
G01X0012293Y-012010D01*
G01X0012293Y-012010D02*
G01X0012293Y-012396D01*
G01X0012293Y-012396D02*
G01X0011973Y-012396D01*
G01X0011973Y-012396D02*
G01X0011973Y-013774D01*
G01X0011973Y-013774D02*
G01X0012293Y-013774D01*
G01X0012293Y-013774D02*
G01X0012293Y-015746D01*
G01X0012293Y-015746D02*
G01X0011973Y-015746D01*
G01X0011973Y-015746D02*
G01X0011973Y-017124D01*
G01X0011973Y-017124D02*
G01X0012293Y-017124D01*
G01X0012293Y-017124D02*
G01X0012293Y-017510D01*
G01X0012293Y-017510D02*
G01X0017793Y-017510D01*
G01X0017793Y-017510D02*
G01X0017793Y-017124D01*
G01X0017793Y-017124D02*
G01X0018113Y-017124D01*
G01X0018113Y-017124D02*
G01X0018113Y-015746D01*
G01X0018113Y-015746D02*
G01X0017793Y-015746D01*
G01X0017793Y-015746D02*
G01X0017793Y-013774D01*
G01X0017793Y-013774D02*
G01X0018113Y-013774D01*
G01X0018113Y-013774D02*
G01X0018113Y-012396D01*
G01X0018113Y-012396D02*
G01X0017793Y-012396D01*
G01X0017793Y-012396D02*
G01X0017793Y-012010D01*
G01X0076288Y-051286D02*
G01X0073964Y-056271D01*
G01X0073964Y-056271D02*
G01X0074313Y-056434D01*
G01X0074313Y-056434D02*
G01X0074178Y-056724D01*
G01X0074178Y-056724D02*
G01X0075427Y-057307D01*
G01X0075427Y-057307D02*
G01X0075562Y-057017D01*
G01X0075562Y-057017D02*
G01X0077350Y-057850D01*
G01X0077350Y-057850D02*
G01X0077214Y-058140D01*
G01X0077214Y-058140D02*
G01X0078463Y-058722D01*
G01X0078463Y-058722D02*
G01X0078598Y-058432D01*
G01X0078598Y-058432D02*
G01X0078948Y-058595D01*
G01X0078948Y-058595D02*
G01X0081273Y-053611D01*
G01X0081273Y-053611D02*
G01X0080923Y-053448D01*
G01X0080923Y-053448D02*
G01X0081058Y-053158D01*
G01X0081058Y-053158D02*
G01X0079809Y-052575D01*
G01X0079809Y-052575D02*
G01X0079674Y-052865D01*
G01X0079674Y-052865D02*
G01X0077887Y-052032D01*
G01X0077887Y-052032D02*
G01X0078022Y-051742D01*
G01X0078022Y-051742D02*
G01X0076773Y-051160D01*
G01X0076773Y-051160D02*
G01X0076638Y-051450D01*
G01X0076638Y-051450D02*
G01X0076288Y-051286D01*
G01X0088673Y-035689D02*
G01X0083173Y-035689D01*
G01X0083173Y-035689D02*
G01X0083173Y-036075D01*
G01X0083173Y-036075D02*
G01X0082853Y-036075D01*
G01X0082853Y-036075D02*
G01X0082853Y-037453D01*
G01X0082853Y-037453D02*
G01X0083173Y-037453D01*
G01X0083173Y-037453D02*
G01X0083173Y-039425D01*
G01X0083173Y-039425D02*
G01X0082853Y-039425D01*
G01X0082853Y-039425D02*
G01X0082853Y-040803D01*
G01X0082853Y-040803D02*
G01X0083173Y-040803D01*
G01X0083173Y-040803D02*
G01X0083173Y-041189D01*
G01X0083173Y-041189D02*
G01X0088673Y-041189D01*
G01X0088673Y-041189D02*
G01X0088673Y-040803D01*
G01X0088673Y-040803D02*
G01X0088993Y-040803D01*
G01X0088993Y-040803D02*
G01X0088993Y-039425D01*
G01X0088993Y-039425D02*
G01X0088673Y-039425D01*
G01X0088673Y-039425D02*
G01X0088673Y-037453D01*
G01X0088673Y-037453D02*
G01X0088993Y-037453D01*
G01X0088993Y-037453D02*
G01X0088993Y-036075D01*
G01X0088993Y-036075D02*
G01X0088673Y-036075D01*
G01X0088673Y-036075D02*
G01X0088673Y-035689D01*
G01X0088675Y-028195D02*
G01X0083175Y-028195D01*
G01X0083175Y-028195D02*
G01X0083175Y-028581D01*
G01X0083175Y-028581D02*
G01X0082855Y-028581D01*
G01X0082855Y-028581D02*
G01X0082855Y-029959D01*
G01X0082855Y-029959D02*
G01X0083175Y-029959D01*
G01X0083175Y-029959D02*
G01X0083175Y-031931D01*
G01X0083175Y-031931D02*
G01X0082855Y-031931D01*
G01X0082855Y-031931D02*
G01X0082855Y-033309D01*
G01X0082855Y-033309D02*
G01X0083175Y-033309D01*
G01X0083175Y-033309D02*
G01X0083175Y-033695D01*
G01X0083175Y-033695D02*
G01X0088675Y-033695D01*
G01X0088675Y-033695D02*
G01X0088675Y-033309D01*
G01X0088675Y-033309D02*
G01X0088995Y-033309D01*
G01X0088995Y-033309D02*
G01X0088995Y-031931D01*
G01X0088995Y-031931D02*
G01X0088675Y-031931D01*
G01X0088675Y-031931D02*
G01X0088675Y-029959D01*
G01X0088675Y-029959D02*
G01X0088995Y-029959D01*
G01X0088995Y-029959D02*
G01X0088995Y-028581D01*
G01X0088995Y-028581D02*
G01X0088675Y-028581D01*
G01X0088675Y-028581D02*
G01X0088675Y-028195D01*
G01X0088673Y-020689D02*
G01X0083173Y-020689D01*
G01X0083173Y-020689D02*
G01X0083173Y-021075D01*
G01X0083173Y-021075D02*
G01X0082853Y-021075D01*
G01X0082853Y-021075D02*
G01X0082853Y-022453D01*
G01X0082853Y-022453D02*
G01X0083173Y-022453D01*
G01X0083173Y-022453D02*
G01X0083173Y-024425D01*
G01X0083173Y-024425D02*
G01X0082853Y-024425D01*
G01X0082853Y-024425D02*
G01X0082853Y-025803D01*
G01X0082853Y-025803D02*
G01X0083173Y-025803D01*
G01X0083173Y-025803D02*
G01X0083173Y-026189D01*
G01X0083173Y-026189D02*
G01X0088673Y-026189D01*
G01X0088673Y-026189D02*
G01X0088673Y-025803D01*
G01X0088673Y-025803D02*
G01X0088993Y-025803D01*
G01X0088993Y-025803D02*
G01X0088993Y-024425D01*
G01X0088993Y-024425D02*
G01X0088673Y-024425D01*
G01X0088673Y-024425D02*
G01X0088673Y-022453D01*
G01X0088673Y-022453D02*
G01X0088993Y-022453D01*
G01X0088993Y-022453D02*
G01X0088993Y-021075D01*
G01X0088993Y-021075D02*
G01X0088673Y-021075D01*
G01X0088673Y-021075D02*
G01X0088673Y-020689D01*
G01X0088675Y-013195D02*
G01X0083175Y-013195D01*
G01X0083175Y-013195D02*
G01X0083175Y-013581D01*
G01X0083175Y-013581D02*
G01X0082855Y-013581D01*
G01X0082855Y-013581D02*
G01X0082855Y-014959D01*
G01X0082855Y-014959D02*
G01X0083175Y-014959D01*
G01X0083175Y-014959D02*
G01X0083175Y-016931D01*
G01X0083175Y-016931D02*
G01X0082855Y-016931D01*
G01X0082855Y-016931D02*
G01X0082855Y-018309D01*
G01X0082855Y-018309D02*
G01X0083175Y-018309D01*
G01X0083175Y-018309D02*
G01X0083175Y-018695D01*
G01X0083175Y-018695D02*
G01X0088675Y-018695D01*
G01X0088675Y-018695D02*
G01X0088675Y-018309D01*
G01X0088675Y-018309D02*
G01X0088995Y-018309D01*
G01X0088995Y-018309D02*
G01X0088995Y-016931D01*
G01X0088995Y-016931D02*
G01X0088675Y-016931D01*
G01X0088675Y-016931D02*
G01X0088675Y-014959D01*
G01X0088675Y-014959D02*
G01X0088995Y-014959D01*
G01X0088995Y-014959D02*
G01X0088995Y-013581D01*
G01X0088995Y-013581D02*
G01X0088675Y-013581D01*
G01X0088675Y-013581D02*
G01X0088675Y-013195D01*
G01X0069493Y-048117D02*
G01X0067168Y-053102D01*
G01X0067168Y-053102D02*
G01X0067518Y-053265D01*
G01X0067518Y-053265D02*
G01X0067383Y-053555D01*
G01X0067383Y-053555D02*
G01X0068632Y-054137D01*
G01X0068632Y-054137D02*
G01X0068767Y-053847D01*
G01X0068767Y-053847D02*
G01X0070554Y-054681D01*
G01X0070554Y-054681D02*
G01X0070419Y-054971D01*
G01X0070419Y-054971D02*
G01X0071668Y-055553D01*
G01X0071668Y-055553D02*
G01X0071803Y-055263D01*
G01X0071803Y-055263D02*
G01X0072153Y-055426D01*
G01X0072153Y-055426D02*
G01X0074477Y-050442D01*
G01X0074477Y-050442D02*
G01X0074128Y-050278D01*
G01X0074128Y-050278D02*
G01X0074263Y-049988D01*
G01X0074263Y-049988D02*
G01X0073014Y-049406D01*
G01X0073014Y-049406D02*
G01X0072879Y-049696D01*
G01X0072879Y-049696D02*
G01X0071091Y-048863D01*
G01X0071091Y-048863D02*
G01X0071227Y-048573D01*
G01X0071227Y-048573D02*
G01X0069978Y-047990D01*
G01X0069978Y-047990D02*
G01X0069843Y-048280D01*
G01X0069843Y-048280D02*
G01X0069493Y-048117D01*
G01X0081176Y-035692D02*
G01X0075676Y-035692D01*
G01X0075676Y-035692D02*
G01X0075676Y-036078D01*
G01X0075676Y-036078D02*
G01X0075356Y-036078D01*
G01X0075356Y-036078D02*
G01X0075356Y-037456D01*
G01X0075356Y-037456D02*
G01X0075676Y-037456D01*
G01X0075676Y-037456D02*
G01X0075676Y-039428D01*
G01X0075676Y-039428D02*
G01X0075356Y-039428D01*
G01X0075356Y-039428D02*
G01X0075356Y-040806D01*
G01X0075356Y-040806D02*
G01X0075676Y-040806D01*
G01X0075676Y-040806D02*
G01X0075676Y-041192D01*
G01X0075676Y-041192D02*
G01X0081176Y-041192D01*
G01X0081176Y-041192D02*
G01X0081176Y-040806D01*
G01X0081176Y-040806D02*
G01X0081496Y-040806D01*
G01X0081496Y-040806D02*
G01X0081496Y-039428D01*
G01X0081496Y-039428D02*
G01X0081176Y-039428D01*
G01X0081176Y-039428D02*
G01X0081176Y-037456D01*
G01X0081176Y-037456D02*
G01X0081496Y-037456D01*
G01X0081496Y-037456D02*
G01X0081496Y-036078D01*
G01X0081496Y-036078D02*
G01X0081176Y-036078D01*
G01X0081176Y-036078D02*
G01X0081176Y-035692D01*
G01X0081175Y-028195D02*
G01X0075675Y-028195D01*
G01X0075675Y-028195D02*
G01X0075675Y-028581D01*
G01X0075675Y-028581D02*
G01X0075355Y-028581D01*
G01X0075355Y-028581D02*
G01X0075355Y-029959D01*
G01X0075355Y-029959D02*
G01X0075675Y-029959D01*
G01X0075675Y-029959D02*
G01X0075675Y-031931D01*
G01X0075675Y-031931D02*
G01X0075355Y-031931D01*
G01X0075355Y-031931D02*
G01X0075355Y-033309D01*
G01X0075355Y-033309D02*
G01X0075675Y-033309D01*
G01X0075675Y-033309D02*
G01X0075675Y-033695D01*
G01X0075675Y-033695D02*
G01X0081175Y-033695D01*
G01X0081175Y-033695D02*
G01X0081175Y-033309D01*
G01X0081175Y-033309D02*
G01X0081495Y-033309D01*
G01X0081495Y-033309D02*
G01X0081495Y-031931D01*
G01X0081495Y-031931D02*
G01X0081175Y-031931D01*
G01X0081175Y-031931D02*
G01X0081175Y-029959D01*
G01X0081175Y-029959D02*
G01X0081495Y-029959D01*
G01X0081495Y-029959D02*
G01X0081495Y-028581D01*
G01X0081495Y-028581D02*
G01X0081175Y-028581D01*
G01X0081175Y-028581D02*
G01X0081175Y-028195D01*
G01X0081175Y-020695D02*
G01X0075675Y-020695D01*
G01X0075675Y-020695D02*
G01X0075675Y-021081D01*
G01X0075675Y-021081D02*
G01X0075355Y-021081D01*
G01X0075355Y-021081D02*
G01X0075355Y-022459D01*
G01X0075355Y-022459D02*
G01X0075675Y-022459D01*
G01X0075675Y-022459D02*
G01X0075675Y-024431D01*
G01X0075675Y-024431D02*
G01X0075355Y-024431D01*
G01X0075355Y-024431D02*
G01X0075355Y-025809D01*
G01X0075355Y-025809D02*
G01X0075675Y-025809D01*
G01X0075675Y-025809D02*
G01X0075675Y-026195D01*
G01X0075675Y-026195D02*
G01X0081175Y-026195D01*
G01X0081175Y-026195D02*
G01X0081175Y-025809D01*
G01X0081175Y-025809D02*
G01X0081495Y-025809D01*
G01X0081495Y-025809D02*
G01X0081495Y-024431D01*
G01X0081495Y-024431D02*
G01X0081175Y-024431D01*
G01X0081175Y-024431D02*
G01X0081175Y-022459D01*
G01X0081175Y-022459D02*
G01X0081495Y-022459D01*
G01X0081495Y-022459D02*
G01X0081495Y-021081D01*
G01X0081495Y-021081D02*
G01X0081175Y-021081D01*
G01X0081175Y-021081D02*
G01X0081175Y-020695D01*
G01X0081156Y-013195D02*
G01X0075656Y-013195D01*
G01X0075656Y-013195D02*
G01X0075656Y-013581D01*
G01X0075656Y-013581D02*
G01X0075336Y-013581D01*
G01X0075336Y-013581D02*
G01X0075336Y-014959D01*
G01X0075336Y-014959D02*
G01X0075656Y-014959D01*
G01X0075656Y-014959D02*
G01X0075656Y-016931D01*
G01X0075656Y-016931D02*
G01X0075336Y-016931D01*
G01X0075336Y-016931D02*
G01X0075336Y-018309D01*
G01X0075336Y-018309D02*
G01X0075656Y-018309D01*
G01X0075656Y-018309D02*
G01X0075656Y-018695D01*
G01X0075656Y-018695D02*
G01X0081156Y-018695D01*
G01X0081156Y-018695D02*
G01X0081156Y-018309D01*
G01X0081156Y-018309D02*
G01X0081476Y-018309D01*
G01X0081476Y-018309D02*
G01X0081476Y-016931D01*
G01X0081476Y-016931D02*
G01X0081156Y-016931D01*
G01X0081156Y-016931D02*
G01X0081156Y-014959D01*
G01X0081156Y-014959D02*
G01X0081476Y-014959D01*
G01X0081476Y-014959D02*
G01X0081476Y-013581D01*
G01X0081476Y-013581D02*
G01X0081156Y-013581D01*
G01X0081156Y-013581D02*
G01X0081156Y-013195D01*
G01X0070293Y-033722D02*
G01X0064793Y-033722D01*
G01X0064793Y-033722D02*
G01X0064793Y-034108D01*
G01X0064793Y-034108D02*
G01X0064473Y-034108D01*
G01X0064473Y-034108D02*
G01X0064473Y-035486D01*
G01X0064473Y-035486D02*
G01X0064793Y-035486D01*
G01X0064793Y-035486D02*
G01X0064793Y-037458D01*
G01X0064793Y-037458D02*
G01X0064473Y-037458D01*
G01X0064473Y-037458D02*
G01X0064473Y-038836D01*
G01X0064473Y-038836D02*
G01X0064793Y-038836D01*
G01X0064793Y-038836D02*
G01X0064793Y-039222D01*
G01X0064793Y-039222D02*
G01X0070293Y-039222D01*
G01X0070293Y-039222D02*
G01X0070293Y-038836D01*
G01X0070293Y-038836D02*
G01X0070613Y-038836D01*
G01X0070613Y-038836D02*
G01X0070613Y-037458D01*
G01X0070613Y-037458D02*
G01X0070293Y-037458D01*
G01X0070293Y-037458D02*
G01X0070293Y-035486D01*
G01X0070293Y-035486D02*
G01X0070613Y-035486D01*
G01X0070613Y-035486D02*
G01X0070613Y-034108D01*
G01X0070613Y-034108D02*
G01X0070293Y-034108D01*
G01X0070293Y-034108D02*
G01X0070293Y-033722D01*
G01X0064795Y-022471D02*
G01X0064795Y-027971D01*
G01X0064795Y-027971D02*
G01X0065181Y-027971D01*
G01X0065181Y-027971D02*
G01X0065181Y-028291D01*
G01X0065181Y-028291D02*
G01X0066559Y-028291D01*
G01X0066559Y-028291D02*
G01X0066559Y-027971D01*
G01X0066559Y-027971D02*
G01X0068531Y-027971D01*
G01X0068531Y-027971D02*
G01X0068531Y-028291D01*
G01X0068531Y-028291D02*
G01X0069909Y-028291D01*
G01X0069909Y-028291D02*
G01X0069909Y-027971D01*
G01X0069909Y-027971D02*
G01X0070295Y-027971D01*
G01X0070295Y-027971D02*
G01X0070295Y-022471D01*
G01X0070295Y-022471D02*
G01X0069909Y-022471D01*
G01X0069909Y-022471D02*
G01X0069909Y-022151D01*
G01X0069909Y-022151D02*
G01X0068531Y-022151D01*
G01X0068531Y-022151D02*
G01X0068531Y-022471D01*
G01X0068531Y-022471D02*
G01X0066559Y-022471D01*
G01X0066559Y-022471D02*
G01X0066559Y-022151D01*
G01X0066559Y-022151D02*
G01X0065181Y-022151D01*
G01X0065181Y-022151D02*
G01X0065181Y-022471D01*
G01X0065181Y-022471D02*
G01X0064795Y-022471D01*
G01X0070297Y-011222D02*
G01X0064797Y-011222D01*
G01X0064797Y-011222D02*
G01X0064797Y-011608D01*
G01X0064797Y-011608D02*
G01X0064477Y-011608D01*
G01X0064477Y-011608D02*
G01X0064477Y-012986D01*
G01X0064477Y-012986D02*
G01X0064797Y-012986D01*
G01X0064797Y-012986D02*
G01X0064797Y-014958D01*
G01X0064797Y-014958D02*
G01X0064477Y-014958D01*
G01X0064477Y-014958D02*
G01X0064477Y-016336D01*
G01X0064477Y-016336D02*
G01X0064797Y-016336D01*
G01X0064797Y-016336D02*
G01X0064797Y-016722D01*
G01X0064797Y-016722D02*
G01X0070297Y-016722D01*
G01X0070297Y-016722D02*
G01X0070297Y-016336D01*
G01X0070297Y-016336D02*
G01X0070617Y-016336D01*
G01X0070617Y-016336D02*
G01X0070617Y-014958D01*
G01X0070617Y-014958D02*
G01X0070297Y-014958D01*
G01X0070297Y-014958D02*
G01X0070297Y-012986D01*
G01X0070297Y-012986D02*
G01X0070617Y-012986D01*
G01X0070617Y-012986D02*
G01X0070617Y-011608D01*
G01X0070617Y-011608D02*
G01X0070297Y-011608D01*
G01X0070297Y-011608D02*
G01X0070297Y-011222D01*
G01X0062793Y-033722D02*
G01X0057293Y-033722D01*
G01X0057293Y-033722D02*
G01X0057293Y-034108D01*
G01X0057293Y-034108D02*
G01X0056973Y-034108D01*
G01X0056973Y-034108D02*
G01X0056973Y-035486D01*
G01X0056973Y-035486D02*
G01X0057293Y-035486D01*
G01X0057293Y-035486D02*
G01X0057293Y-037458D01*
G01X0057293Y-037458D02*
G01X0056973Y-037458D01*
G01X0056973Y-037458D02*
G01X0056973Y-038836D01*
G01X0056973Y-038836D02*
G01X0057293Y-038836D01*
G01X0057293Y-038836D02*
G01X0057293Y-039222D01*
G01X0057293Y-039222D02*
G01X0062793Y-039222D01*
G01X0062793Y-039222D02*
G01X0062793Y-038836D01*
G01X0062793Y-038836D02*
G01X0063113Y-038836D01*
G01X0063113Y-038836D02*
G01X0063113Y-037458D01*
G01X0063113Y-037458D02*
G01X0062793Y-037458D01*
G01X0062793Y-037458D02*
G01X0062793Y-035486D01*
G01X0062793Y-035486D02*
G01X0063113Y-035486D01*
G01X0063113Y-035486D02*
G01X0063113Y-034108D01*
G01X0063113Y-034108D02*
G01X0062793Y-034108D01*
G01X0062793Y-034108D02*
G01X0062793Y-033722D01*
G01X0062796Y-026222D02*
G01X0057296Y-026222D01*
G01X0057296Y-026222D02*
G01X0057296Y-026608D01*
G01X0057296Y-026608D02*
G01X0056976Y-026608D01*
G01X0056976Y-026608D02*
G01X0056976Y-027986D01*
G01X0056976Y-027986D02*
G01X0057296Y-027986D01*
G01X0057296Y-027986D02*
G01X0057296Y-029958D01*
G01X0057296Y-029958D02*
G01X0056976Y-029958D01*
G01X0056976Y-029958D02*
G01X0056976Y-031336D01*
G01X0056976Y-031336D02*
G01X0057296Y-031336D01*
G01X0057296Y-031336D02*
G01X0057296Y-031722D01*
G01X0057296Y-031722D02*
G01X0062796Y-031722D01*
G01X0062796Y-031722D02*
G01X0062796Y-031336D01*
G01X0062796Y-031336D02*
G01X0063116Y-031336D01*
G01X0063116Y-031336D02*
G01X0063116Y-029958D01*
G01X0063116Y-029958D02*
G01X0062796Y-029958D01*
G01X0062796Y-029958D02*
G01X0062796Y-027986D01*
G01X0062796Y-027986D02*
G01X0063116Y-027986D01*
G01X0063116Y-027986D02*
G01X0063116Y-026608D01*
G01X0063116Y-026608D02*
G01X0062796Y-026608D01*
G01X0062796Y-026608D02*
G01X0062796Y-026222D01*
G01X0062798Y-018721D02*
G01X0057298Y-018721D01*
G01X0057298Y-018721D02*
G01X0057298Y-019107D01*
G01X0057298Y-019107D02*
G01X0056978Y-019107D01*
G01X0056978Y-019107D02*
G01X0056978Y-020485D01*
G01X0056978Y-020485D02*
G01X0057298Y-020485D01*
G01X0057298Y-020485D02*
G01X0057298Y-022457D01*
G01X0057298Y-022457D02*
G01X0056978Y-022457D01*
G01X0056978Y-022457D02*
G01X0056978Y-023835D01*
G01X0056978Y-023835D02*
G01X0057298Y-023835D01*
G01X0057298Y-023835D02*
G01X0057298Y-024221D01*
G01X0057298Y-024221D02*
G01X0062798Y-024221D01*
G01X0062798Y-024221D02*
G01X0062798Y-023835D01*
G01X0062798Y-023835D02*
G01X0063118Y-023835D01*
G01X0063118Y-023835D02*
G01X0063118Y-022457D01*
G01X0063118Y-022457D02*
G01X0062798Y-022457D01*
G01X0062798Y-022457D02*
G01X0062798Y-020485D01*
G01X0062798Y-020485D02*
G01X0063118Y-020485D01*
G01X0063118Y-020485D02*
G01X0063118Y-019107D01*
G01X0063118Y-019107D02*
G01X0062798Y-019107D01*
G01X0062798Y-019107D02*
G01X0062798Y-018721D01*
G01X0062789Y-011226D02*
G01X0057289Y-011226D01*
G01X0057289Y-011226D02*
G01X0057289Y-011612D01*
G01X0057289Y-011612D02*
G01X0056969Y-011612D01*
G01X0056969Y-011612D02*
G01X0056969Y-012990D01*
G01X0056969Y-012990D02*
G01X0057289Y-012990D01*
G01X0057289Y-012990D02*
G01X0057289Y-014962D01*
G01X0057289Y-014962D02*
G01X0056969Y-014962D01*
G01X0056969Y-014962D02*
G01X0056969Y-016340D01*
G01X0056969Y-016340D02*
G01X0057289Y-016340D01*
G01X0057289Y-016340D02*
G01X0057289Y-016726D01*
G01X0057289Y-016726D02*
G01X0062789Y-016726D01*
G01X0062789Y-016726D02*
G01X0062789Y-016340D01*
G01X0062789Y-016340D02*
G01X0063109Y-016340D01*
G01X0063109Y-016340D02*
G01X0063109Y-014962D01*
G01X0063109Y-014962D02*
G01X0062789Y-014962D01*
G01X0062789Y-014962D02*
G01X0062789Y-012990D01*
G01X0062789Y-012990D02*
G01X0063109Y-012990D01*
G01X0063109Y-012990D02*
G01X0063109Y-011612D01*
G01X0063109Y-011612D02*
G01X0062789Y-011612D01*
G01X0062789Y-011612D02*
G01X0062789Y-011226D01*
G01X0055293Y-040829D02*
G01X0049793Y-040829D01*
G01X0049793Y-040829D02*
G01X0049793Y-041215D01*
G01X0049793Y-041215D02*
G01X0049473Y-041215D01*
G01X0049473Y-041215D02*
G01X0049473Y-042593D01*
G01X0049473Y-042593D02*
G01X0049793Y-042593D01*
G01X0049793Y-042593D02*
G01X0049793Y-044565D01*
G01X0049793Y-044565D02*
G01X0049473Y-044565D01*
G01X0049473Y-044565D02*
G01X0049473Y-045943D01*
G01X0049473Y-045943D02*
G01X0049793Y-045943D01*
G01X0049793Y-045943D02*
G01X0049793Y-046329D01*
G01X0049793Y-046329D02*
G01X0055293Y-046329D01*
G01X0055293Y-046329D02*
G01X0055293Y-045943D01*
G01X0055293Y-045943D02*
G01X0055613Y-045943D01*
G01X0055613Y-045943D02*
G01X0055613Y-044565D01*
G01X0055613Y-044565D02*
G01X0055293Y-044565D01*
G01X0055293Y-044565D02*
G01X0055293Y-042593D01*
G01X0055293Y-042593D02*
G01X0055613Y-042593D01*
G01X0055613Y-042593D02*
G01X0055613Y-041215D01*
G01X0055613Y-041215D02*
G01X0055293Y-041215D01*
G01X0055293Y-041215D02*
G01X0055293Y-040829D01*
G01X0055297Y-033329D02*
G01X0049797Y-033329D01*
G01X0049797Y-033329D02*
G01X0049797Y-033715D01*
G01X0049797Y-033715D02*
G01X0049477Y-033715D01*
G01X0049477Y-033715D02*
G01X0049477Y-035093D01*
G01X0049477Y-035093D02*
G01X0049797Y-035093D01*
G01X0049797Y-035093D02*
G01X0049797Y-037065D01*
G01X0049797Y-037065D02*
G01X0049477Y-037065D01*
G01X0049477Y-037065D02*
G01X0049477Y-038443D01*
G01X0049477Y-038443D02*
G01X0049797Y-038443D01*
G01X0049797Y-038443D02*
G01X0049797Y-038829D01*
G01X0049797Y-038829D02*
G01X0055297Y-038829D01*
G01X0055297Y-038829D02*
G01X0055297Y-038443D01*
G01X0055297Y-038443D02*
G01X0055617Y-038443D01*
G01X0055617Y-038443D02*
G01X0055617Y-037065D01*
G01X0055617Y-037065D02*
G01X0055297Y-037065D01*
G01X0055297Y-037065D02*
G01X0055297Y-035093D01*
G01X0055297Y-035093D02*
G01X0055617Y-035093D01*
G01X0055617Y-035093D02*
G01X0055617Y-033715D01*
G01X0055617Y-033715D02*
G01X0055297Y-033715D01*
G01X0055297Y-033715D02*
G01X0055297Y-033329D01*
G01X0055297Y-025830D02*
G01X0049797Y-025830D01*
G01X0049797Y-025830D02*
G01X0049797Y-026216D01*
G01X0049797Y-026216D02*
G01X0049477Y-026216D01*
G01X0049477Y-026216D02*
G01X0049477Y-027594D01*
G01X0049477Y-027594D02*
G01X0049797Y-027594D01*
G01X0049797Y-027594D02*
G01X0049797Y-029566D01*
G01X0049797Y-029566D02*
G01X0049477Y-029566D01*
G01X0049477Y-029566D02*
G01X0049477Y-030944D01*
G01X0049477Y-030944D02*
G01X0049797Y-030944D01*
G01X0049797Y-030944D02*
G01X0049797Y-031330D01*
G01X0049797Y-031330D02*
G01X0055297Y-031330D01*
G01X0055297Y-031330D02*
G01X0055297Y-030944D01*
G01X0055297Y-030944D02*
G01X0055617Y-030944D01*
G01X0055617Y-030944D02*
G01X0055617Y-029566D01*
G01X0055617Y-029566D02*
G01X0055297Y-029566D01*
G01X0055297Y-029566D02*
G01X0055297Y-027594D01*
G01X0055297Y-027594D02*
G01X0055617Y-027594D01*
G01X0055617Y-027594D02*
G01X0055617Y-026216D01*
G01X0055617Y-026216D02*
G01X0055297Y-026216D01*
G01X0055297Y-026216D02*
G01X0055297Y-025830D01*
G01X0055293Y-018329D02*
G01X0049793Y-018329D01*
G01X0049793Y-018329D02*
G01X0049793Y-018715D01*
G01X0049793Y-018715D02*
G01X0049473Y-018715D01*
G01X0049473Y-018715D02*
G01X0049473Y-020093D01*
G01X0049473Y-020093D02*
G01X0049793Y-020093D01*
G01X0049793Y-020093D02*
G01X0049793Y-022065D01*
G01X0049793Y-022065D02*
G01X0049473Y-022065D01*
G01X0049473Y-022065D02*
G01X0049473Y-023443D01*
G01X0049473Y-023443D02*
G01X0049793Y-023443D01*
G01X0049793Y-023443D02*
G01X0049793Y-023829D01*
G01X0049793Y-023829D02*
G01X0055293Y-023829D01*
G01X0055293Y-023829D02*
G01X0055293Y-023443D01*
G01X0055293Y-023443D02*
G01X0055613Y-023443D01*
G01X0055613Y-023443D02*
G01X0055613Y-022065D01*
G01X0055613Y-022065D02*
G01X0055293Y-022065D01*
G01X0055293Y-022065D02*
G01X0055293Y-020093D01*
G01X0055293Y-020093D02*
G01X0055613Y-020093D01*
G01X0055613Y-020093D02*
G01X0055613Y-018715D01*
G01X0055613Y-018715D02*
G01X0055293Y-018715D01*
G01X0055293Y-018715D02*
G01X0055293Y-018329D01*
G01X0055293Y-010829D02*
G01X0049793Y-010829D01*
G01X0049793Y-010829D02*
G01X0049793Y-011215D01*
G01X0049793Y-011215D02*
G01X0049473Y-011215D01*
G01X0049473Y-011215D02*
G01X0049473Y-012593D01*
G01X0049473Y-012593D02*
G01X0049793Y-012593D01*
G01X0049793Y-012593D02*
G01X0049793Y-014565D01*
G01X0049793Y-014565D02*
G01X0049473Y-014565D01*
G01X0049473Y-014565D02*
G01X0049473Y-015943D01*
G01X0049473Y-015943D02*
G01X0049793Y-015943D01*
G01X0049793Y-015943D02*
G01X0049793Y-016329D01*
G01X0049793Y-016329D02*
G01X0055293Y-016329D01*
G01X0055293Y-016329D02*
G01X0055293Y-015943D01*
G01X0055293Y-015943D02*
G01X0055613Y-015943D01*
G01X0055613Y-015943D02*
G01X0055613Y-014565D01*
G01X0055613Y-014565D02*
G01X0055293Y-014565D01*
G01X0055293Y-014565D02*
G01X0055293Y-012593D01*
G01X0055293Y-012593D02*
G01X0055613Y-012593D01*
G01X0055613Y-012593D02*
G01X0055613Y-011215D01*
G01X0055613Y-011215D02*
G01X0055293Y-011215D01*
G01X0055293Y-011215D02*
G01X0055293Y-010829D01*
G01X0047793Y-040120D02*
G01X0042293Y-040120D01*
G01X0042293Y-040120D02*
G01X0042293Y-040506D01*
G01X0042293Y-040506D02*
G01X0041973Y-040506D01*
G01X0041973Y-040506D02*
G01X0041973Y-041884D01*
G01X0041973Y-041884D02*
G01X0042293Y-041884D01*
G01X0042293Y-041884D02*
G01X0042293Y-043856D01*
G01X0042293Y-043856D02*
G01X0041973Y-043856D01*
G01X0041973Y-043856D02*
G01X0041973Y-045234D01*
G01X0041973Y-045234D02*
G01X0042293Y-045234D01*
G01X0042293Y-045234D02*
G01X0042293Y-045620D01*
G01X0042293Y-045620D02*
G01X0047793Y-045620D01*
G01X0047793Y-045620D02*
G01X0047793Y-045234D01*
G01X0047793Y-045234D02*
G01X0048113Y-045234D01*
G01X0048113Y-045234D02*
G01X0048113Y-043856D01*
G01X0048113Y-043856D02*
G01X0047793Y-043856D01*
G01X0047793Y-043856D02*
G01X0047793Y-041884D01*
G01X0047793Y-041884D02*
G01X0048113Y-041884D01*
G01X0048113Y-041884D02*
G01X0048113Y-040506D01*
G01X0048113Y-040506D02*
G01X0047793Y-040506D01*
G01X0047793Y-040506D02*
G01X0047793Y-040120D01*
G01X0047797Y-032620D02*
G01X0042297Y-032620D01*
G01X0042297Y-032620D02*
G01X0042297Y-033006D01*
G01X0042297Y-033006D02*
G01X0041977Y-033006D01*
G01X0041977Y-033006D02*
G01X0041977Y-034384D01*
G01X0041977Y-034384D02*
G01X0042297Y-034384D01*
G01X0042297Y-034384D02*
G01X0042297Y-036356D01*
G01X0042297Y-036356D02*
G01X0041977Y-036356D01*
G01X0041977Y-036356D02*
G01X0041977Y-037734D01*
G01X0041977Y-037734D02*
G01X0042297Y-037734D01*
G01X0042297Y-037734D02*
G01X0042297Y-038120D01*
G01X0042297Y-038120D02*
G01X0047797Y-038120D01*
G01X0047797Y-038120D02*
G01X0047797Y-037734D01*
G01X0047797Y-037734D02*
G01X0048117Y-037734D01*
G01X0048117Y-037734D02*
G01X0048117Y-036356D01*
G01X0048117Y-036356D02*
G01X0047797Y-036356D01*
G01X0047797Y-036356D02*
G01X0047797Y-034384D01*
G01X0047797Y-034384D02*
G01X0048117Y-034384D01*
G01X0048117Y-034384D02*
G01X0048117Y-033006D01*
G01X0048117Y-033006D02*
G01X0047797Y-033006D01*
G01X0047797Y-033006D02*
G01X0047797Y-032620D01*
G01X0047793Y-025120D02*
G01X0042293Y-025120D01*
G01X0042293Y-025120D02*
G01X0042293Y-025506D01*
G01X0042293Y-025506D02*
G01X0041973Y-025506D01*
G01X0041973Y-025506D02*
G01X0041973Y-026884D01*
G01X0041973Y-026884D02*
G01X0042293Y-026884D01*
G01X0042293Y-026884D02*
G01X0042293Y-028856D01*
G01X0042293Y-028856D02*
G01X0041973Y-028856D01*
G01X0041973Y-028856D02*
G01X0041973Y-030234D01*
G01X0041973Y-030234D02*
G01X0042293Y-030234D01*
G01X0042293Y-030234D02*
G01X0042293Y-030620D01*
G01X0042293Y-030620D02*
G01X0047793Y-030620D01*
G01X0047793Y-030620D02*
G01X0047793Y-030234D01*
G01X0047793Y-030234D02*
G01X0048113Y-030234D01*
G01X0048113Y-030234D02*
G01X0048113Y-028856D01*
G01X0048113Y-028856D02*
G01X0047793Y-028856D01*
G01X0047793Y-028856D02*
G01X0047793Y-026884D01*
G01X0047793Y-026884D02*
G01X0048113Y-026884D01*
G01X0048113Y-026884D02*
G01X0048113Y-025506D01*
G01X0048113Y-025506D02*
G01X0047793Y-025506D01*
G01X0047793Y-025506D02*
G01X0047793Y-025120D01*
G01X0047797Y-017620D02*
G01X0042297Y-017620D01*
G01X0042297Y-017620D02*
G01X0042297Y-018006D01*
G01X0042297Y-018006D02*
G01X0041977Y-018006D01*
G01X0041977Y-018006D02*
G01X0041977Y-019384D01*
G01X0041977Y-019384D02*
G01X0042297Y-019384D01*
G01X0042297Y-019384D02*
G01X0042297Y-021356D01*
G01X0042297Y-021356D02*
G01X0041977Y-021356D01*
G01X0041977Y-021356D02*
G01X0041977Y-022734D01*
G01X0041977Y-022734D02*
G01X0042297Y-022734D01*
G01X0042297Y-022734D02*
G01X0042297Y-023120D01*
G01X0042297Y-023120D02*
G01X0047797Y-023120D01*
G01X0047797Y-023120D02*
G01X0047797Y-022734D01*
G01X0047797Y-022734D02*
G01X0048117Y-022734D01*
G01X0048117Y-022734D02*
G01X0048117Y-021356D01*
G01X0048117Y-021356D02*
G01X0047797Y-021356D01*
G01X0047797Y-021356D02*
G01X0047797Y-019384D01*
G01X0047797Y-019384D02*
G01X0048117Y-019384D01*
G01X0048117Y-019384D02*
G01X0048117Y-018006D01*
G01X0048117Y-018006D02*
G01X0047797Y-018006D01*
G01X0047797Y-018006D02*
G01X0047797Y-017620D01*
G01X0047793Y-010120D02*
G01X0042293Y-010120D01*
G01X0042293Y-010120D02*
G01X0042293Y-010506D01*
G01X0042293Y-010506D02*
G01X0041973Y-010506D01*
G01X0041973Y-010506D02*
G01X0041973Y-011884D01*
G01X0041973Y-011884D02*
G01X0042293Y-011884D01*
G01X0042293Y-011884D02*
G01X0042293Y-013856D01*
G01X0042293Y-013856D02*
G01X0041973Y-013856D01*
G01X0041973Y-013856D02*
G01X0041973Y-015234D01*
G01X0041973Y-015234D02*
G01X0042293Y-015234D01*
G01X0042293Y-015234D02*
G01X0042293Y-015620D01*
G01X0042293Y-015620D02*
G01X0047793Y-015620D01*
G01X0047793Y-015620D02*
G01X0047793Y-015234D01*
G01X0047793Y-015234D02*
G01X0048113Y-015234D01*
G01X0048113Y-015234D02*
G01X0048113Y-013856D01*
G01X0048113Y-013856D02*
G01X0047793Y-013856D01*
G01X0047793Y-013856D02*
G01X0047793Y-011884D01*
G01X0047793Y-011884D02*
G01X0048113Y-011884D01*
G01X0048113Y-011884D02*
G01X0048113Y-010506D01*
G01X0048113Y-010506D02*
G01X0047793Y-010506D01*
G01X0047793Y-010506D02*
G01X0047793Y-010120D01*
G01X0040293Y-040829D02*
G01X0034793Y-040829D01*
G01X0034793Y-040829D02*
G01X0034793Y-041215D01*
G01X0034793Y-041215D02*
G01X0034473Y-041215D01*
G01X0034473Y-041215D02*
G01X0034473Y-042593D01*
G01X0034473Y-042593D02*
G01X0034793Y-042593D01*
G01X0034793Y-042593D02*
G01X0034793Y-044565D01*
G01X0034793Y-044565D02*
G01X0034473Y-044565D01*
G01X0034473Y-044565D02*
G01X0034473Y-045943D01*
G01X0034473Y-045943D02*
G01X0034793Y-045943D01*
G01X0034793Y-045943D02*
G01X0034793Y-046329D01*
G01X0034793Y-046329D02*
G01X0040293Y-046329D01*
G01X0040293Y-046329D02*
G01X0040293Y-045943D01*
G01X0040293Y-045943D02*
G01X0040613Y-045943D01*
G01X0040613Y-045943D02*
G01X0040613Y-044565D01*
G01X0040613Y-044565D02*
G01X0040293Y-044565D01*
G01X0040293Y-044565D02*
G01X0040293Y-042593D01*
G01X0040293Y-042593D02*
G01X0040613Y-042593D01*
G01X0040613Y-042593D02*
G01X0040613Y-041215D01*
G01X0040613Y-041215D02*
G01X0040293Y-041215D01*
G01X0040293Y-041215D02*
G01X0040293Y-040829D01*
G01X0040293Y-033329D02*
G01X0034793Y-033329D01*
G01X0034793Y-033329D02*
G01X0034793Y-033715D01*
G01X0034793Y-033715D02*
G01X0034473Y-033715D01*
G01X0034473Y-033715D02*
G01X0034473Y-035093D01*
G01X0034473Y-035093D02*
G01X0034793Y-035093D01*
G01X0034793Y-035093D02*
G01X0034793Y-037065D01*
G01X0034793Y-037065D02*
G01X0034473Y-037065D01*
G01X0034473Y-037065D02*
G01X0034473Y-038443D01*
G01X0034473Y-038443D02*
G01X0034793Y-038443D01*
G01X0034793Y-038443D02*
G01X0034793Y-038829D01*
G01X0034793Y-038829D02*
G01X0040293Y-038829D01*
G01X0040293Y-038829D02*
G01X0040293Y-038443D01*
G01X0040293Y-038443D02*
G01X0040613Y-038443D01*
G01X0040613Y-038443D02*
G01X0040613Y-037065D01*
G01X0040613Y-037065D02*
G01X0040293Y-037065D01*
G01X0040293Y-037065D02*
G01X0040293Y-035093D01*
G01X0040293Y-035093D02*
G01X0040613Y-035093D01*
G01X0040613Y-035093D02*
G01X0040613Y-033715D01*
G01X0040613Y-033715D02*
G01X0040293Y-033715D01*
G01X0040293Y-033715D02*
G01X0040293Y-033329D01*
G01X0040297Y-025829D02*
G01X0034797Y-025829D01*
G01X0034797Y-025829D02*
G01X0034797Y-026215D01*
G01X0034797Y-026215D02*
G01X0034477Y-026215D01*
G01X0034477Y-026215D02*
G01X0034477Y-027593D01*
G01X0034477Y-027593D02*
G01X0034797Y-027593D01*
G01X0034797Y-027593D02*
G01X0034797Y-029565D01*
G01X0034797Y-029565D02*
G01X0034477Y-029565D01*
G01X0034477Y-029565D02*
G01X0034477Y-030943D01*
G01X0034477Y-030943D02*
G01X0034797Y-030943D01*
G01X0034797Y-030943D02*
G01X0034797Y-031329D01*
G01X0034797Y-031329D02*
G01X0040297Y-031329D01*
G01X0040297Y-031329D02*
G01X0040297Y-030943D01*
G01X0040297Y-030943D02*
G01X0040617Y-030943D01*
G01X0040617Y-030943D02*
G01X0040617Y-029565D01*
G01X0040617Y-029565D02*
G01X0040297Y-029565D01*
G01X0040297Y-029565D02*
G01X0040297Y-027593D01*
G01X0040297Y-027593D02*
G01X0040617Y-027593D01*
G01X0040617Y-027593D02*
G01X0040617Y-026215D01*
G01X0040617Y-026215D02*
G01X0040297Y-026215D01*
G01X0040297Y-026215D02*
G01X0040297Y-025829D01*
G01X0040293Y-018329D02*
G01X0034793Y-018329D01*
G01X0034793Y-018329D02*
G01X0034793Y-018715D01*
G01X0034793Y-018715D02*
G01X0034473Y-018715D01*
G01X0034473Y-018715D02*
G01X0034473Y-020093D01*
G01X0034473Y-020093D02*
G01X0034793Y-020093D01*
G01X0034793Y-020093D02*
G01X0034793Y-022065D01*
G01X0034793Y-022065D02*
G01X0034473Y-022065D01*
G01X0034473Y-022065D02*
G01X0034473Y-023443D01*
G01X0034473Y-023443D02*
G01X0034793Y-023443D01*
G01X0034793Y-023443D02*
G01X0034793Y-023829D01*
G01X0034793Y-023829D02*
G01X0040293Y-023829D01*
G01X0040293Y-023829D02*
G01X0040293Y-023443D01*
G01X0040293Y-023443D02*
G01X0040613Y-023443D01*
G01X0040613Y-023443D02*
G01X0040613Y-022065D01*
G01X0040613Y-022065D02*
G01X0040293Y-022065D01*
G01X0040293Y-022065D02*
G01X0040293Y-020093D01*
G01X0040293Y-020093D02*
G01X0040613Y-020093D01*
G01X0040613Y-020093D02*
G01X0040613Y-018715D01*
G01X0040613Y-018715D02*
G01X0040293Y-018715D01*
G01X0040293Y-018715D02*
G01X0040293Y-018329D01*
G01X0040293Y-010829D02*
G01X0034793Y-010829D01*
G01X0034793Y-010829D02*
G01X0034793Y-011215D01*
G01X0034793Y-011215D02*
G01X0034473Y-011215D01*
G01X0034473Y-011215D02*
G01X0034473Y-012593D01*
G01X0034473Y-012593D02*
G01X0034793Y-012593D01*
G01X0034793Y-012593D02*
G01X0034793Y-014565D01*
G01X0034793Y-014565D02*
G01X0034473Y-014565D01*
G01X0034473Y-014565D02*
G01X0034473Y-015943D01*
G01X0034473Y-015943D02*
G01X0034793Y-015943D01*
G01X0034793Y-015943D02*
G01X0034793Y-016329D01*
G01X0034793Y-016329D02*
G01X0040293Y-016329D01*
G01X0040293Y-016329D02*
G01X0040293Y-015943D01*
G01X0040293Y-015943D02*
G01X0040613Y-015943D01*
G01X0040613Y-015943D02*
G01X0040613Y-014565D01*
G01X0040613Y-014565D02*
G01X0040293Y-014565D01*
G01X0040293Y-014565D02*
G01X0040293Y-012593D01*
G01X0040293Y-012593D02*
G01X0040613Y-012593D01*
G01X0040613Y-012593D02*
G01X0040613Y-011215D01*
G01X0040613Y-011215D02*
G01X0040293Y-011215D01*
G01X0040293Y-011215D02*
G01X0040293Y-010829D01*
G01X0032793Y-042010D02*
G01X0027293Y-042010D01*
G01X0027293Y-042010D02*
G01X0027293Y-042396D01*
G01X0027293Y-042396D02*
G01X0026973Y-042396D01*
G01X0026973Y-042396D02*
G01X0026973Y-043774D01*
G01X0026973Y-043774D02*
G01X0027293Y-043774D01*
G01X0027293Y-043774D02*
G01X0027293Y-045746D01*
G01X0027293Y-045746D02*
G01X0026973Y-045746D01*
G01X0026973Y-045746D02*
G01X0026973Y-047124D01*
G01X0026973Y-047124D02*
G01X0027293Y-047124D01*
G01X0027293Y-047124D02*
G01X0027293Y-047510D01*
G01X0027293Y-047510D02*
G01X0032793Y-047510D01*
G01X0032793Y-047510D02*
G01X0032793Y-047124D01*
G01X0032793Y-047124D02*
G01X0033113Y-047124D01*
G01X0033113Y-047124D02*
G01X0033113Y-045746D01*
G01X0033113Y-045746D02*
G01X0032793Y-045746D01*
G01X0032793Y-045746D02*
G01X0032793Y-043774D01*
G01X0032793Y-043774D02*
G01X0033113Y-043774D01*
G01X0033113Y-043774D02*
G01X0033113Y-042396D01*
G01X0033113Y-042396D02*
G01X0032793Y-042396D01*
G01X0032793Y-042396D02*
G01X0032793Y-042010D01*
G01X0032793Y-027006D02*
G01X0027293Y-027006D01*
G01X0027293Y-027006D02*
G01X0027293Y-027392D01*
G01X0027293Y-027392D02*
G01X0026973Y-027392D01*
G01X0026973Y-027392D02*
G01X0026973Y-028770D01*
G01X0026973Y-028770D02*
G01X0027293Y-028770D01*
G01X0027293Y-028770D02*
G01X0027293Y-030742D01*
G01X0027293Y-030742D02*
G01X0026973Y-030742D01*
G01X0026973Y-030742D02*
G01X0026973Y-032120D01*
G01X0026973Y-032120D02*
G01X0027293Y-032120D01*
G01X0027293Y-032120D02*
G01X0027293Y-032506D01*
G01X0027293Y-032506D02*
G01X0032793Y-032506D01*
G01X0032793Y-032506D02*
G01X0032793Y-032120D01*
G01X0032793Y-032120D02*
G01X0033113Y-032120D01*
G01X0033113Y-032120D02*
G01X0033113Y-030742D01*
G01X0033113Y-030742D02*
G01X0032793Y-030742D01*
G01X0032793Y-030742D02*
G01X0032793Y-028770D01*
G01X0032793Y-028770D02*
G01X0033113Y-028770D01*
G01X0033113Y-028770D02*
G01X0033113Y-027392D01*
G01X0033113Y-027392D02*
G01X0032793Y-027392D01*
G01X0032793Y-027392D02*
G01X0032793Y-027006D01*
G01X0032793Y-019510D02*
G01X0027293Y-019510D01*
G01X0027293Y-019510D02*
G01X0027293Y-019896D01*
G01X0027293Y-019896D02*
G01X0026973Y-019896D01*
G01X0026973Y-019896D02*
G01X0026973Y-021274D01*
G01X0026973Y-021274D02*
G01X0027293Y-021274D01*
G01X0027293Y-021274D02*
G01X0027293Y-023246D01*
G01X0027293Y-023246D02*
G01X0026973Y-023246D01*
G01X0026973Y-023246D02*
G01X0026973Y-024624D01*
G01X0026973Y-024624D02*
G01X0027293Y-024624D01*
G01X0027293Y-024624D02*
G01X0027293Y-025010D01*
G01X0027293Y-025010D02*
G01X0032793Y-025010D01*
G01X0032793Y-025010D02*
G01X0032793Y-024624D01*
G01X0032793Y-024624D02*
G01X0033113Y-024624D01*
G01X0033113Y-024624D02*
G01X0033113Y-023246D01*
G01X0033113Y-023246D02*
G01X0032793Y-023246D01*
G01X0032793Y-023246D02*
G01X0032793Y-021274D01*
G01X0032793Y-021274D02*
G01X0033113Y-021274D01*
G01X0033113Y-021274D02*
G01X0033113Y-019896D01*
G01X0033113Y-019896D02*
G01X0032793Y-019896D01*
G01X0032793Y-019896D02*
G01X0032793Y-019510D01*
G01X0032793Y-012010D02*
G01X0027293Y-012010D01*
G01X0027293Y-012010D02*
G01X0027293Y-012396D01*
G01X0027293Y-012396D02*
G01X0026973Y-012396D01*
G01X0026973Y-012396D02*
G01X0026973Y-013774D01*
G01X0026973Y-013774D02*
G01X0027293Y-013774D01*
G01X0027293Y-013774D02*
G01X0027293Y-015746D01*
G01X0027293Y-015746D02*
G01X0026973Y-015746D01*
G01X0026973Y-015746D02*
G01X0026973Y-017124D01*
G01X0026973Y-017124D02*
G01X0027293Y-017124D01*
G01X0027293Y-017124D02*
G01X0027293Y-017510D01*
G01X0027293Y-017510D02*
G01X0032793Y-017510D01*
G01X0032793Y-017510D02*
G01X0032793Y-017124D01*
G01X0032793Y-017124D02*
G01X0033113Y-017124D01*
G01X0033113Y-017124D02*
G01X0033113Y-015746D01*
G01X0033113Y-015746D02*
G01X0032793Y-015746D01*
G01X0032793Y-015746D02*
G01X0032793Y-013774D01*
G01X0032793Y-013774D02*
G01X0033113Y-013774D01*
G01X0033113Y-013774D02*
G01X0033113Y-012396D01*
G01X0033113Y-012396D02*
G01X0032793Y-012396D01*
G01X0032793Y-012396D02*
G01X0032793Y-012010D01*
G01X0025301Y-042010D02*
G01X0019801Y-042010D01*
G01X0019801Y-042010D02*
G01X0019801Y-042396D01*
G01X0019801Y-042396D02*
G01X0019481Y-042396D01*
G01X0019481Y-042396D02*
G01X0019481Y-043774D01*
G01X0019481Y-043774D02*
G01X0019801Y-043774D01*
G01X0019801Y-043774D02*
G01X0019801Y-045746D01*
G01X0019801Y-045746D02*
G01X0019481Y-045746D01*
G01X0019481Y-045746D02*
G01X0019481Y-047124D01*
G01X0019481Y-047124D02*
G01X0019801Y-047124D01*
G01X0019801Y-047124D02*
G01X0019801Y-047510D01*
G01X0019801Y-047510D02*
G01X0025301Y-047510D01*
G01X0025301Y-047510D02*
G01X0025301Y-047124D01*
G01X0025301Y-047124D02*
G01X0025621Y-047124D01*
G01X0025621Y-047124D02*
G01X0025621Y-045746D01*
G01X0025621Y-045746D02*
G01X0025301Y-045746D01*
G01X0025301Y-045746D02*
G01X0025301Y-043774D01*
G01X0025301Y-043774D02*
G01X0025621Y-043774D01*
G01X0025621Y-043774D02*
G01X0025621Y-042396D01*
G01X0025621Y-042396D02*
G01X0025301Y-042396D01*
G01X0025301Y-042396D02*
G01X0025301Y-042010D01*
G01X0024356Y-034510D02*
G01X0018856Y-034510D01*
G01X0018856Y-034510D02*
G01X0018856Y-034896D01*
G01X0018856Y-034896D02*
G01X0018536Y-034896D01*
G01X0018536Y-034896D02*
G01X0018536Y-036274D01*
G01X0018536Y-036274D02*
G01X0018856Y-036274D01*
G01X0018856Y-036274D02*
G01X0018856Y-038246D01*
G01X0018856Y-038246D02*
G01X0018536Y-038246D01*
G01X0018536Y-038246D02*
G01X0018536Y-039624D01*
G01X0018536Y-039624D02*
G01X0018856Y-039624D01*
G01X0018856Y-039624D02*
G01X0018856Y-040010D01*
G01X0018856Y-040010D02*
G01X0024356Y-040010D01*
G01X0024356Y-040010D02*
G01X0024356Y-039624D01*
G01X0024356Y-039624D02*
G01X0024676Y-039624D01*
G01X0024676Y-039624D02*
G01X0024676Y-038246D01*
G01X0024676Y-038246D02*
G01X0024356Y-038246D01*
G01X0024356Y-038246D02*
G01X0024356Y-036274D01*
G01X0024356Y-036274D02*
G01X0024676Y-036274D01*
G01X0024676Y-036274D02*
G01X0024676Y-034896D01*
G01X0024676Y-034896D02*
G01X0024356Y-034896D01*
G01X0024356Y-034896D02*
G01X0024356Y-034510D01*
G01X0023423Y-027006D02*
G01X0017923Y-027006D01*
G01X0017923Y-027006D02*
G01X0017923Y-027392D01*
G01X0017923Y-027392D02*
G01X0017603Y-027392D01*
G01X0017603Y-027392D02*
G01X0017603Y-028770D01*
G01X0017603Y-028770D02*
G01X0017923Y-028770D01*
G01X0017923Y-028770D02*
G01X0017923Y-030742D01*
G01X0017923Y-030742D02*
G01X0017603Y-030742D01*
G01X0017603Y-030742D02*
G01X0017603Y-032120D01*
G01X0017603Y-032120D02*
G01X0017923Y-032120D01*
G01X0017923Y-032120D02*
G01X0017923Y-032506D01*
G01X0017923Y-032506D02*
G01X0023423Y-032506D01*
G01X0023423Y-032506D02*
G01X0023423Y-032120D01*
G01X0023423Y-032120D02*
G01X0023743Y-032120D01*
G01X0023743Y-032120D02*
G01X0023743Y-030742D01*
G01X0023743Y-030742D02*
G01X0023423Y-030742D01*
G01X0023423Y-030742D02*
G01X0023423Y-028770D01*
G01X0023423Y-028770D02*
G01X0023743Y-028770D01*
G01X0023743Y-028770D02*
G01X0023743Y-027392D01*
G01X0023743Y-027392D02*
G01X0023423Y-027392D01*
G01X0023423Y-027392D02*
G01X0023423Y-027006D01*
G01X0025297Y-019510D02*
G01X0019797Y-019510D01*
G01X0019797Y-019510D02*
G01X0019797Y-019896D01*
G01X0019797Y-019896D02*
G01X0019477Y-019896D01*
G01X0019477Y-019896D02*
G01X0019477Y-021274D01*
G01X0019477Y-021274D02*
G01X0019797Y-021274D01*
G01X0019797Y-021274D02*
G01X0019797Y-023246D01*
G01X0019797Y-023246D02*
G01X0019477Y-023246D01*
G01X0019477Y-023246D02*
G01X0019477Y-024624D01*
G01X0019477Y-024624D02*
G01X0019797Y-024624D01*
G01X0019797Y-024624D02*
G01X0019797Y-025010D01*
G01X0019797Y-025010D02*
G01X0025297Y-025010D01*
G01X0025297Y-025010D02*
G01X0025297Y-024624D01*
G01X0025297Y-024624D02*
G01X0025617Y-024624D01*
G01X0025617Y-024624D02*
G01X0025617Y-023246D01*
G01X0025617Y-023246D02*
G01X0025297Y-023246D01*
G01X0025297Y-023246D02*
G01X0025297Y-021274D01*
G01X0025297Y-021274D02*
G01X0025617Y-021274D01*
G01X0025617Y-021274D02*
G01X0025617Y-019896D01*
G01X0025617Y-019896D02*
G01X0025297Y-019896D01*
G01X0025297Y-019896D02*
G01X0025297Y-019510D01*
G01X0025293Y-012010D02*
G01X0019793Y-012010D01*
G01X0019793Y-012010D02*
G01X0019793Y-012396D01*
G01X0019793Y-012396D02*
G01X0019473Y-012396D01*
G01X0019473Y-012396D02*
G01X0019473Y-013774D01*
G01X0019473Y-013774D02*
G01X0019793Y-013774D01*
G01X0019793Y-013774D02*
G01X0019793Y-015746D01*
G01X0019793Y-015746D02*
G01X0019473Y-015746D01*
G01X0019473Y-015746D02*
G01X0019473Y-017124D01*
G01X0019473Y-017124D02*
G01X0019793Y-017124D01*
G01X0019793Y-017124D02*
G01X0019793Y-017510D01*
G01X0019793Y-017510D02*
G01X0025293Y-017510D01*
G01X0025293Y-017510D02*
G01X0025293Y-017124D01*
G01X0025293Y-017124D02*
G01X0025613Y-017124D01*
G01X0025613Y-017124D02*
G01X0025613Y-015746D01*
G01X0025613Y-015746D02*
G01X0025293Y-015746D01*
G01X0025293Y-015746D02*
G01X0025293Y-013774D01*
G01X0025293Y-013774D02*
G01X0025613Y-013774D01*
G01X0025613Y-013774D02*
G01X0025613Y-012396D01*
G01X0025613Y-012396D02*
G01X0025293Y-012396D01*
G01X0025293Y-012396D02*
G01X0025293Y-012010D01*
G01X0017797Y-019506D02*
G01X0012297Y-019506D01*
G01X0012297Y-019506D02*
G01X0012297Y-019892D01*
G01X0012297Y-019892D02*
G01X0011977Y-019892D01*
G01X0011977Y-019892D02*
G01X0011977Y-021270D01*
G01X0011977Y-021270D02*
G01X0012297Y-021270D01*
G01X0012297Y-021270D02*
G01X0012297Y-023242D01*
G01X0012297Y-023242D02*
G01X0011977Y-023242D01*
G01X0011977Y-023242D02*
G01X0011977Y-024620D01*
G01X0011977Y-024620D02*
G01X0012297Y-024620D01*
G01X0012297Y-024620D02*
G01X0012297Y-025006D01*
G01X0012297Y-025006D02*
G01X0017797Y-025006D01*
G01X0017797Y-025006D02*
G01X0017797Y-024620D01*
G01X0017797Y-024620D02*
G01X0018117Y-024620D01*
G01X0018117Y-024620D02*
G01X0018117Y-023242D01*
G01X0018117Y-023242D02*
G01X0017797Y-023242D01*
G01X0017797Y-023242D02*
G01X0017797Y-021270D01*
G01X0017797Y-021270D02*
G01X0018117Y-021270D01*
G01X0018117Y-021270D02*
G01X0018117Y-019892D01*
G01X0018117Y-019892D02*
G01X0017797Y-019892D01*
G01X0017797Y-019892D02*
G01X0017797Y-019506D01*
G01X0062693Y-044948D02*
G01X0060369Y-049933D01*
G01X0060369Y-049933D02*
G01X0060719Y-050096D01*
G01X0060719Y-050096D02*
G01X0060584Y-050386D01*
G01X0060584Y-050386D02*
G01X0061833Y-050968D01*
G01X0061833Y-050968D02*
G01X0061968Y-050678D01*
G01X0061968Y-050678D02*
G01X0063755Y-051511D01*
G01X0063755Y-051511D02*
G01X0063620Y-051801D01*
G01X0063620Y-051801D02*
G01X0064869Y-052384D01*
G01X0064869Y-052384D02*
G01X0065004Y-052094D01*
G01X0065004Y-052094D02*
G01X0065354Y-052257D01*
G01X0065354Y-052257D02*
G01X0067678Y-047272D01*
G01X0067678Y-047272D02*
G01X0067328Y-047109D01*
G01X0067328Y-047109D02*
G01X0067464Y-046819D01*
G01X0067464Y-046819D02*
G01X0066215Y-046237D01*
G01X0066215Y-046237D02*
G01X0066079Y-046527D01*
G01X0066079Y-046527D02*
G01X0064292Y-045693D01*
G01X0064292Y-045693D02*
G01X0064427Y-045403D01*
G01X0064427Y-045403D02*
G01X0063179Y-044821D01*
G01X0063179Y-044821D02*
G01X0063043Y-045111D01*
G01X0063043Y-045111D02*
G01X0062693Y-044948D01*
G54D11*
G01X0011600Y-046000D02*
G01X0011600Y-044000D01*
G01X0011600Y-044000D02*
G01X0012600Y-044000D01*
G01X0012600Y-044000D02*
G01X0012600Y-046000D01*
G01X0011600Y-046000D02*
G01X0012600Y-046000D01*
G01X0010600Y-046000D02*
G01X0010600Y-044000D01*
G01X0010600Y-044000D02*
G01X0011600Y-044000D01*
G01X0011600Y-044000D02*
G01X0011600Y-046000D01*
G01X0010600Y-046000D02*
G01X0011600Y-046000D01*
G01X0029560Y-039781D02*
G01X0029616Y-039800D01*
G01X0029616Y-039800D02*
G01X0029710Y-039800D01*
G01X0029710Y-039800D02*
G01X0029747Y-039781D01*
G01X0029747Y-039781D02*
G01X0029766Y-039763D01*
G01X0029766Y-039763D02*
G01X0029785Y-039725D01*
G01X0029785Y-039725D02*
G01X0029785Y-039688D01*
G01X0029785Y-039688D02*
G01X0029766Y-039650D01*
G01X0029766Y-039650D02*
G01X0029747Y-039631D01*
G01X0029747Y-039631D02*
G01X0029710Y-039613D01*
G01X0029710Y-039613D02*
G01X0029635Y-039594D01*
G01X0029635Y-039594D02*
G01X0029597Y-039575D01*
G01X0029597Y-039575D02*
G01X0029579Y-039556D01*
G01X0029579Y-039556D02*
G01X0029560Y-039519D01*
G01X0029560Y-039519D02*
G01X0029560Y-039481D01*
G01X0029560Y-039481D02*
G01X0029579Y-039444D01*
G01X0029579Y-039444D02*
G01X0029597Y-039425D01*
G01X0029597Y-039425D02*
G01X0029635Y-039406D01*
G01X0029635Y-039406D02*
G01X0029729Y-039406D01*
G01X0029729Y-039406D02*
G01X0029785Y-039425D01*
G01X0030160Y-039800D02*
G01X0029935Y-039800D01*
G01X0030047Y-039800D02*
G01X0030047Y-039406D01*
G01X0030047Y-039406D02*
G01X0030010Y-039463D01*
G01X0030010Y-039463D02*
G01X0029972Y-039500D01*
G01X0029972Y-039500D02*
G01X0029935Y-039519D01*
G01X0030535Y-039800D02*
G01X0030310Y-039800D01*
G01X0030422Y-039800D02*
G01X0030422Y-039406D01*
G01X0030422Y-039406D02*
G01X0030385Y-039463D01*
G01X0030385Y-039463D02*
G01X0030347Y-039500D01*
G01X0030347Y-039500D02*
G01X0030310Y-039519D01*
G01X0013400Y-026284D02*
G01X0013400Y-026603D01*
G01X0013400Y-026603D02*
G01X0013419Y-026641D01*
G01X0013419Y-026641D02*
G01X0013438Y-026659D01*
G01X0013438Y-026659D02*
G01X0013475Y-026678D01*
G01X0013475Y-026678D02*
G01X0013550Y-026678D01*
G01X0013550Y-026678D02*
G01X0013588Y-026659D01*
G01X0013588Y-026659D02*
G01X0013606Y-026641D01*
G01X0013606Y-026641D02*
G01X0013625Y-026603D01*
G01X0013625Y-026603D02*
G01X0013625Y-026284D01*
G01X0014019Y-026678D02*
G01X0013794Y-026678D01*
G01X0013906Y-026678D02*
G01X0013906Y-026284D01*
G01X0013906Y-026284D02*
G01X0013869Y-026341D01*
G01X0013869Y-026341D02*
G01X0013831Y-026378D01*
G01X0013831Y-026378D02*
G01X0013794Y-026397D01*
G01X0011528Y-038041D02*
G01X0011134Y-038041D01*
G01X0011134Y-038041D02*
G01X0011134Y-037891D01*
G01X0011134Y-037891D02*
G01X0011153Y-037853D01*
G01X0011153Y-037853D02*
G01X0011172Y-037834D01*
G01X0011172Y-037834D02*
G01X0011209Y-037816D01*
G01X0011209Y-037816D02*
G01X0011266Y-037816D01*
G01X0011266Y-037816D02*
G01X0011303Y-037834D01*
G01X0011303Y-037834D02*
G01X0011322Y-037853D01*
G01X0011322Y-037853D02*
G01X0011341Y-037891D01*
G01X0011341Y-037891D02*
G01X0011341Y-038041D01*
G01X0011172Y-037666D02*
G01X0011153Y-037647D01*
G01X0011153Y-037647D02*
G01X0011134Y-037609D01*
G01X0011134Y-037609D02*
G01X0011134Y-037516D01*
G01X0011134Y-037516D02*
G01X0011153Y-037478D01*
G01X0011153Y-037478D02*
G01X0011172Y-037459D01*
G01X0011172Y-037459D02*
G01X0011209Y-037441D01*
G01X0011209Y-037441D02*
G01X0011247Y-037441D01*
G01X0011247Y-037441D02*
G01X0011303Y-037459D01*
G01X0011303Y-037459D02*
G01X0011528Y-037684D01*
G01X0011528Y-037684D02*
G01X0011528Y-037441D01*
G01X0014743Y-017281D02*
G01X0014800Y-017300D01*
G01X0014800Y-017300D02*
G01X0014893Y-017300D01*
G01X0014893Y-017300D02*
G01X0014931Y-017281D01*
G01X0014931Y-017281D02*
G01X0014950Y-017263D01*
G01X0014950Y-017263D02*
G01X0014968Y-017225D01*
G01X0014968Y-017225D02*
G01X0014968Y-017188D01*
G01X0014968Y-017188D02*
G01X0014950Y-017150D01*
G01X0014950Y-017150D02*
G01X0014931Y-017131D01*
G01X0014931Y-017131D02*
G01X0014893Y-017113D01*
G01X0014893Y-017113D02*
G01X0014818Y-017094D01*
G01X0014818Y-017094D02*
G01X0014781Y-017075D01*
G01X0014781Y-017075D02*
G01X0014762Y-017056D01*
G01X0014762Y-017056D02*
G01X0014743Y-017019D01*
G01X0014743Y-017019D02*
G01X0014743Y-016981D01*
G01X0014743Y-016981D02*
G01X0014762Y-016944D01*
G01X0014762Y-016944D02*
G01X0014781Y-016925D01*
G01X0014781Y-016925D02*
G01X0014818Y-016906D01*
G01X0014818Y-016906D02*
G01X0014912Y-016906D01*
G01X0014912Y-016906D02*
G01X0014968Y-016925D01*
G01X0015343Y-017300D02*
G01X0015118Y-017300D01*
G01X0015231Y-017300D02*
G01X0015231Y-016906D01*
G01X0015231Y-016906D02*
G01X0015193Y-016963D01*
G01X0015193Y-016963D02*
G01X0015156Y-017000D01*
G01X0015156Y-017000D02*
G01X0015118Y-017019D01*
G01X0079697Y-056448D02*
G01X0079738Y-056405D01*
G01X0079738Y-056405D02*
G01X0079778Y-056320D01*
G01X0079778Y-056320D02*
G01X0079777Y-056278D01*
G01X0079777Y-056278D02*
G01X0079768Y-056254D01*
G01X0079768Y-056254D02*
G01X0079742Y-056221D01*
G01X0079742Y-056221D02*
G01X0079708Y-056205D01*
G01X0079708Y-056205D02*
G01X0079666Y-056206D01*
G01X0079666Y-056206D02*
G01X0079641Y-056215D01*
G01X0079641Y-056215D02*
G01X0079608Y-056241D01*
G01X0079608Y-056241D02*
G01X0079559Y-056301D01*
G01X0079559Y-056301D02*
G01X0079526Y-056327D01*
G01X0079526Y-056327D02*
G01X0079501Y-056336D01*
G01X0079501Y-056336D02*
G01X0079460Y-056337D01*
G01X0079460Y-056337D02*
G01X0079426Y-056322D01*
G01X0079426Y-056322D02*
G01X0079400Y-056289D01*
G01X0079400Y-056289D02*
G01X0079390Y-056264D01*
G01X0079390Y-056264D02*
G01X0079389Y-056222D01*
G01X0079389Y-056222D02*
G01X0079429Y-056137D01*
G01X0079429Y-056137D02*
G01X0079470Y-056094D01*
G01X0079714Y-055836D02*
G01X0079952Y-055947D01*
G01X0079539Y-055857D02*
G01X0079754Y-056061D01*
G01X0079754Y-056061D02*
G01X0079857Y-055840D01*
G01X0079762Y-055423D02*
G01X0079682Y-055593D01*
G01X0079682Y-055593D02*
G01X0079844Y-055689D01*
G01X0079844Y-055689D02*
G01X0079835Y-055665D01*
G01X0079835Y-055665D02*
G01X0079834Y-055623D01*
G01X0079834Y-055623D02*
G01X0079874Y-055538D01*
G01X0079874Y-055538D02*
G01X0079907Y-055512D01*
G01X0079907Y-055512D02*
G01X0079932Y-055503D01*
G01X0079932Y-055503D02*
G01X0079973Y-055501D01*
G01X0079973Y-055501D02*
G01X0080058Y-055541D01*
G01X0080058Y-055541D02*
G01X0080085Y-055574D01*
G01X0080085Y-055574D02*
G01X0080094Y-055599D01*
G01X0080094Y-055599D02*
G01X0080095Y-055641D01*
G01X0080095Y-055641D02*
G01X0080055Y-055726D01*
G01X0080055Y-055726D02*
G01X0080022Y-055752D01*
G01X0080022Y-055752D02*
G01X0079997Y-055761D01*
G01X0085436Y-040961D02*
G01X0085492Y-040979D01*
G01X0085492Y-040979D02*
G01X0085586Y-040979D01*
G01X0085586Y-040979D02*
G01X0085623Y-040961D01*
G01X0085623Y-040961D02*
G01X0085642Y-040942D01*
G01X0085642Y-040942D02*
G01X0085661Y-040904D01*
G01X0085661Y-040904D02*
G01X0085661Y-040867D01*
G01X0085661Y-040867D02*
G01X0085642Y-040829D01*
G01X0085642Y-040829D02*
G01X0085623Y-040811D01*
G01X0085623Y-040811D02*
G01X0085586Y-040792D01*
G01X0085586Y-040792D02*
G01X0085511Y-040773D01*
G01X0085511Y-040773D02*
G01X0085473Y-040754D01*
G01X0085473Y-040754D02*
G01X0085454Y-040736D01*
G01X0085454Y-040736D02*
G01X0085436Y-040698D01*
G01X0085436Y-040698D02*
G01X0085436Y-040661D01*
G01X0085436Y-040661D02*
G01X0085454Y-040623D01*
G01X0085454Y-040623D02*
G01X0085473Y-040604D01*
G01X0085473Y-040604D02*
G01X0085511Y-040586D01*
G01X0085511Y-040586D02*
G01X0085604Y-040586D01*
G01X0085604Y-040586D02*
G01X0085661Y-040604D01*
G01X0085998Y-040717D02*
G01X0085998Y-040979D01*
G01X0085904Y-040567D02*
G01X0085811Y-040848D01*
G01X0085811Y-040848D02*
G01X0086054Y-040848D01*
G01X0086373Y-040717D02*
G01X0086373Y-040979D01*
G01X0086279Y-040567D02*
G01X0086185Y-040848D01*
G01X0086185Y-040848D02*
G01X0086429Y-040848D01*
G01X0085438Y-033466D02*
G01X0085494Y-033485D01*
G01X0085494Y-033485D02*
G01X0085588Y-033485D01*
G01X0085588Y-033485D02*
G01X0085625Y-033466D01*
G01X0085625Y-033466D02*
G01X0085644Y-033448D01*
G01X0085644Y-033448D02*
G01X0085663Y-033410D01*
G01X0085663Y-033410D02*
G01X0085663Y-033373D01*
G01X0085663Y-033373D02*
G01X0085644Y-033335D01*
G01X0085644Y-033335D02*
G01X0085625Y-033316D01*
G01X0085625Y-033316D02*
G01X0085588Y-033298D01*
G01X0085588Y-033298D02*
G01X0085513Y-033279D01*
G01X0085513Y-033279D02*
G01X0085475Y-033260D01*
G01X0085475Y-033260D02*
G01X0085457Y-033241D01*
G01X0085457Y-033241D02*
G01X0085438Y-033204D01*
G01X0085438Y-033204D02*
G01X0085438Y-033166D01*
G01X0085438Y-033166D02*
G01X0085457Y-033129D01*
G01X0085457Y-033129D02*
G01X0085475Y-033110D01*
G01X0085475Y-033110D02*
G01X0085513Y-033091D01*
G01X0085513Y-033091D02*
G01X0085606Y-033091D01*
G01X0085606Y-033091D02*
G01X0085663Y-033110D01*
G01X0086000Y-033223D02*
G01X0086000Y-033485D01*
G01X0085906Y-033073D02*
G01X0085813Y-033354D01*
G01X0085813Y-033354D02*
G01X0086056Y-033354D01*
G01X0086169Y-033091D02*
G01X0086413Y-033091D01*
G01X0086413Y-033091D02*
G01X0086281Y-033241D01*
G01X0086281Y-033241D02*
G01X0086338Y-033241D01*
G01X0086338Y-033241D02*
G01X0086375Y-033260D01*
G01X0086375Y-033260D02*
G01X0086394Y-033279D01*
G01X0086394Y-033279D02*
G01X0086413Y-033316D01*
G01X0086413Y-033316D02*
G01X0086413Y-033410D01*
G01X0086413Y-033410D02*
G01X0086394Y-033448D01*
G01X0086394Y-033448D02*
G01X0086375Y-033466D01*
G01X0086375Y-033466D02*
G01X0086338Y-033485D01*
G01X0086338Y-033485D02*
G01X0086225Y-033485D01*
G01X0086225Y-033485D02*
G01X0086188Y-033466D01*
G01X0086188Y-033466D02*
G01X0086169Y-033448D01*
G01X0085436Y-025961D02*
G01X0085492Y-025979D01*
G01X0085492Y-025979D02*
G01X0085586Y-025979D01*
G01X0085586Y-025979D02*
G01X0085623Y-025961D01*
G01X0085623Y-025961D02*
G01X0085642Y-025942D01*
G01X0085642Y-025942D02*
G01X0085661Y-025904D01*
G01X0085661Y-025904D02*
G01X0085661Y-025867D01*
G01X0085661Y-025867D02*
G01X0085642Y-025829D01*
G01X0085642Y-025829D02*
G01X0085623Y-025811D01*
G01X0085623Y-025811D02*
G01X0085586Y-025792D01*
G01X0085586Y-025792D02*
G01X0085511Y-025773D01*
G01X0085511Y-025773D02*
G01X0085473Y-025754D01*
G01X0085473Y-025754D02*
G01X0085454Y-025736D01*
G01X0085454Y-025736D02*
G01X0085436Y-025698D01*
G01X0085436Y-025698D02*
G01X0085436Y-025661D01*
G01X0085436Y-025661D02*
G01X0085454Y-025623D01*
G01X0085454Y-025623D02*
G01X0085473Y-025604D01*
G01X0085473Y-025604D02*
G01X0085511Y-025586D01*
G01X0085511Y-025586D02*
G01X0085604Y-025586D01*
G01X0085604Y-025586D02*
G01X0085661Y-025604D01*
G01X0085998Y-025717D02*
G01X0085998Y-025979D01*
G01X0085904Y-025567D02*
G01X0085811Y-025848D01*
G01X0085811Y-025848D02*
G01X0086054Y-025848D01*
G01X0086185Y-025623D02*
G01X0086204Y-025604D01*
G01X0086204Y-025604D02*
G01X0086242Y-025586D01*
G01X0086242Y-025586D02*
G01X0086335Y-025586D01*
G01X0086335Y-025586D02*
G01X0086373Y-025604D01*
G01X0086373Y-025604D02*
G01X0086392Y-025623D01*
G01X0086392Y-025623D02*
G01X0086410Y-025661D01*
G01X0086410Y-025661D02*
G01X0086410Y-025698D01*
G01X0086410Y-025698D02*
G01X0086392Y-025754D01*
G01X0086392Y-025754D02*
G01X0086167Y-025979D01*
G01X0086167Y-025979D02*
G01X0086410Y-025979D01*
G01X0085438Y-018466D02*
G01X0085494Y-018485D01*
G01X0085494Y-018485D02*
G01X0085588Y-018485D01*
G01X0085588Y-018485D02*
G01X0085625Y-018466D01*
G01X0085625Y-018466D02*
G01X0085644Y-018448D01*
G01X0085644Y-018448D02*
G01X0085663Y-018410D01*
G01X0085663Y-018410D02*
G01X0085663Y-018373D01*
G01X0085663Y-018373D02*
G01X0085644Y-018335D01*
G01X0085644Y-018335D02*
G01X0085625Y-018316D01*
G01X0085625Y-018316D02*
G01X0085588Y-018298D01*
G01X0085588Y-018298D02*
G01X0085513Y-018279D01*
G01X0085513Y-018279D02*
G01X0085475Y-018260D01*
G01X0085475Y-018260D02*
G01X0085457Y-018241D01*
G01X0085457Y-018241D02*
G01X0085438Y-018204D01*
G01X0085438Y-018204D02*
G01X0085438Y-018166D01*
G01X0085438Y-018166D02*
G01X0085457Y-018129D01*
G01X0085457Y-018129D02*
G01X0085475Y-018110D01*
G01X0085475Y-018110D02*
G01X0085513Y-018091D01*
G01X0085513Y-018091D02*
G01X0085606Y-018091D01*
G01X0085606Y-018091D02*
G01X0085663Y-018110D01*
G01X0086000Y-018223D02*
G01X0086000Y-018485D01*
G01X0085906Y-018073D02*
G01X0085813Y-018354D01*
G01X0085813Y-018354D02*
G01X0086056Y-018354D01*
G01X0086413Y-018485D02*
G01X0086188Y-018485D01*
G01X0086300Y-018485D02*
G01X0086300Y-018091D01*
G01X0086300Y-018091D02*
G01X0086263Y-018148D01*
G01X0086263Y-018148D02*
G01X0086225Y-018185D01*
G01X0086225Y-018185D02*
G01X0086188Y-018204D01*
G01X0072902Y-053279D02*
G01X0072943Y-053236D01*
G01X0072943Y-053236D02*
G01X0072983Y-053151D01*
G01X0072983Y-053151D02*
G01X0072981Y-053109D01*
G01X0072981Y-053109D02*
G01X0072972Y-053084D01*
G01X0072972Y-053084D02*
G01X0072946Y-053051D01*
G01X0072946Y-053051D02*
G01X0072912Y-053036D01*
G01X0072912Y-053036D02*
G01X0072870Y-053037D01*
G01X0072870Y-053037D02*
G01X0072845Y-053046D01*
G01X0072845Y-053046D02*
G01X0072813Y-053072D01*
G01X0072813Y-053072D02*
G01X0072764Y-053132D01*
G01X0072764Y-053132D02*
G01X0072731Y-053158D01*
G01X0072731Y-053158D02*
G01X0072706Y-053167D01*
G01X0072706Y-053167D02*
G01X0072664Y-053168D01*
G01X0072664Y-053168D02*
G01X0072630Y-053152D01*
G01X0072630Y-053152D02*
G01X0072604Y-053119D01*
G01X0072604Y-053119D02*
G01X0072595Y-053095D01*
G01X0072595Y-053095D02*
G01X0072594Y-053053D01*
G01X0072594Y-053053D02*
G01X0072634Y-052968D01*
G01X0072634Y-052968D02*
G01X0072674Y-052925D01*
G01X0072919Y-052666D02*
G01X0073157Y-052777D01*
G01X0072743Y-052688D02*
G01X0072959Y-052892D01*
G01X0072959Y-052892D02*
G01X0073062Y-052671D01*
G01X0072919Y-052356D02*
G01X0072935Y-052322D01*
G01X0072935Y-052322D02*
G01X0072968Y-052296D01*
G01X0072968Y-052296D02*
G01X0072992Y-052287D01*
G01X0072992Y-052287D02*
G01X0073034Y-052286D01*
G01X0073034Y-052286D02*
G01X0073110Y-052300D01*
G01X0073110Y-052300D02*
G01X0073195Y-052340D01*
G01X0073195Y-052340D02*
G01X0073255Y-052389D01*
G01X0073255Y-052389D02*
G01X0073281Y-052422D01*
G01X0073281Y-052422D02*
G01X0073290Y-052447D01*
G01X0073290Y-052447D02*
G01X0073292Y-052488D01*
G01X0073292Y-052488D02*
G01X0073276Y-052522D01*
G01X0073276Y-052522D02*
G01X0073243Y-052548D01*
G01X0073243Y-052548D02*
G01X0073218Y-052558D01*
G01X0073218Y-052558D02*
G01X0073176Y-052559D01*
G01X0073176Y-052559D02*
G01X0073100Y-052544D01*
G01X0073100Y-052544D02*
G01X0073015Y-052504D01*
G01X0073015Y-052504D02*
G01X0072955Y-052456D01*
G01X0072955Y-052456D02*
G01X0072929Y-052423D01*
G01X0072929Y-052423D02*
G01X0072920Y-052398D01*
G01X0072920Y-052398D02*
G01X0072919Y-052356D01*
G01X0077939Y-040964D02*
G01X0077995Y-040982D01*
G01X0077995Y-040982D02*
G01X0078089Y-040982D01*
G01X0078089Y-040982D02*
G01X0078126Y-040964D01*
G01X0078126Y-040964D02*
G01X0078145Y-040945D01*
G01X0078145Y-040945D02*
G01X0078164Y-040907D01*
G01X0078164Y-040907D02*
G01X0078164Y-040870D01*
G01X0078164Y-040870D02*
G01X0078145Y-040832D01*
G01X0078145Y-040832D02*
G01X0078126Y-040814D01*
G01X0078126Y-040814D02*
G01X0078089Y-040795D01*
G01X0078089Y-040795D02*
G01X0078014Y-040776D01*
G01X0078014Y-040776D02*
G01X0077976Y-040757D01*
G01X0077976Y-040757D02*
G01X0077957Y-040739D01*
G01X0077957Y-040739D02*
G01X0077939Y-040701D01*
G01X0077939Y-040701D02*
G01X0077939Y-040664D01*
G01X0077939Y-040664D02*
G01X0077957Y-040626D01*
G01X0077957Y-040626D02*
G01X0077976Y-040607D01*
G01X0077976Y-040607D02*
G01X0078014Y-040589D01*
G01X0078014Y-040589D02*
G01X0078107Y-040589D01*
G01X0078107Y-040589D02*
G01X0078164Y-040607D01*
G01X0078295Y-040589D02*
G01X0078538Y-040589D01*
G01X0078538Y-040589D02*
G01X0078407Y-040739D01*
G01X0078407Y-040739D02*
G01X0078463Y-040739D01*
G01X0078463Y-040739D02*
G01X0078501Y-040757D01*
G01X0078501Y-040757D02*
G01X0078520Y-040776D01*
G01X0078520Y-040776D02*
G01X0078538Y-040814D01*
G01X0078538Y-040814D02*
G01X0078538Y-040907D01*
G01X0078538Y-040907D02*
G01X0078520Y-040945D01*
G01X0078520Y-040945D02*
G01X0078501Y-040964D01*
G01X0078501Y-040964D02*
G01X0078463Y-040982D01*
G01X0078463Y-040982D02*
G01X0078351Y-040982D01*
G01X0078351Y-040982D02*
G01X0078314Y-040964D01*
G01X0078314Y-040964D02*
G01X0078295Y-040945D01*
G01X0078726Y-040982D02*
G01X0078801Y-040982D01*
G01X0078801Y-040982D02*
G01X0078838Y-040964D01*
G01X0078838Y-040964D02*
G01X0078857Y-040945D01*
G01X0078857Y-040945D02*
G01X0078895Y-040889D01*
G01X0078895Y-040889D02*
G01X0078913Y-040814D01*
G01X0078913Y-040814D02*
G01X0078913Y-040664D01*
G01X0078913Y-040664D02*
G01X0078895Y-040626D01*
G01X0078895Y-040626D02*
G01X0078876Y-040607D01*
G01X0078876Y-040607D02*
G01X0078838Y-040589D01*
G01X0078838Y-040589D02*
G01X0078763Y-040589D01*
G01X0078763Y-040589D02*
G01X0078726Y-040607D01*
G01X0078726Y-040607D02*
G01X0078707Y-040626D01*
G01X0078707Y-040626D02*
G01X0078688Y-040664D01*
G01X0078688Y-040664D02*
G01X0078688Y-040757D01*
G01X0078688Y-040757D02*
G01X0078707Y-040795D01*
G01X0078707Y-040795D02*
G01X0078726Y-040814D01*
G01X0078726Y-040814D02*
G01X0078763Y-040832D01*
G01X0078763Y-040832D02*
G01X0078838Y-040832D01*
G01X0078838Y-040832D02*
G01X0078876Y-040814D01*
G01X0078876Y-040814D02*
G01X0078895Y-040795D01*
G01X0078895Y-040795D02*
G01X0078913Y-040757D01*
G01X0077938Y-033466D02*
G01X0077994Y-033485D01*
G01X0077994Y-033485D02*
G01X0078088Y-033485D01*
G01X0078088Y-033485D02*
G01X0078125Y-033466D01*
G01X0078125Y-033466D02*
G01X0078144Y-033448D01*
G01X0078144Y-033448D02*
G01X0078163Y-033410D01*
G01X0078163Y-033410D02*
G01X0078163Y-033373D01*
G01X0078163Y-033373D02*
G01X0078144Y-033335D01*
G01X0078144Y-033335D02*
G01X0078125Y-033316D01*
G01X0078125Y-033316D02*
G01X0078088Y-033298D01*
G01X0078088Y-033298D02*
G01X0078013Y-033279D01*
G01X0078013Y-033279D02*
G01X0077975Y-033260D01*
G01X0077975Y-033260D02*
G01X0077957Y-033241D01*
G01X0077957Y-033241D02*
G01X0077938Y-033204D01*
G01X0077938Y-033204D02*
G01X0077938Y-033166D01*
G01X0077938Y-033166D02*
G01X0077957Y-033129D01*
G01X0077957Y-033129D02*
G01X0077975Y-033110D01*
G01X0077975Y-033110D02*
G01X0078013Y-033091D01*
G01X0078013Y-033091D02*
G01X0078106Y-033091D01*
G01X0078106Y-033091D02*
G01X0078163Y-033110D01*
G01X0078294Y-033091D02*
G01X0078538Y-033091D01*
G01X0078538Y-033091D02*
G01X0078406Y-033241D01*
G01X0078406Y-033241D02*
G01X0078463Y-033241D01*
G01X0078463Y-033241D02*
G01X0078500Y-033260D01*
G01X0078500Y-033260D02*
G01X0078519Y-033279D01*
G01X0078519Y-033279D02*
G01X0078538Y-033316D01*
G01X0078538Y-033316D02*
G01X0078538Y-033410D01*
G01X0078538Y-033410D02*
G01X0078519Y-033448D01*
G01X0078519Y-033448D02*
G01X0078500Y-033466D01*
G01X0078500Y-033466D02*
G01X0078463Y-033485D01*
G01X0078463Y-033485D02*
G01X0078350Y-033485D01*
G01X0078350Y-033485D02*
G01X0078313Y-033466D01*
G01X0078313Y-033466D02*
G01X0078294Y-033448D01*
G01X0078763Y-033260D02*
G01X0078725Y-033241D01*
G01X0078725Y-033241D02*
G01X0078706Y-033223D01*
G01X0078706Y-033223D02*
G01X0078688Y-033185D01*
G01X0078688Y-033185D02*
G01X0078688Y-033166D01*
G01X0078688Y-033166D02*
G01X0078706Y-033129D01*
G01X0078706Y-033129D02*
G01X0078725Y-033110D01*
G01X0078725Y-033110D02*
G01X0078763Y-033091D01*
G01X0078763Y-033091D02*
G01X0078838Y-033091D01*
G01X0078838Y-033091D02*
G01X0078875Y-033110D01*
G01X0078875Y-033110D02*
G01X0078894Y-033129D01*
G01X0078894Y-033129D02*
G01X0078913Y-033166D01*
G01X0078913Y-033166D02*
G01X0078913Y-033185D01*
G01X0078913Y-033185D02*
G01X0078894Y-033223D01*
G01X0078894Y-033223D02*
G01X0078875Y-033241D01*
G01X0078875Y-033241D02*
G01X0078838Y-033260D01*
G01X0078838Y-033260D02*
G01X0078763Y-033260D01*
G01X0078763Y-033260D02*
G01X0078725Y-033279D01*
G01X0078725Y-033279D02*
G01X0078706Y-033298D01*
G01X0078706Y-033298D02*
G01X0078688Y-033335D01*
G01X0078688Y-033335D02*
G01X0078688Y-033410D01*
G01X0078688Y-033410D02*
G01X0078706Y-033448D01*
G01X0078706Y-033448D02*
G01X0078725Y-033466D01*
G01X0078725Y-033466D02*
G01X0078763Y-033485D01*
G01X0078763Y-033485D02*
G01X0078838Y-033485D01*
G01X0078838Y-033485D02*
G01X0078875Y-033466D01*
G01X0078875Y-033466D02*
G01X0078894Y-033448D01*
G01X0078894Y-033448D02*
G01X0078913Y-033410D01*
G01X0078913Y-033410D02*
G01X0078913Y-033335D01*
G01X0078913Y-033335D02*
G01X0078894Y-033298D01*
G01X0078894Y-033298D02*
G01X0078875Y-033279D01*
G01X0078875Y-033279D02*
G01X0078838Y-033260D01*
G01X0077938Y-025966D02*
G01X0077994Y-025985D01*
G01X0077994Y-025985D02*
G01X0078088Y-025985D01*
G01X0078088Y-025985D02*
G01X0078125Y-025966D01*
G01X0078125Y-025966D02*
G01X0078144Y-025948D01*
G01X0078144Y-025948D02*
G01X0078163Y-025910D01*
G01X0078163Y-025910D02*
G01X0078163Y-025873D01*
G01X0078163Y-025873D02*
G01X0078144Y-025835D01*
G01X0078144Y-025835D02*
G01X0078125Y-025816D01*
G01X0078125Y-025816D02*
G01X0078088Y-025798D01*
G01X0078088Y-025798D02*
G01X0078013Y-025779D01*
G01X0078013Y-025779D02*
G01X0077975Y-025760D01*
G01X0077975Y-025760D02*
G01X0077957Y-025741D01*
G01X0077957Y-025741D02*
G01X0077938Y-025704D01*
G01X0077938Y-025704D02*
G01X0077938Y-025666D01*
G01X0077938Y-025666D02*
G01X0077957Y-025629D01*
G01X0077957Y-025629D02*
G01X0077975Y-025610D01*
G01X0077975Y-025610D02*
G01X0078013Y-025591D01*
G01X0078013Y-025591D02*
G01X0078106Y-025591D01*
G01X0078106Y-025591D02*
G01X0078163Y-025610D01*
G01X0078294Y-025591D02*
G01X0078538Y-025591D01*
G01X0078538Y-025591D02*
G01X0078406Y-025741D01*
G01X0078406Y-025741D02*
G01X0078463Y-025741D01*
G01X0078463Y-025741D02*
G01X0078500Y-025760D01*
G01X0078500Y-025760D02*
G01X0078519Y-025779D01*
G01X0078519Y-025779D02*
G01X0078538Y-025816D01*
G01X0078538Y-025816D02*
G01X0078538Y-025910D01*
G01X0078538Y-025910D02*
G01X0078519Y-025948D01*
G01X0078519Y-025948D02*
G01X0078500Y-025966D01*
G01X0078500Y-025966D02*
G01X0078463Y-025985D01*
G01X0078463Y-025985D02*
G01X0078350Y-025985D01*
G01X0078350Y-025985D02*
G01X0078313Y-025966D01*
G01X0078313Y-025966D02*
G01X0078294Y-025948D01*
G01X0078669Y-025591D02*
G01X0078931Y-025591D01*
G01X0078931Y-025591D02*
G01X0078763Y-025985D01*
G01X0077918Y-018466D02*
G01X0077974Y-018485D01*
G01X0077974Y-018485D02*
G01X0078068Y-018485D01*
G01X0078068Y-018485D02*
G01X0078106Y-018466D01*
G01X0078106Y-018466D02*
G01X0078124Y-018448D01*
G01X0078124Y-018448D02*
G01X0078143Y-018410D01*
G01X0078143Y-018410D02*
G01X0078143Y-018373D01*
G01X0078143Y-018373D02*
G01X0078124Y-018335D01*
G01X0078124Y-018335D02*
G01X0078106Y-018316D01*
G01X0078106Y-018316D02*
G01X0078068Y-018298D01*
G01X0078068Y-018298D02*
G01X0077993Y-018279D01*
G01X0077993Y-018279D02*
G01X0077956Y-018260D01*
G01X0077956Y-018260D02*
G01X0077937Y-018241D01*
G01X0077937Y-018241D02*
G01X0077918Y-018204D01*
G01X0077918Y-018204D02*
G01X0077918Y-018166D01*
G01X0077918Y-018166D02*
G01X0077937Y-018129D01*
G01X0077937Y-018129D02*
G01X0077956Y-018110D01*
G01X0077956Y-018110D02*
G01X0077993Y-018091D01*
G01X0077993Y-018091D02*
G01X0078087Y-018091D01*
G01X0078087Y-018091D02*
G01X0078143Y-018110D01*
G01X0078274Y-018091D02*
G01X0078518Y-018091D01*
G01X0078518Y-018091D02*
G01X0078387Y-018241D01*
G01X0078387Y-018241D02*
G01X0078443Y-018241D01*
G01X0078443Y-018241D02*
G01X0078481Y-018260D01*
G01X0078481Y-018260D02*
G01X0078499Y-018279D01*
G01X0078499Y-018279D02*
G01X0078518Y-018316D01*
G01X0078518Y-018316D02*
G01X0078518Y-018410D01*
G01X0078518Y-018410D02*
G01X0078499Y-018448D01*
G01X0078499Y-018448D02*
G01X0078481Y-018466D01*
G01X0078481Y-018466D02*
G01X0078443Y-018485D01*
G01X0078443Y-018485D02*
G01X0078331Y-018485D01*
G01X0078331Y-018485D02*
G01X0078293Y-018466D01*
G01X0078293Y-018466D02*
G01X0078274Y-018448D01*
G01X0078855Y-018091D02*
G01X0078780Y-018091D01*
G01X0078780Y-018091D02*
G01X0078743Y-018110D01*
G01X0078743Y-018110D02*
G01X0078724Y-018129D01*
G01X0078724Y-018129D02*
G01X0078687Y-018185D01*
G01X0078687Y-018185D02*
G01X0078668Y-018260D01*
G01X0078668Y-018260D02*
G01X0078668Y-018410D01*
G01X0078668Y-018410D02*
G01X0078687Y-018448D01*
G01X0078687Y-018448D02*
G01X0078705Y-018466D01*
G01X0078705Y-018466D02*
G01X0078743Y-018485D01*
G01X0078743Y-018485D02*
G01X0078818Y-018485D01*
G01X0078818Y-018485D02*
G01X0078855Y-018466D01*
G01X0078855Y-018466D02*
G01X0078874Y-018448D01*
G01X0078874Y-018448D02*
G01X0078893Y-018410D01*
G01X0078893Y-018410D02*
G01X0078893Y-018316D01*
G01X0078893Y-018316D02*
G01X0078874Y-018279D01*
G01X0078874Y-018279D02*
G01X0078855Y-018260D01*
G01X0078855Y-018260D02*
G01X0078818Y-018241D01*
G01X0078818Y-018241D02*
G01X0078743Y-018241D01*
G01X0078743Y-018241D02*
G01X0078705Y-018260D01*
G01X0078705Y-018260D02*
G01X0078687Y-018279D01*
G01X0078687Y-018279D02*
G01X0078668Y-018316D01*
G01X0067056Y-038994D02*
G01X0067112Y-039013D01*
G01X0067112Y-039013D02*
G01X0067206Y-039013D01*
G01X0067206Y-039013D02*
G01X0067243Y-038994D01*
G01X0067243Y-038994D02*
G01X0067262Y-038975D01*
G01X0067262Y-038975D02*
G01X0067281Y-038938D01*
G01X0067281Y-038938D02*
G01X0067281Y-038900D01*
G01X0067281Y-038900D02*
G01X0067262Y-038863D01*
G01X0067262Y-038863D02*
G01X0067243Y-038844D01*
G01X0067243Y-038844D02*
G01X0067206Y-038825D01*
G01X0067206Y-038825D02*
G01X0067131Y-038807D01*
G01X0067131Y-038807D02*
G01X0067093Y-038788D01*
G01X0067093Y-038788D02*
G01X0067075Y-038769D01*
G01X0067075Y-038769D02*
G01X0067056Y-038732D01*
G01X0067056Y-038732D02*
G01X0067056Y-038694D01*
G01X0067056Y-038694D02*
G01X0067075Y-038657D01*
G01X0067075Y-038657D02*
G01X0067093Y-038638D01*
G01X0067093Y-038638D02*
G01X0067131Y-038619D01*
G01X0067131Y-038619D02*
G01X0067225Y-038619D01*
G01X0067225Y-038619D02*
G01X0067281Y-038638D01*
G01X0067412Y-038619D02*
G01X0067656Y-038619D01*
G01X0067656Y-038619D02*
G01X0067525Y-038769D01*
G01X0067525Y-038769D02*
G01X0067581Y-038769D01*
G01X0067581Y-038769D02*
G01X0067618Y-038788D01*
G01X0067618Y-038788D02*
G01X0067637Y-038807D01*
G01X0067637Y-038807D02*
G01X0067656Y-038844D01*
G01X0067656Y-038844D02*
G01X0067656Y-038938D01*
G01X0067656Y-038938D02*
G01X0067637Y-038975D01*
G01X0067637Y-038975D02*
G01X0067618Y-038994D01*
G01X0067618Y-038994D02*
G01X0067581Y-039013D01*
G01X0067581Y-039013D02*
G01X0067468Y-039013D01*
G01X0067468Y-039013D02*
G01X0067431Y-038994D01*
G01X0067431Y-038994D02*
G01X0067412Y-038975D01*
G01X0067993Y-038750D02*
G01X0067993Y-039013D01*
G01X0067900Y-038600D02*
G01X0067806Y-038882D01*
G01X0067806Y-038882D02*
G01X0068049Y-038882D01*
G01X0070067Y-025708D02*
G01X0070085Y-025652D01*
G01X0070085Y-025652D02*
G01X0070085Y-025558D01*
G01X0070085Y-025558D02*
G01X0070067Y-025521D01*
G01X0070067Y-025521D02*
G01X0070048Y-025502D01*
G01X0070048Y-025502D02*
G01X0070010Y-025483D01*
G01X0070010Y-025483D02*
G01X0069973Y-025483D01*
G01X0069973Y-025483D02*
G01X0069935Y-025502D01*
G01X0069935Y-025502D02*
G01X0069917Y-025521D01*
G01X0069917Y-025521D02*
G01X0069898Y-025558D01*
G01X0069898Y-025558D02*
G01X0069879Y-025633D01*
G01X0069879Y-025633D02*
G01X0069860Y-025671D01*
G01X0069860Y-025671D02*
G01X0069842Y-025690D01*
G01X0069842Y-025690D02*
G01X0069804Y-025708D01*
G01X0069804Y-025708D02*
G01X0069767Y-025708D01*
G01X0069767Y-025708D02*
G01X0069729Y-025690D01*
G01X0069729Y-025690D02*
G01X0069710Y-025671D01*
G01X0069710Y-025671D02*
G01X0069692Y-025633D01*
G01X0069692Y-025633D02*
G01X0069692Y-025540D01*
G01X0069692Y-025540D02*
G01X0069710Y-025483D01*
G01X0069692Y-025352D02*
G01X0069692Y-025109D01*
G01X0069692Y-025109D02*
G01X0069842Y-025240D01*
G01X0069842Y-025240D02*
G01X0069842Y-025184D01*
G01X0069842Y-025184D02*
G01X0069860Y-025146D01*
G01X0069860Y-025146D02*
G01X0069879Y-025127D01*
G01X0069879Y-025127D02*
G01X0069917Y-025109D01*
G01X0069917Y-025109D02*
G01X0070010Y-025109D01*
G01X0070010Y-025109D02*
G01X0070048Y-025127D01*
G01X0070048Y-025127D02*
G01X0070067Y-025146D01*
G01X0070067Y-025146D02*
G01X0070085Y-025184D01*
G01X0070085Y-025184D02*
G01X0070085Y-025296D01*
G01X0070085Y-025296D02*
G01X0070067Y-025333D01*
G01X0070067Y-025333D02*
G01X0070048Y-025352D01*
G01X0069692Y-024977D02*
G01X0069692Y-024734D01*
G01X0069692Y-024734D02*
G01X0069842Y-024865D01*
G01X0069842Y-024865D02*
G01X0069842Y-024809D01*
G01X0069842Y-024809D02*
G01X0069860Y-024771D01*
G01X0069860Y-024771D02*
G01X0069879Y-024752D01*
G01X0069879Y-024752D02*
G01X0069917Y-024734D01*
G01X0069917Y-024734D02*
G01X0070010Y-024734D01*
G01X0070010Y-024734D02*
G01X0070048Y-024752D01*
G01X0070048Y-024752D02*
G01X0070067Y-024771D01*
G01X0070067Y-024771D02*
G01X0070085Y-024809D01*
G01X0070085Y-024809D02*
G01X0070085Y-024921D01*
G01X0070085Y-024921D02*
G01X0070067Y-024959D01*
G01X0070067Y-024959D02*
G01X0070048Y-024977D01*
G01X0067060Y-016494D02*
G01X0067116Y-016513D01*
G01X0067116Y-016513D02*
G01X0067210Y-016513D01*
G01X0067210Y-016513D02*
G01X0067247Y-016494D01*
G01X0067247Y-016494D02*
G01X0067266Y-016475D01*
G01X0067266Y-016475D02*
G01X0067285Y-016438D01*
G01X0067285Y-016438D02*
G01X0067285Y-016400D01*
G01X0067285Y-016400D02*
G01X0067266Y-016363D01*
G01X0067266Y-016363D02*
G01X0067247Y-016344D01*
G01X0067247Y-016344D02*
G01X0067210Y-016325D01*
G01X0067210Y-016325D02*
G01X0067135Y-016307D01*
G01X0067135Y-016307D02*
G01X0067097Y-016288D01*
G01X0067097Y-016288D02*
G01X0067079Y-016269D01*
G01X0067079Y-016269D02*
G01X0067060Y-016232D01*
G01X0067060Y-016232D02*
G01X0067060Y-016194D01*
G01X0067060Y-016194D02*
G01X0067079Y-016157D01*
G01X0067079Y-016157D02*
G01X0067097Y-016138D01*
G01X0067097Y-016138D02*
G01X0067135Y-016119D01*
G01X0067135Y-016119D02*
G01X0067229Y-016119D01*
G01X0067229Y-016119D02*
G01X0067285Y-016138D01*
G01X0067416Y-016119D02*
G01X0067660Y-016119D01*
G01X0067660Y-016119D02*
G01X0067528Y-016269D01*
G01X0067528Y-016269D02*
G01X0067585Y-016269D01*
G01X0067585Y-016269D02*
G01X0067622Y-016288D01*
G01X0067622Y-016288D02*
G01X0067641Y-016307D01*
G01X0067641Y-016307D02*
G01X0067660Y-016344D01*
G01X0067660Y-016344D02*
G01X0067660Y-016438D01*
G01X0067660Y-016438D02*
G01X0067641Y-016475D01*
G01X0067641Y-016475D02*
G01X0067622Y-016494D01*
G01X0067622Y-016494D02*
G01X0067585Y-016513D01*
G01X0067585Y-016513D02*
G01X0067472Y-016513D01*
G01X0067472Y-016513D02*
G01X0067435Y-016494D01*
G01X0067435Y-016494D02*
G01X0067416Y-016475D01*
G01X0067810Y-016157D02*
G01X0067828Y-016138D01*
G01X0067828Y-016138D02*
G01X0067866Y-016119D01*
G01X0067866Y-016119D02*
G01X0067960Y-016119D01*
G01X0067960Y-016119D02*
G01X0067997Y-016138D01*
G01X0067997Y-016138D02*
G01X0068016Y-016157D01*
G01X0068016Y-016157D02*
G01X0068035Y-016194D01*
G01X0068035Y-016194D02*
G01X0068035Y-016232D01*
G01X0068035Y-016232D02*
G01X0068016Y-016288D01*
G01X0068016Y-016288D02*
G01X0067791Y-016513D01*
G01X0067791Y-016513D02*
G01X0068035Y-016513D01*
G01X0059556Y-038994D02*
G01X0059612Y-039013D01*
G01X0059612Y-039013D02*
G01X0059706Y-039013D01*
G01X0059706Y-039013D02*
G01X0059743Y-038994D01*
G01X0059743Y-038994D02*
G01X0059762Y-038975D01*
G01X0059762Y-038975D02*
G01X0059781Y-038938D01*
G01X0059781Y-038938D02*
G01X0059781Y-038900D01*
G01X0059781Y-038900D02*
G01X0059762Y-038863D01*
G01X0059762Y-038863D02*
G01X0059743Y-038844D01*
G01X0059743Y-038844D02*
G01X0059706Y-038825D01*
G01X0059706Y-038825D02*
G01X0059631Y-038807D01*
G01X0059631Y-038807D02*
G01X0059593Y-038788D01*
G01X0059593Y-038788D02*
G01X0059575Y-038769D01*
G01X0059575Y-038769D02*
G01X0059556Y-038732D01*
G01X0059556Y-038732D02*
G01X0059556Y-038694D01*
G01X0059556Y-038694D02*
G01X0059575Y-038657D01*
G01X0059575Y-038657D02*
G01X0059593Y-038638D01*
G01X0059593Y-038638D02*
G01X0059631Y-038619D01*
G01X0059631Y-038619D02*
G01X0059725Y-038619D01*
G01X0059725Y-038619D02*
G01X0059781Y-038638D01*
G01X0059912Y-038619D02*
G01X0060156Y-038619D01*
G01X0060156Y-038619D02*
G01X0060025Y-038769D01*
G01X0060025Y-038769D02*
G01X0060081Y-038769D01*
G01X0060081Y-038769D02*
G01X0060118Y-038788D01*
G01X0060118Y-038788D02*
G01X0060137Y-038807D01*
G01X0060137Y-038807D02*
G01X0060156Y-038844D01*
G01X0060156Y-038844D02*
G01X0060156Y-038938D01*
G01X0060156Y-038938D02*
G01X0060137Y-038975D01*
G01X0060137Y-038975D02*
G01X0060118Y-038994D01*
G01X0060118Y-038994D02*
G01X0060081Y-039013D01*
G01X0060081Y-039013D02*
G01X0059968Y-039013D01*
G01X0059968Y-039013D02*
G01X0059931Y-038994D01*
G01X0059931Y-038994D02*
G01X0059912Y-038975D01*
G01X0060531Y-039013D02*
G01X0060306Y-039013D01*
G01X0060418Y-039013D02*
G01X0060418Y-038619D01*
G01X0060418Y-038619D02*
G01X0060381Y-038675D01*
G01X0060381Y-038675D02*
G01X0060343Y-038713D01*
G01X0060343Y-038713D02*
G01X0060306Y-038732D01*
G01X0059559Y-031494D02*
G01X0059615Y-031512D01*
G01X0059615Y-031512D02*
G01X0059709Y-031512D01*
G01X0059709Y-031512D02*
G01X0059746Y-031494D01*
G01X0059746Y-031494D02*
G01X0059765Y-031475D01*
G01X0059765Y-031475D02*
G01X0059784Y-031437D01*
G01X0059784Y-031437D02*
G01X0059784Y-031400D01*
G01X0059784Y-031400D02*
G01X0059765Y-031362D01*
G01X0059765Y-031362D02*
G01X0059746Y-031344D01*
G01X0059746Y-031344D02*
G01X0059709Y-031325D01*
G01X0059709Y-031325D02*
G01X0059634Y-031306D01*
G01X0059634Y-031306D02*
G01X0059596Y-031287D01*
G01X0059596Y-031287D02*
G01X0059577Y-031269D01*
G01X0059577Y-031269D02*
G01X0059559Y-031231D01*
G01X0059559Y-031231D02*
G01X0059559Y-031194D01*
G01X0059559Y-031194D02*
G01X0059577Y-031156D01*
G01X0059577Y-031156D02*
G01X0059596Y-031137D01*
G01X0059596Y-031137D02*
G01X0059634Y-031119D01*
G01X0059634Y-031119D02*
G01X0059727Y-031119D01*
G01X0059727Y-031119D02*
G01X0059784Y-031137D01*
G01X0059915Y-031119D02*
G01X0060158Y-031119D01*
G01X0060158Y-031119D02*
G01X0060027Y-031269D01*
G01X0060027Y-031269D02*
G01X0060083Y-031269D01*
G01X0060083Y-031269D02*
G01X0060121Y-031287D01*
G01X0060121Y-031287D02*
G01X0060140Y-031306D01*
G01X0060140Y-031306D02*
G01X0060158Y-031344D01*
G01X0060158Y-031344D02*
G01X0060158Y-031437D01*
G01X0060158Y-031437D02*
G01X0060140Y-031475D01*
G01X0060140Y-031475D02*
G01X0060121Y-031494D01*
G01X0060121Y-031494D02*
G01X0060083Y-031512D01*
G01X0060083Y-031512D02*
G01X0059971Y-031512D01*
G01X0059971Y-031512D02*
G01X0059934Y-031494D01*
G01X0059934Y-031494D02*
G01X0059915Y-031475D01*
G01X0060402Y-031119D02*
G01X0060440Y-031119D01*
G01X0060440Y-031119D02*
G01X0060477Y-031137D01*
G01X0060477Y-031137D02*
G01X0060496Y-031156D01*
G01X0060496Y-031156D02*
G01X0060515Y-031194D01*
G01X0060515Y-031194D02*
G01X0060533Y-031269D01*
G01X0060533Y-031269D02*
G01X0060533Y-031362D01*
G01X0060533Y-031362D02*
G01X0060515Y-031437D01*
G01X0060515Y-031437D02*
G01X0060496Y-031475D01*
G01X0060496Y-031475D02*
G01X0060477Y-031494D01*
G01X0060477Y-031494D02*
G01X0060440Y-031512D01*
G01X0060440Y-031512D02*
G01X0060402Y-031512D01*
G01X0060402Y-031512D02*
G01X0060365Y-031494D01*
G01X0060365Y-031494D02*
G01X0060346Y-031475D01*
G01X0060346Y-031475D02*
G01X0060327Y-031437D01*
G01X0060327Y-031437D02*
G01X0060308Y-031362D01*
G01X0060308Y-031362D02*
G01X0060308Y-031269D01*
G01X0060308Y-031269D02*
G01X0060327Y-031194D01*
G01X0060327Y-031194D02*
G01X0060346Y-031156D01*
G01X0060346Y-031156D02*
G01X0060365Y-031137D01*
G01X0060365Y-031137D02*
G01X0060402Y-031119D01*
G01X0059561Y-023993D02*
G01X0059617Y-024011D01*
G01X0059617Y-024011D02*
G01X0059711Y-024011D01*
G01X0059711Y-024011D02*
G01X0059748Y-023993D01*
G01X0059748Y-023993D02*
G01X0059767Y-023974D01*
G01X0059767Y-023974D02*
G01X0059786Y-023936D01*
G01X0059786Y-023936D02*
G01X0059786Y-023899D01*
G01X0059786Y-023899D02*
G01X0059767Y-023861D01*
G01X0059767Y-023861D02*
G01X0059748Y-023843D01*
G01X0059748Y-023843D02*
G01X0059711Y-023824D01*
G01X0059711Y-023824D02*
G01X0059636Y-023805D01*
G01X0059636Y-023805D02*
G01X0059598Y-023786D01*
G01X0059598Y-023786D02*
G01X0059579Y-023768D01*
G01X0059579Y-023768D02*
G01X0059561Y-023730D01*
G01X0059561Y-023730D02*
G01X0059561Y-023693D01*
G01X0059561Y-023693D02*
G01X0059579Y-023655D01*
G01X0059579Y-023655D02*
G01X0059598Y-023636D01*
G01X0059598Y-023636D02*
G01X0059636Y-023618D01*
G01X0059636Y-023618D02*
G01X0059729Y-023618D01*
G01X0059729Y-023618D02*
G01X0059786Y-023636D01*
G01X0059936Y-023655D02*
G01X0059954Y-023636D01*
G01X0059954Y-023636D02*
G01X0059992Y-023618D01*
G01X0059992Y-023618D02*
G01X0060085Y-023618D01*
G01X0060085Y-023618D02*
G01X0060123Y-023636D01*
G01X0060123Y-023636D02*
G01X0060142Y-023655D01*
G01X0060142Y-023655D02*
G01X0060160Y-023693D01*
G01X0060160Y-023693D02*
G01X0060160Y-023730D01*
G01X0060160Y-023730D02*
G01X0060142Y-023786D01*
G01X0060142Y-023786D02*
G01X0059917Y-024011D01*
G01X0059917Y-024011D02*
G01X0060160Y-024011D01*
G01X0060348Y-024011D02*
G01X0060423Y-024011D01*
G01X0060423Y-024011D02*
G01X0060460Y-023993D01*
G01X0060460Y-023993D02*
G01X0060479Y-023974D01*
G01X0060479Y-023974D02*
G01X0060517Y-023918D01*
G01X0060517Y-023918D02*
G01X0060535Y-023843D01*
G01X0060535Y-023843D02*
G01X0060535Y-023693D01*
G01X0060535Y-023693D02*
G01X0060517Y-023655D01*
G01X0060517Y-023655D02*
G01X0060498Y-023636D01*
G01X0060498Y-023636D02*
G01X0060460Y-023618D01*
G01X0060460Y-023618D02*
G01X0060385Y-023618D01*
G01X0060385Y-023618D02*
G01X0060348Y-023636D01*
G01X0060348Y-023636D02*
G01X0060329Y-023655D01*
G01X0060329Y-023655D02*
G01X0060310Y-023693D01*
G01X0060310Y-023693D02*
G01X0060310Y-023786D01*
G01X0060310Y-023786D02*
G01X0060329Y-023824D01*
G01X0060329Y-023824D02*
G01X0060348Y-023843D01*
G01X0060348Y-023843D02*
G01X0060385Y-023861D01*
G01X0060385Y-023861D02*
G01X0060460Y-023861D01*
G01X0060460Y-023861D02*
G01X0060498Y-023843D01*
G01X0060498Y-023843D02*
G01X0060517Y-023824D01*
G01X0060517Y-023824D02*
G01X0060535Y-023786D01*
G01X0059552Y-016498D02*
G01X0059608Y-016517D01*
G01X0059608Y-016517D02*
G01X0059702Y-016517D01*
G01X0059702Y-016517D02*
G01X0059739Y-016498D01*
G01X0059739Y-016498D02*
G01X0059758Y-016479D01*
G01X0059758Y-016479D02*
G01X0059777Y-016442D01*
G01X0059777Y-016442D02*
G01X0059777Y-016404D01*
G01X0059777Y-016404D02*
G01X0059758Y-016367D01*
G01X0059758Y-016367D02*
G01X0059739Y-016348D01*
G01X0059739Y-016348D02*
G01X0059702Y-016329D01*
G01X0059702Y-016329D02*
G01X0059627Y-016310D01*
G01X0059627Y-016310D02*
G01X0059589Y-016292D01*
G01X0059589Y-016292D02*
G01X0059571Y-016273D01*
G01X0059571Y-016273D02*
G01X0059552Y-016235D01*
G01X0059552Y-016235D02*
G01X0059552Y-016198D01*
G01X0059552Y-016198D02*
G01X0059571Y-016160D01*
G01X0059571Y-016160D02*
G01X0059589Y-016142D01*
G01X0059589Y-016142D02*
G01X0059627Y-016123D01*
G01X0059627Y-016123D02*
G01X0059721Y-016123D01*
G01X0059721Y-016123D02*
G01X0059777Y-016142D01*
G01X0059927Y-016160D02*
G01X0059946Y-016142D01*
G01X0059946Y-016142D02*
G01X0059983Y-016123D01*
G01X0059983Y-016123D02*
G01X0060077Y-016123D01*
G01X0060077Y-016123D02*
G01X0060114Y-016142D01*
G01X0060114Y-016142D02*
G01X0060133Y-016160D01*
G01X0060133Y-016160D02*
G01X0060152Y-016198D01*
G01X0060152Y-016198D02*
G01X0060152Y-016235D01*
G01X0060152Y-016235D02*
G01X0060133Y-016292D01*
G01X0060133Y-016292D02*
G01X0059908Y-016517D01*
G01X0059908Y-016517D02*
G01X0060152Y-016517D01*
G01X0060377Y-016292D02*
G01X0060339Y-016273D01*
G01X0060339Y-016273D02*
G01X0060321Y-016254D01*
G01X0060321Y-016254D02*
G01X0060302Y-016217D01*
G01X0060302Y-016217D02*
G01X0060302Y-016198D01*
G01X0060302Y-016198D02*
G01X0060321Y-016160D01*
G01X0060321Y-016160D02*
G01X0060339Y-016142D01*
G01X0060339Y-016142D02*
G01X0060377Y-016123D01*
G01X0060377Y-016123D02*
G01X0060452Y-016123D01*
G01X0060452Y-016123D02*
G01X0060489Y-016142D01*
G01X0060489Y-016142D02*
G01X0060508Y-016160D01*
G01X0060508Y-016160D02*
G01X0060527Y-016198D01*
G01X0060527Y-016198D02*
G01X0060527Y-016217D01*
G01X0060527Y-016217D02*
G01X0060508Y-016254D01*
G01X0060508Y-016254D02*
G01X0060489Y-016273D01*
G01X0060489Y-016273D02*
G01X0060452Y-016292D01*
G01X0060452Y-016292D02*
G01X0060377Y-016292D01*
G01X0060377Y-016292D02*
G01X0060339Y-016310D01*
G01X0060339Y-016310D02*
G01X0060321Y-016329D01*
G01X0060321Y-016329D02*
G01X0060302Y-016367D01*
G01X0060302Y-016367D02*
G01X0060302Y-016442D01*
G01X0060302Y-016442D02*
G01X0060321Y-016479D01*
G01X0060321Y-016479D02*
G01X0060339Y-016498D01*
G01X0060339Y-016498D02*
G01X0060377Y-016517D01*
G01X0060377Y-016517D02*
G01X0060452Y-016517D01*
G01X0060452Y-016517D02*
G01X0060489Y-016498D01*
G01X0060489Y-016498D02*
G01X0060508Y-016479D01*
G01X0060508Y-016479D02*
G01X0060527Y-016442D01*
G01X0060527Y-016442D02*
G01X0060527Y-016367D01*
G01X0060527Y-016367D02*
G01X0060508Y-016329D01*
G01X0060508Y-016329D02*
G01X0060489Y-016310D01*
G01X0060489Y-016310D02*
G01X0060452Y-016292D01*
G01X0052056Y-046100D02*
G01X0052112Y-046119D01*
G01X0052112Y-046119D02*
G01X0052206Y-046119D01*
G01X0052206Y-046119D02*
G01X0052243Y-046100D01*
G01X0052243Y-046100D02*
G01X0052262Y-046082D01*
G01X0052262Y-046082D02*
G01X0052281Y-046044D01*
G01X0052281Y-046044D02*
G01X0052281Y-046007D01*
G01X0052281Y-046007D02*
G01X0052262Y-045969D01*
G01X0052262Y-045969D02*
G01X0052243Y-045950D01*
G01X0052243Y-045950D02*
G01X0052206Y-045932D01*
G01X0052206Y-045932D02*
G01X0052131Y-045913D01*
G01X0052131Y-045913D02*
G01X0052093Y-045894D01*
G01X0052093Y-045894D02*
G01X0052075Y-045875D01*
G01X0052075Y-045875D02*
G01X0052056Y-045838D01*
G01X0052056Y-045838D02*
G01X0052056Y-045800D01*
G01X0052056Y-045800D02*
G01X0052075Y-045763D01*
G01X0052075Y-045763D02*
G01X0052093Y-045744D01*
G01X0052093Y-045744D02*
G01X0052131Y-045725D01*
G01X0052131Y-045725D02*
G01X0052225Y-045725D01*
G01X0052225Y-045725D02*
G01X0052281Y-045744D01*
G01X0052431Y-045763D02*
G01X0052450Y-045744D01*
G01X0052450Y-045744D02*
G01X0052487Y-045725D01*
G01X0052487Y-045725D02*
G01X0052581Y-045725D01*
G01X0052581Y-045725D02*
G01X0052618Y-045744D01*
G01X0052618Y-045744D02*
G01X0052637Y-045763D01*
G01X0052637Y-045763D02*
G01X0052656Y-045800D01*
G01X0052656Y-045800D02*
G01X0052656Y-045838D01*
G01X0052656Y-045838D02*
G01X0052637Y-045894D01*
G01X0052637Y-045894D02*
G01X0052412Y-046119D01*
G01X0052412Y-046119D02*
G01X0052656Y-046119D01*
G01X0052787Y-045725D02*
G01X0053049Y-045725D01*
G01X0053049Y-045725D02*
G01X0052881Y-046119D01*
G01X0052060Y-038600D02*
G01X0052116Y-038619D01*
G01X0052116Y-038619D02*
G01X0052210Y-038619D01*
G01X0052210Y-038619D02*
G01X0052247Y-038600D01*
G01X0052247Y-038600D02*
G01X0052266Y-038582D01*
G01X0052266Y-038582D02*
G01X0052285Y-038544D01*
G01X0052285Y-038544D02*
G01X0052285Y-038507D01*
G01X0052285Y-038507D02*
G01X0052266Y-038469D01*
G01X0052266Y-038469D02*
G01X0052247Y-038450D01*
G01X0052247Y-038450D02*
G01X0052210Y-038432D01*
G01X0052210Y-038432D02*
G01X0052135Y-038413D01*
G01X0052135Y-038413D02*
G01X0052097Y-038394D01*
G01X0052097Y-038394D02*
G01X0052079Y-038375D01*
G01X0052079Y-038375D02*
G01X0052060Y-038338D01*
G01X0052060Y-038338D02*
G01X0052060Y-038300D01*
G01X0052060Y-038300D02*
G01X0052079Y-038263D01*
G01X0052079Y-038263D02*
G01X0052097Y-038244D01*
G01X0052097Y-038244D02*
G01X0052135Y-038225D01*
G01X0052135Y-038225D02*
G01X0052229Y-038225D01*
G01X0052229Y-038225D02*
G01X0052285Y-038244D01*
G01X0052435Y-038263D02*
G01X0052454Y-038244D01*
G01X0052454Y-038244D02*
G01X0052491Y-038225D01*
G01X0052491Y-038225D02*
G01X0052585Y-038225D01*
G01X0052585Y-038225D02*
G01X0052622Y-038244D01*
G01X0052622Y-038244D02*
G01X0052641Y-038263D01*
G01X0052641Y-038263D02*
G01X0052660Y-038300D01*
G01X0052660Y-038300D02*
G01X0052660Y-038338D01*
G01X0052660Y-038338D02*
G01X0052641Y-038394D01*
G01X0052641Y-038394D02*
G01X0052416Y-038619D01*
G01X0052416Y-038619D02*
G01X0052660Y-038619D01*
G01X0052997Y-038225D02*
G01X0052922Y-038225D01*
G01X0052922Y-038225D02*
G01X0052885Y-038244D01*
G01X0052885Y-038244D02*
G01X0052866Y-038263D01*
G01X0052866Y-038263D02*
G01X0052828Y-038319D01*
G01X0052828Y-038319D02*
G01X0052810Y-038394D01*
G01X0052810Y-038394D02*
G01X0052810Y-038544D01*
G01X0052810Y-038544D02*
G01X0052828Y-038582D01*
G01X0052828Y-038582D02*
G01X0052847Y-038600D01*
G01X0052847Y-038600D02*
G01X0052885Y-038619D01*
G01X0052885Y-038619D02*
G01X0052960Y-038619D01*
G01X0052960Y-038619D02*
G01X0052997Y-038600D01*
G01X0052997Y-038600D02*
G01X0053016Y-038582D01*
G01X0053016Y-038582D02*
G01X0053035Y-038544D01*
G01X0053035Y-038544D02*
G01X0053035Y-038450D01*
G01X0053035Y-038450D02*
G01X0053016Y-038413D01*
G01X0053016Y-038413D02*
G01X0052997Y-038394D01*
G01X0052997Y-038394D02*
G01X0052960Y-038375D01*
G01X0052960Y-038375D02*
G01X0052885Y-038375D01*
G01X0052885Y-038375D02*
G01X0052847Y-038394D01*
G01X0052847Y-038394D02*
G01X0052828Y-038413D01*
G01X0052828Y-038413D02*
G01X0052810Y-038450D01*
G01X0052060Y-031102D02*
G01X0052116Y-031120D01*
G01X0052116Y-031120D02*
G01X0052210Y-031120D01*
G01X0052210Y-031120D02*
G01X0052247Y-031102D01*
G01X0052247Y-031102D02*
G01X0052266Y-031083D01*
G01X0052266Y-031083D02*
G01X0052285Y-031045D01*
G01X0052285Y-031045D02*
G01X0052285Y-031008D01*
G01X0052285Y-031008D02*
G01X0052266Y-030970D01*
G01X0052266Y-030970D02*
G01X0052247Y-030952D01*
G01X0052247Y-030952D02*
G01X0052210Y-030933D01*
G01X0052210Y-030933D02*
G01X0052135Y-030914D01*
G01X0052135Y-030914D02*
G01X0052097Y-030895D01*
G01X0052097Y-030895D02*
G01X0052078Y-030877D01*
G01X0052078Y-030877D02*
G01X0052060Y-030839D01*
G01X0052060Y-030839D02*
G01X0052060Y-030802D01*
G01X0052060Y-030802D02*
G01X0052078Y-030764D01*
G01X0052078Y-030764D02*
G01X0052097Y-030745D01*
G01X0052097Y-030745D02*
G01X0052135Y-030727D01*
G01X0052135Y-030727D02*
G01X0052228Y-030727D01*
G01X0052228Y-030727D02*
G01X0052285Y-030745D01*
G01X0052435Y-030764D02*
G01X0052453Y-030745D01*
G01X0052453Y-030745D02*
G01X0052491Y-030727D01*
G01X0052491Y-030727D02*
G01X0052584Y-030727D01*
G01X0052584Y-030727D02*
G01X0052622Y-030745D01*
G01X0052622Y-030745D02*
G01X0052641Y-030764D01*
G01X0052641Y-030764D02*
G01X0052659Y-030802D01*
G01X0052659Y-030802D02*
G01X0052659Y-030839D01*
G01X0052659Y-030839D02*
G01X0052641Y-030895D01*
G01X0052641Y-030895D02*
G01X0052416Y-031120D01*
G01X0052416Y-031120D02*
G01X0052659Y-031120D01*
G01X0053016Y-030727D02*
G01X0052828Y-030727D01*
G01X0052828Y-030727D02*
G01X0052809Y-030914D01*
G01X0052809Y-030914D02*
G01X0052828Y-030895D01*
G01X0052828Y-030895D02*
G01X0052866Y-030877D01*
G01X0052866Y-030877D02*
G01X0052959Y-030877D01*
G01X0052959Y-030877D02*
G01X0052997Y-030895D01*
G01X0052997Y-030895D02*
G01X0053016Y-030914D01*
G01X0053016Y-030914D02*
G01X0053034Y-030952D01*
G01X0053034Y-030952D02*
G01X0053034Y-031045D01*
G01X0053034Y-031045D02*
G01X0053016Y-031083D01*
G01X0053016Y-031083D02*
G01X0052997Y-031102D01*
G01X0052997Y-031102D02*
G01X0052959Y-031120D01*
G01X0052959Y-031120D02*
G01X0052866Y-031120D01*
G01X0052866Y-031120D02*
G01X0052828Y-031102D01*
G01X0052828Y-031102D02*
G01X0052809Y-031083D01*
G01X0052056Y-023600D02*
G01X0052112Y-023619D01*
G01X0052112Y-023619D02*
G01X0052206Y-023619D01*
G01X0052206Y-023619D02*
G01X0052243Y-023600D01*
G01X0052243Y-023600D02*
G01X0052262Y-023582D01*
G01X0052262Y-023582D02*
G01X0052281Y-023544D01*
G01X0052281Y-023544D02*
G01X0052281Y-023507D01*
G01X0052281Y-023507D02*
G01X0052262Y-023469D01*
G01X0052262Y-023469D02*
G01X0052243Y-023450D01*
G01X0052243Y-023450D02*
G01X0052206Y-023432D01*
G01X0052206Y-023432D02*
G01X0052131Y-023413D01*
G01X0052131Y-023413D02*
G01X0052093Y-023394D01*
G01X0052093Y-023394D02*
G01X0052075Y-023375D01*
G01X0052075Y-023375D02*
G01X0052056Y-023338D01*
G01X0052056Y-023338D02*
G01X0052056Y-023300D01*
G01X0052056Y-023300D02*
G01X0052075Y-023263D01*
G01X0052075Y-023263D02*
G01X0052093Y-023244D01*
G01X0052093Y-023244D02*
G01X0052131Y-023225D01*
G01X0052131Y-023225D02*
G01X0052225Y-023225D01*
G01X0052225Y-023225D02*
G01X0052281Y-023244D01*
G01X0052431Y-023263D02*
G01X0052450Y-023244D01*
G01X0052450Y-023244D02*
G01X0052487Y-023225D01*
G01X0052487Y-023225D02*
G01X0052581Y-023225D01*
G01X0052581Y-023225D02*
G01X0052618Y-023244D01*
G01X0052618Y-023244D02*
G01X0052637Y-023263D01*
G01X0052637Y-023263D02*
G01X0052656Y-023300D01*
G01X0052656Y-023300D02*
G01X0052656Y-023338D01*
G01X0052656Y-023338D02*
G01X0052637Y-023394D01*
G01X0052637Y-023394D02*
G01X0052412Y-023619D01*
G01X0052412Y-023619D02*
G01X0052656Y-023619D01*
G01X0052993Y-023357D02*
G01X0052993Y-023619D01*
G01X0052900Y-023207D02*
G01X0052806Y-023488D01*
G01X0052806Y-023488D02*
G01X0053049Y-023488D01*
G01X0052056Y-016100D02*
G01X0052112Y-016119D01*
G01X0052112Y-016119D02*
G01X0052206Y-016119D01*
G01X0052206Y-016119D02*
G01X0052243Y-016100D01*
G01X0052243Y-016100D02*
G01X0052262Y-016082D01*
G01X0052262Y-016082D02*
G01X0052281Y-016044D01*
G01X0052281Y-016044D02*
G01X0052281Y-016007D01*
G01X0052281Y-016007D02*
G01X0052262Y-015969D01*
G01X0052262Y-015969D02*
G01X0052243Y-015950D01*
G01X0052243Y-015950D02*
G01X0052206Y-015932D01*
G01X0052206Y-015932D02*
G01X0052131Y-015913D01*
G01X0052131Y-015913D02*
G01X0052093Y-015894D01*
G01X0052093Y-015894D02*
G01X0052075Y-015875D01*
G01X0052075Y-015875D02*
G01X0052056Y-015838D01*
G01X0052056Y-015838D02*
G01X0052056Y-015800D01*
G01X0052056Y-015800D02*
G01X0052075Y-015763D01*
G01X0052075Y-015763D02*
G01X0052093Y-015744D01*
G01X0052093Y-015744D02*
G01X0052131Y-015725D01*
G01X0052131Y-015725D02*
G01X0052225Y-015725D01*
G01X0052225Y-015725D02*
G01X0052281Y-015744D01*
G01X0052431Y-015763D02*
G01X0052450Y-015744D01*
G01X0052450Y-015744D02*
G01X0052487Y-015725D01*
G01X0052487Y-015725D02*
G01X0052581Y-015725D01*
G01X0052581Y-015725D02*
G01X0052618Y-015744D01*
G01X0052618Y-015744D02*
G01X0052637Y-015763D01*
G01X0052637Y-015763D02*
G01X0052656Y-015800D01*
G01X0052656Y-015800D02*
G01X0052656Y-015838D01*
G01X0052656Y-015838D02*
G01X0052637Y-015894D01*
G01X0052637Y-015894D02*
G01X0052412Y-016119D01*
G01X0052412Y-016119D02*
G01X0052656Y-016119D01*
G01X0052787Y-015725D02*
G01X0053031Y-015725D01*
G01X0053031Y-015725D02*
G01X0052900Y-015875D01*
G01X0052900Y-015875D02*
G01X0052956Y-015875D01*
G01X0052956Y-015875D02*
G01X0052993Y-015894D01*
G01X0052993Y-015894D02*
G01X0053012Y-015913D01*
G01X0053012Y-015913D02*
G01X0053031Y-015950D01*
G01X0053031Y-015950D02*
G01X0053031Y-016044D01*
G01X0053031Y-016044D02*
G01X0053012Y-016082D01*
G01X0053012Y-016082D02*
G01X0052993Y-016100D01*
G01X0052993Y-016100D02*
G01X0052956Y-016119D01*
G01X0052956Y-016119D02*
G01X0052843Y-016119D01*
G01X0052843Y-016119D02*
G01X0052806Y-016100D01*
G01X0052806Y-016100D02*
G01X0052787Y-016082D01*
G01X0044556Y-045392D02*
G01X0044612Y-045410D01*
G01X0044612Y-045410D02*
G01X0044706Y-045410D01*
G01X0044706Y-045410D02*
G01X0044743Y-045392D01*
G01X0044743Y-045392D02*
G01X0044762Y-045373D01*
G01X0044762Y-045373D02*
G01X0044781Y-045335D01*
G01X0044781Y-045335D02*
G01X0044781Y-045298D01*
G01X0044781Y-045298D02*
G01X0044762Y-045260D01*
G01X0044762Y-045260D02*
G01X0044743Y-045242D01*
G01X0044743Y-045242D02*
G01X0044706Y-045223D01*
G01X0044706Y-045223D02*
G01X0044631Y-045204D01*
G01X0044631Y-045204D02*
G01X0044593Y-045185D01*
G01X0044593Y-045185D02*
G01X0044575Y-045167D01*
G01X0044575Y-045167D02*
G01X0044556Y-045129D01*
G01X0044556Y-045129D02*
G01X0044556Y-045092D01*
G01X0044556Y-045092D02*
G01X0044575Y-045054D01*
G01X0044575Y-045054D02*
G01X0044593Y-045035D01*
G01X0044593Y-045035D02*
G01X0044631Y-045017D01*
G01X0044631Y-045017D02*
G01X0044725Y-045017D01*
G01X0044725Y-045017D02*
G01X0044781Y-045035D01*
G01X0044931Y-045054D02*
G01X0044950Y-045035D01*
G01X0044950Y-045035D02*
G01X0044987Y-045017D01*
G01X0044987Y-045017D02*
G01X0045081Y-045017D01*
G01X0045081Y-045017D02*
G01X0045118Y-045035D01*
G01X0045118Y-045035D02*
G01X0045137Y-045054D01*
G01X0045137Y-045054D02*
G01X0045156Y-045092D01*
G01X0045156Y-045092D02*
G01X0045156Y-045129D01*
G01X0045156Y-045129D02*
G01X0045137Y-045185D01*
G01X0045137Y-045185D02*
G01X0044912Y-045410D01*
G01X0044912Y-045410D02*
G01X0045156Y-045410D01*
G01X0045306Y-045054D02*
G01X0045325Y-045035D01*
G01X0045325Y-045035D02*
G01X0045362Y-045017D01*
G01X0045362Y-045017D02*
G01X0045456Y-045017D01*
G01X0045456Y-045017D02*
G01X0045493Y-045035D01*
G01X0045493Y-045035D02*
G01X0045512Y-045054D01*
G01X0045512Y-045054D02*
G01X0045531Y-045092D01*
G01X0045531Y-045092D02*
G01X0045531Y-045129D01*
G01X0045531Y-045129D02*
G01X0045512Y-045185D01*
G01X0045512Y-045185D02*
G01X0045287Y-045410D01*
G01X0045287Y-045410D02*
G01X0045531Y-045410D01*
G01X0044560Y-037892D02*
G01X0044616Y-037910D01*
G01X0044616Y-037910D02*
G01X0044710Y-037910D01*
G01X0044710Y-037910D02*
G01X0044747Y-037892D01*
G01X0044747Y-037892D02*
G01X0044766Y-037873D01*
G01X0044766Y-037873D02*
G01X0044785Y-037835D01*
G01X0044785Y-037835D02*
G01X0044785Y-037798D01*
G01X0044785Y-037798D02*
G01X0044766Y-037760D01*
G01X0044766Y-037760D02*
G01X0044747Y-037742D01*
G01X0044747Y-037742D02*
G01X0044710Y-037723D01*
G01X0044710Y-037723D02*
G01X0044635Y-037704D01*
G01X0044635Y-037704D02*
G01X0044597Y-037685D01*
G01X0044597Y-037685D02*
G01X0044579Y-037667D01*
G01X0044579Y-037667D02*
G01X0044560Y-037629D01*
G01X0044560Y-037629D02*
G01X0044560Y-037592D01*
G01X0044560Y-037592D02*
G01X0044579Y-037554D01*
G01X0044579Y-037554D02*
G01X0044597Y-037535D01*
G01X0044597Y-037535D02*
G01X0044635Y-037517D01*
G01X0044635Y-037517D02*
G01X0044729Y-037517D01*
G01X0044729Y-037517D02*
G01X0044785Y-037535D01*
G01X0044935Y-037554D02*
G01X0044954Y-037535D01*
G01X0044954Y-037535D02*
G01X0044991Y-037517D01*
G01X0044991Y-037517D02*
G01X0045085Y-037517D01*
G01X0045085Y-037517D02*
G01X0045122Y-037535D01*
G01X0045122Y-037535D02*
G01X0045141Y-037554D01*
G01X0045141Y-037554D02*
G01X0045160Y-037592D01*
G01X0045160Y-037592D02*
G01X0045160Y-037629D01*
G01X0045160Y-037629D02*
G01X0045141Y-037685D01*
G01X0045141Y-037685D02*
G01X0044916Y-037910D01*
G01X0044916Y-037910D02*
G01X0045160Y-037910D01*
G01X0045535Y-037910D02*
G01X0045310Y-037910D01*
G01X0045422Y-037910D02*
G01X0045422Y-037517D01*
G01X0045422Y-037517D02*
G01X0045385Y-037573D01*
G01X0045385Y-037573D02*
G01X0045347Y-037610D01*
G01X0045347Y-037610D02*
G01X0045310Y-037629D01*
G01X0044556Y-030392D02*
G01X0044612Y-030410D01*
G01X0044612Y-030410D02*
G01X0044706Y-030410D01*
G01X0044706Y-030410D02*
G01X0044743Y-030392D01*
G01X0044743Y-030392D02*
G01X0044762Y-030373D01*
G01X0044762Y-030373D02*
G01X0044781Y-030335D01*
G01X0044781Y-030335D02*
G01X0044781Y-030298D01*
G01X0044781Y-030298D02*
G01X0044762Y-030260D01*
G01X0044762Y-030260D02*
G01X0044743Y-030242D01*
G01X0044743Y-030242D02*
G01X0044706Y-030223D01*
G01X0044706Y-030223D02*
G01X0044631Y-030204D01*
G01X0044631Y-030204D02*
G01X0044593Y-030185D01*
G01X0044593Y-030185D02*
G01X0044575Y-030167D01*
G01X0044575Y-030167D02*
G01X0044556Y-030129D01*
G01X0044556Y-030129D02*
G01X0044556Y-030092D01*
G01X0044556Y-030092D02*
G01X0044575Y-030054D01*
G01X0044575Y-030054D02*
G01X0044593Y-030035D01*
G01X0044593Y-030035D02*
G01X0044631Y-030017D01*
G01X0044631Y-030017D02*
G01X0044725Y-030017D01*
G01X0044725Y-030017D02*
G01X0044781Y-030035D01*
G01X0044931Y-030054D02*
G01X0044950Y-030035D01*
G01X0044950Y-030035D02*
G01X0044987Y-030017D01*
G01X0044987Y-030017D02*
G01X0045081Y-030017D01*
G01X0045081Y-030017D02*
G01X0045118Y-030035D01*
G01X0045118Y-030035D02*
G01X0045137Y-030054D01*
G01X0045137Y-030054D02*
G01X0045156Y-030092D01*
G01X0045156Y-030092D02*
G01X0045156Y-030129D01*
G01X0045156Y-030129D02*
G01X0045137Y-030185D01*
G01X0045137Y-030185D02*
G01X0044912Y-030410D01*
G01X0044912Y-030410D02*
G01X0045156Y-030410D01*
G01X0045400Y-030017D02*
G01X0045437Y-030017D01*
G01X0045437Y-030017D02*
G01X0045475Y-030035D01*
G01X0045475Y-030035D02*
G01X0045493Y-030054D01*
G01X0045493Y-030054D02*
G01X0045512Y-030092D01*
G01X0045512Y-030092D02*
G01X0045531Y-030167D01*
G01X0045531Y-030167D02*
G01X0045531Y-030260D01*
G01X0045531Y-030260D02*
G01X0045512Y-030335D01*
G01X0045512Y-030335D02*
G01X0045493Y-030373D01*
G01X0045493Y-030373D02*
G01X0045475Y-030392D01*
G01X0045475Y-030392D02*
G01X0045437Y-030410D01*
G01X0045437Y-030410D02*
G01X0045400Y-030410D01*
G01X0045400Y-030410D02*
G01X0045362Y-030392D01*
G01X0045362Y-030392D02*
G01X0045343Y-030373D01*
G01X0045343Y-030373D02*
G01X0045325Y-030335D01*
G01X0045325Y-030335D02*
G01X0045306Y-030260D01*
G01X0045306Y-030260D02*
G01X0045306Y-030167D01*
G01X0045306Y-030167D02*
G01X0045325Y-030092D01*
G01X0045325Y-030092D02*
G01X0045343Y-030054D01*
G01X0045343Y-030054D02*
G01X0045362Y-030035D01*
G01X0045362Y-030035D02*
G01X0045400Y-030017D01*
G01X0044560Y-022892D02*
G01X0044616Y-022910D01*
G01X0044616Y-022910D02*
G01X0044710Y-022910D01*
G01X0044710Y-022910D02*
G01X0044747Y-022892D01*
G01X0044747Y-022892D02*
G01X0044766Y-022873D01*
G01X0044766Y-022873D02*
G01X0044785Y-022835D01*
G01X0044785Y-022835D02*
G01X0044785Y-022798D01*
G01X0044785Y-022798D02*
G01X0044766Y-022760D01*
G01X0044766Y-022760D02*
G01X0044747Y-022742D01*
G01X0044747Y-022742D02*
G01X0044710Y-022723D01*
G01X0044710Y-022723D02*
G01X0044635Y-022704D01*
G01X0044635Y-022704D02*
G01X0044597Y-022685D01*
G01X0044597Y-022685D02*
G01X0044579Y-022667D01*
G01X0044579Y-022667D02*
G01X0044560Y-022629D01*
G01X0044560Y-022629D02*
G01X0044560Y-022592D01*
G01X0044560Y-022592D02*
G01X0044579Y-022554D01*
G01X0044579Y-022554D02*
G01X0044597Y-022535D01*
G01X0044597Y-022535D02*
G01X0044635Y-022517D01*
G01X0044635Y-022517D02*
G01X0044729Y-022517D01*
G01X0044729Y-022517D02*
G01X0044785Y-022535D01*
G01X0045160Y-022910D02*
G01X0044935Y-022910D01*
G01X0045047Y-022910D02*
G01X0045047Y-022517D01*
G01X0045047Y-022517D02*
G01X0045010Y-022573D01*
G01X0045010Y-022573D02*
G01X0044972Y-022610D01*
G01X0044972Y-022610D02*
G01X0044935Y-022629D01*
G01X0045347Y-022910D02*
G01X0045422Y-022910D01*
G01X0045422Y-022910D02*
G01X0045460Y-022892D01*
G01X0045460Y-022892D02*
G01X0045478Y-022873D01*
G01X0045478Y-022873D02*
G01X0045516Y-022817D01*
G01X0045516Y-022817D02*
G01X0045535Y-022742D01*
G01X0045535Y-022742D02*
G01X0045535Y-022592D01*
G01X0045535Y-022592D02*
G01X0045516Y-022554D01*
G01X0045516Y-022554D02*
G01X0045497Y-022535D01*
G01X0045497Y-022535D02*
G01X0045460Y-022517D01*
G01X0045460Y-022517D02*
G01X0045385Y-022517D01*
G01X0045385Y-022517D02*
G01X0045347Y-022535D01*
G01X0045347Y-022535D02*
G01X0045328Y-022554D01*
G01X0045328Y-022554D02*
G01X0045310Y-022592D01*
G01X0045310Y-022592D02*
G01X0045310Y-022685D01*
G01X0045310Y-022685D02*
G01X0045328Y-022723D01*
G01X0045328Y-022723D02*
G01X0045347Y-022742D01*
G01X0045347Y-022742D02*
G01X0045385Y-022760D01*
G01X0045385Y-022760D02*
G01X0045460Y-022760D01*
G01X0045460Y-022760D02*
G01X0045497Y-022742D01*
G01X0045497Y-022742D02*
G01X0045516Y-022723D01*
G01X0045516Y-022723D02*
G01X0045535Y-022685D01*
G01X0044556Y-015392D02*
G01X0044612Y-015410D01*
G01X0044612Y-015410D02*
G01X0044706Y-015410D01*
G01X0044706Y-015410D02*
G01X0044743Y-015392D01*
G01X0044743Y-015392D02*
G01X0044762Y-015373D01*
G01X0044762Y-015373D02*
G01X0044781Y-015335D01*
G01X0044781Y-015335D02*
G01X0044781Y-015298D01*
G01X0044781Y-015298D02*
G01X0044762Y-015260D01*
G01X0044762Y-015260D02*
G01X0044743Y-015242D01*
G01X0044743Y-015242D02*
G01X0044706Y-015223D01*
G01X0044706Y-015223D02*
G01X0044631Y-015204D01*
G01X0044631Y-015204D02*
G01X0044593Y-015185D01*
G01X0044593Y-015185D02*
G01X0044575Y-015167D01*
G01X0044575Y-015167D02*
G01X0044556Y-015129D01*
G01X0044556Y-015129D02*
G01X0044556Y-015092D01*
G01X0044556Y-015092D02*
G01X0044575Y-015054D01*
G01X0044575Y-015054D02*
G01X0044593Y-015035D01*
G01X0044593Y-015035D02*
G01X0044631Y-015017D01*
G01X0044631Y-015017D02*
G01X0044725Y-015017D01*
G01X0044725Y-015017D02*
G01X0044781Y-015035D01*
G01X0045156Y-015410D02*
G01X0044931Y-015410D01*
G01X0045043Y-015410D02*
G01X0045043Y-015017D01*
G01X0045043Y-015017D02*
G01X0045006Y-015073D01*
G01X0045006Y-015073D02*
G01X0044968Y-015110D01*
G01X0044968Y-015110D02*
G01X0044931Y-015129D01*
G01X0045381Y-015185D02*
G01X0045343Y-015167D01*
G01X0045343Y-015167D02*
G01X0045325Y-015148D01*
G01X0045325Y-015148D02*
G01X0045306Y-015110D01*
G01X0045306Y-015110D02*
G01X0045306Y-015092D01*
G01X0045306Y-015092D02*
G01X0045325Y-015054D01*
G01X0045325Y-015054D02*
G01X0045343Y-015035D01*
G01X0045343Y-015035D02*
G01X0045381Y-015017D01*
G01X0045381Y-015017D02*
G01X0045456Y-015017D01*
G01X0045456Y-015017D02*
G01X0045493Y-015035D01*
G01X0045493Y-015035D02*
G01X0045512Y-015054D01*
G01X0045512Y-015054D02*
G01X0045531Y-015092D01*
G01X0045531Y-015092D02*
G01X0045531Y-015110D01*
G01X0045531Y-015110D02*
G01X0045512Y-015148D01*
G01X0045512Y-015148D02*
G01X0045493Y-015167D01*
G01X0045493Y-015167D02*
G01X0045456Y-015185D01*
G01X0045456Y-015185D02*
G01X0045381Y-015185D01*
G01X0045381Y-015185D02*
G01X0045343Y-015204D01*
G01X0045343Y-015204D02*
G01X0045325Y-015223D01*
G01X0045325Y-015223D02*
G01X0045306Y-015260D01*
G01X0045306Y-015260D02*
G01X0045306Y-015335D01*
G01X0045306Y-015335D02*
G01X0045325Y-015373D01*
G01X0045325Y-015373D02*
G01X0045343Y-015392D01*
G01X0045343Y-015392D02*
G01X0045381Y-015410D01*
G01X0045381Y-015410D02*
G01X0045456Y-015410D01*
G01X0045456Y-015410D02*
G01X0045493Y-015392D01*
G01X0045493Y-015392D02*
G01X0045512Y-015373D01*
G01X0045512Y-015373D02*
G01X0045531Y-015335D01*
G01X0045531Y-015335D02*
G01X0045531Y-015260D01*
G01X0045531Y-015260D02*
G01X0045512Y-015223D01*
G01X0045512Y-015223D02*
G01X0045493Y-015204D01*
G01X0045493Y-015204D02*
G01X0045456Y-015185D01*
G01X0037056Y-046100D02*
G01X0037112Y-046119D01*
G01X0037112Y-046119D02*
G01X0037206Y-046119D01*
G01X0037206Y-046119D02*
G01X0037243Y-046100D01*
G01X0037243Y-046100D02*
G01X0037262Y-046082D01*
G01X0037262Y-046082D02*
G01X0037281Y-046044D01*
G01X0037281Y-046044D02*
G01X0037281Y-046007D01*
G01X0037281Y-046007D02*
G01X0037262Y-045969D01*
G01X0037262Y-045969D02*
G01X0037243Y-045950D01*
G01X0037243Y-045950D02*
G01X0037206Y-045932D01*
G01X0037206Y-045932D02*
G01X0037131Y-045913D01*
G01X0037131Y-045913D02*
G01X0037093Y-045894D01*
G01X0037093Y-045894D02*
G01X0037075Y-045875D01*
G01X0037075Y-045875D02*
G01X0037056Y-045838D01*
G01X0037056Y-045838D02*
G01X0037056Y-045800D01*
G01X0037056Y-045800D02*
G01X0037075Y-045763D01*
G01X0037075Y-045763D02*
G01X0037093Y-045744D01*
G01X0037093Y-045744D02*
G01X0037131Y-045725D01*
G01X0037131Y-045725D02*
G01X0037225Y-045725D01*
G01X0037225Y-045725D02*
G01X0037281Y-045744D01*
G01X0037656Y-046119D02*
G01X0037431Y-046119D01*
G01X0037543Y-046119D02*
G01X0037543Y-045725D01*
G01X0037543Y-045725D02*
G01X0037506Y-045782D01*
G01X0037506Y-045782D02*
G01X0037468Y-045819D01*
G01X0037468Y-045819D02*
G01X0037431Y-045838D01*
G01X0037787Y-045725D02*
G01X0038049Y-045725D01*
G01X0038049Y-045725D02*
G01X0037881Y-046119D01*
G01X0037056Y-038600D02*
G01X0037112Y-038619D01*
G01X0037112Y-038619D02*
G01X0037206Y-038619D01*
G01X0037206Y-038619D02*
G01X0037243Y-038600D01*
G01X0037243Y-038600D02*
G01X0037262Y-038582D01*
G01X0037262Y-038582D02*
G01X0037281Y-038544D01*
G01X0037281Y-038544D02*
G01X0037281Y-038507D01*
G01X0037281Y-038507D02*
G01X0037262Y-038469D01*
G01X0037262Y-038469D02*
G01X0037243Y-038450D01*
G01X0037243Y-038450D02*
G01X0037206Y-038432D01*
G01X0037206Y-038432D02*
G01X0037131Y-038413D01*
G01X0037131Y-038413D02*
G01X0037093Y-038394D01*
G01X0037093Y-038394D02*
G01X0037075Y-038375D01*
G01X0037075Y-038375D02*
G01X0037056Y-038338D01*
G01X0037056Y-038338D02*
G01X0037056Y-038300D01*
G01X0037056Y-038300D02*
G01X0037075Y-038263D01*
G01X0037075Y-038263D02*
G01X0037093Y-038244D01*
G01X0037093Y-038244D02*
G01X0037131Y-038225D01*
G01X0037131Y-038225D02*
G01X0037225Y-038225D01*
G01X0037225Y-038225D02*
G01X0037281Y-038244D01*
G01X0037656Y-038619D02*
G01X0037431Y-038619D01*
G01X0037543Y-038619D02*
G01X0037543Y-038225D01*
G01X0037543Y-038225D02*
G01X0037506Y-038282D01*
G01X0037506Y-038282D02*
G01X0037468Y-038319D01*
G01X0037468Y-038319D02*
G01X0037431Y-038338D01*
G01X0037993Y-038225D02*
G01X0037918Y-038225D01*
G01X0037918Y-038225D02*
G01X0037881Y-038244D01*
G01X0037881Y-038244D02*
G01X0037862Y-038263D01*
G01X0037862Y-038263D02*
G01X0037825Y-038319D01*
G01X0037825Y-038319D02*
G01X0037806Y-038394D01*
G01X0037806Y-038394D02*
G01X0037806Y-038544D01*
G01X0037806Y-038544D02*
G01X0037825Y-038582D01*
G01X0037825Y-038582D02*
G01X0037843Y-038600D01*
G01X0037843Y-038600D02*
G01X0037881Y-038619D01*
G01X0037881Y-038619D02*
G01X0037956Y-038619D01*
G01X0037956Y-038619D02*
G01X0037993Y-038600D01*
G01X0037993Y-038600D02*
G01X0038012Y-038582D01*
G01X0038012Y-038582D02*
G01X0038031Y-038544D01*
G01X0038031Y-038544D02*
G01X0038031Y-038450D01*
G01X0038031Y-038450D02*
G01X0038012Y-038413D01*
G01X0038012Y-038413D02*
G01X0037993Y-038394D01*
G01X0037993Y-038394D02*
G01X0037956Y-038375D01*
G01X0037956Y-038375D02*
G01X0037881Y-038375D01*
G01X0037881Y-038375D02*
G01X0037843Y-038394D01*
G01X0037843Y-038394D02*
G01X0037825Y-038413D01*
G01X0037825Y-038413D02*
G01X0037806Y-038450D01*
G01X0037060Y-031100D02*
G01X0037116Y-031119D01*
G01X0037116Y-031119D02*
G01X0037210Y-031119D01*
G01X0037210Y-031119D02*
G01X0037247Y-031100D01*
G01X0037247Y-031100D02*
G01X0037266Y-031082D01*
G01X0037266Y-031082D02*
G01X0037285Y-031044D01*
G01X0037285Y-031044D02*
G01X0037285Y-031007D01*
G01X0037285Y-031007D02*
G01X0037266Y-030969D01*
G01X0037266Y-030969D02*
G01X0037247Y-030950D01*
G01X0037247Y-030950D02*
G01X0037210Y-030932D01*
G01X0037210Y-030932D02*
G01X0037135Y-030913D01*
G01X0037135Y-030913D02*
G01X0037097Y-030894D01*
G01X0037097Y-030894D02*
G01X0037079Y-030875D01*
G01X0037079Y-030875D02*
G01X0037060Y-030838D01*
G01X0037060Y-030838D02*
G01X0037060Y-030800D01*
G01X0037060Y-030800D02*
G01X0037079Y-030763D01*
G01X0037079Y-030763D02*
G01X0037097Y-030744D01*
G01X0037097Y-030744D02*
G01X0037135Y-030725D01*
G01X0037135Y-030725D02*
G01X0037229Y-030725D01*
G01X0037229Y-030725D02*
G01X0037285Y-030744D01*
G01X0037660Y-031119D02*
G01X0037435Y-031119D01*
G01X0037547Y-031119D02*
G01X0037547Y-030725D01*
G01X0037547Y-030725D02*
G01X0037510Y-030782D01*
G01X0037510Y-030782D02*
G01X0037472Y-030819D01*
G01X0037472Y-030819D02*
G01X0037435Y-030838D01*
G01X0038016Y-030725D02*
G01X0037828Y-030725D01*
G01X0037828Y-030725D02*
G01X0037810Y-030913D01*
G01X0037810Y-030913D02*
G01X0037828Y-030894D01*
G01X0037828Y-030894D02*
G01X0037866Y-030875D01*
G01X0037866Y-030875D02*
G01X0037960Y-030875D01*
G01X0037960Y-030875D02*
G01X0037997Y-030894D01*
G01X0037997Y-030894D02*
G01X0038016Y-030913D01*
G01X0038016Y-030913D02*
G01X0038035Y-030950D01*
G01X0038035Y-030950D02*
G01X0038035Y-031044D01*
G01X0038035Y-031044D02*
G01X0038016Y-031082D01*
G01X0038016Y-031082D02*
G01X0037997Y-031100D01*
G01X0037997Y-031100D02*
G01X0037960Y-031119D01*
G01X0037960Y-031119D02*
G01X0037866Y-031119D01*
G01X0037866Y-031119D02*
G01X0037828Y-031100D01*
G01X0037828Y-031100D02*
G01X0037810Y-031082D01*
G01X0037056Y-023600D02*
G01X0037112Y-023619D01*
G01X0037112Y-023619D02*
G01X0037206Y-023619D01*
G01X0037206Y-023619D02*
G01X0037243Y-023600D01*
G01X0037243Y-023600D02*
G01X0037262Y-023582D01*
G01X0037262Y-023582D02*
G01X0037281Y-023544D01*
G01X0037281Y-023544D02*
G01X0037281Y-023507D01*
G01X0037281Y-023507D02*
G01X0037262Y-023469D01*
G01X0037262Y-023469D02*
G01X0037243Y-023450D01*
G01X0037243Y-023450D02*
G01X0037206Y-023432D01*
G01X0037206Y-023432D02*
G01X0037131Y-023413D01*
G01X0037131Y-023413D02*
G01X0037093Y-023394D01*
G01X0037093Y-023394D02*
G01X0037075Y-023375D01*
G01X0037075Y-023375D02*
G01X0037056Y-023338D01*
G01X0037056Y-023338D02*
G01X0037056Y-023300D01*
G01X0037056Y-023300D02*
G01X0037075Y-023263D01*
G01X0037075Y-023263D02*
G01X0037093Y-023244D01*
G01X0037093Y-023244D02*
G01X0037131Y-023225D01*
G01X0037131Y-023225D02*
G01X0037225Y-023225D01*
G01X0037225Y-023225D02*
G01X0037281Y-023244D01*
G01X0037656Y-023619D02*
G01X0037431Y-023619D01*
G01X0037543Y-023619D02*
G01X0037543Y-023225D01*
G01X0037543Y-023225D02*
G01X0037506Y-023282D01*
G01X0037506Y-023282D02*
G01X0037468Y-023319D01*
G01X0037468Y-023319D02*
G01X0037431Y-023338D01*
G01X0037993Y-023357D02*
G01X0037993Y-023619D01*
G01X0037900Y-023207D02*
G01X0037806Y-023488D01*
G01X0037806Y-023488D02*
G01X0038049Y-023488D01*
G01X0037056Y-016100D02*
G01X0037112Y-016119D01*
G01X0037112Y-016119D02*
G01X0037206Y-016119D01*
G01X0037206Y-016119D02*
G01X0037243Y-016100D01*
G01X0037243Y-016100D02*
G01X0037262Y-016082D01*
G01X0037262Y-016082D02*
G01X0037281Y-016044D01*
G01X0037281Y-016044D02*
G01X0037281Y-016007D01*
G01X0037281Y-016007D02*
G01X0037262Y-015969D01*
G01X0037262Y-015969D02*
G01X0037243Y-015950D01*
G01X0037243Y-015950D02*
G01X0037206Y-015932D01*
G01X0037206Y-015932D02*
G01X0037131Y-015913D01*
G01X0037131Y-015913D02*
G01X0037093Y-015894D01*
G01X0037093Y-015894D02*
G01X0037075Y-015875D01*
G01X0037075Y-015875D02*
G01X0037056Y-015838D01*
G01X0037056Y-015838D02*
G01X0037056Y-015800D01*
G01X0037056Y-015800D02*
G01X0037075Y-015763D01*
G01X0037075Y-015763D02*
G01X0037093Y-015744D01*
G01X0037093Y-015744D02*
G01X0037131Y-015725D01*
G01X0037131Y-015725D02*
G01X0037225Y-015725D01*
G01X0037225Y-015725D02*
G01X0037281Y-015744D01*
G01X0037656Y-016119D02*
G01X0037431Y-016119D01*
G01X0037543Y-016119D02*
G01X0037543Y-015725D01*
G01X0037543Y-015725D02*
G01X0037506Y-015782D01*
G01X0037506Y-015782D02*
G01X0037468Y-015819D01*
G01X0037468Y-015819D02*
G01X0037431Y-015838D01*
G01X0037787Y-015725D02*
G01X0038031Y-015725D01*
G01X0038031Y-015725D02*
G01X0037900Y-015875D01*
G01X0037900Y-015875D02*
G01X0037956Y-015875D01*
G01X0037956Y-015875D02*
G01X0037993Y-015894D01*
G01X0037993Y-015894D02*
G01X0038012Y-015913D01*
G01X0038012Y-015913D02*
G01X0038031Y-015950D01*
G01X0038031Y-015950D02*
G01X0038031Y-016044D01*
G01X0038031Y-016044D02*
G01X0038012Y-016082D01*
G01X0038012Y-016082D02*
G01X0037993Y-016100D01*
G01X0037993Y-016100D02*
G01X0037956Y-016119D01*
G01X0037956Y-016119D02*
G01X0037843Y-016119D01*
G01X0037843Y-016119D02*
G01X0037806Y-016100D01*
G01X0037806Y-016100D02*
G01X0037787Y-016082D01*
G01X0029556Y-047281D02*
G01X0029612Y-047300D01*
G01X0029612Y-047300D02*
G01X0029706Y-047300D01*
G01X0029706Y-047300D02*
G01X0029743Y-047281D01*
G01X0029743Y-047281D02*
G01X0029762Y-047263D01*
G01X0029762Y-047263D02*
G01X0029781Y-047225D01*
G01X0029781Y-047225D02*
G01X0029781Y-047188D01*
G01X0029781Y-047188D02*
G01X0029762Y-047150D01*
G01X0029762Y-047150D02*
G01X0029743Y-047131D01*
G01X0029743Y-047131D02*
G01X0029706Y-047113D01*
G01X0029706Y-047113D02*
G01X0029631Y-047094D01*
G01X0029631Y-047094D02*
G01X0029593Y-047075D01*
G01X0029593Y-047075D02*
G01X0029575Y-047056D01*
G01X0029575Y-047056D02*
G01X0029556Y-047019D01*
G01X0029556Y-047019D02*
G01X0029556Y-046981D01*
G01X0029556Y-046981D02*
G01X0029575Y-046944D01*
G01X0029575Y-046944D02*
G01X0029593Y-046925D01*
G01X0029593Y-046925D02*
G01X0029631Y-046906D01*
G01X0029631Y-046906D02*
G01X0029725Y-046906D01*
G01X0029725Y-046906D02*
G01X0029781Y-046925D01*
G01X0030156Y-047300D02*
G01X0029931Y-047300D01*
G01X0030043Y-047300D02*
G01X0030043Y-046906D01*
G01X0030043Y-046906D02*
G01X0030006Y-046963D01*
G01X0030006Y-046963D02*
G01X0029968Y-047000D01*
G01X0029968Y-047000D02*
G01X0029931Y-047019D01*
G01X0030306Y-046944D02*
G01X0030325Y-046925D01*
G01X0030325Y-046925D02*
G01X0030362Y-046906D01*
G01X0030362Y-046906D02*
G01X0030456Y-046906D01*
G01X0030456Y-046906D02*
G01X0030493Y-046925D01*
G01X0030493Y-046925D02*
G01X0030512Y-046944D01*
G01X0030512Y-046944D02*
G01X0030531Y-046981D01*
G01X0030531Y-046981D02*
G01X0030531Y-047019D01*
G01X0030531Y-047019D02*
G01X0030512Y-047075D01*
G01X0030512Y-047075D02*
G01X0030287Y-047300D01*
G01X0030287Y-047300D02*
G01X0030531Y-047300D01*
G01X0029556Y-032277D02*
G01X0029612Y-032296D01*
G01X0029612Y-032296D02*
G01X0029706Y-032296D01*
G01X0029706Y-032296D02*
G01X0029743Y-032277D01*
G01X0029743Y-032277D02*
G01X0029762Y-032259D01*
G01X0029762Y-032259D02*
G01X0029781Y-032221D01*
G01X0029781Y-032221D02*
G01X0029781Y-032184D01*
G01X0029781Y-032184D02*
G01X0029762Y-032146D01*
G01X0029762Y-032146D02*
G01X0029743Y-032127D01*
G01X0029743Y-032127D02*
G01X0029706Y-032109D01*
G01X0029706Y-032109D02*
G01X0029631Y-032090D01*
G01X0029631Y-032090D02*
G01X0029593Y-032071D01*
G01X0029593Y-032071D02*
G01X0029575Y-032052D01*
G01X0029575Y-032052D02*
G01X0029556Y-032015D01*
G01X0029556Y-032015D02*
G01X0029556Y-031978D01*
G01X0029556Y-031978D02*
G01X0029575Y-031940D01*
G01X0029575Y-031940D02*
G01X0029593Y-031921D01*
G01X0029593Y-031921D02*
G01X0029631Y-031903D01*
G01X0029631Y-031903D02*
G01X0029725Y-031903D01*
G01X0029725Y-031903D02*
G01X0029781Y-031921D01*
G01X0030156Y-032296D02*
G01X0029931Y-032296D01*
G01X0030043Y-032296D02*
G01X0030043Y-031903D01*
G01X0030043Y-031903D02*
G01X0030006Y-031959D01*
G01X0030006Y-031959D02*
G01X0029968Y-031996D01*
G01X0029968Y-031996D02*
G01X0029931Y-032015D01*
G01X0030400Y-031903D02*
G01X0030437Y-031903D01*
G01X0030437Y-031903D02*
G01X0030475Y-031921D01*
G01X0030475Y-031921D02*
G01X0030493Y-031940D01*
G01X0030493Y-031940D02*
G01X0030512Y-031978D01*
G01X0030512Y-031978D02*
G01X0030531Y-032052D01*
G01X0030531Y-032052D02*
G01X0030531Y-032146D01*
G01X0030531Y-032146D02*
G01X0030512Y-032221D01*
G01X0030512Y-032221D02*
G01X0030493Y-032259D01*
G01X0030493Y-032259D02*
G01X0030475Y-032277D01*
G01X0030475Y-032277D02*
G01X0030437Y-032296D01*
G01X0030437Y-032296D02*
G01X0030400Y-032296D01*
G01X0030400Y-032296D02*
G01X0030362Y-032277D01*
G01X0030362Y-032277D02*
G01X0030343Y-032259D01*
G01X0030343Y-032259D02*
G01X0030325Y-032221D01*
G01X0030325Y-032221D02*
G01X0030306Y-032146D01*
G01X0030306Y-032146D02*
G01X0030306Y-032052D01*
G01X0030306Y-032052D02*
G01X0030325Y-031978D01*
G01X0030325Y-031978D02*
G01X0030343Y-031940D01*
G01X0030343Y-031940D02*
G01X0030362Y-031921D01*
G01X0030362Y-031921D02*
G01X0030400Y-031903D01*
G01X0029743Y-024781D02*
G01X0029800Y-024800D01*
G01X0029800Y-024800D02*
G01X0029893Y-024800D01*
G01X0029893Y-024800D02*
G01X0029931Y-024781D01*
G01X0029931Y-024781D02*
G01X0029950Y-024763D01*
G01X0029950Y-024763D02*
G01X0029968Y-024725D01*
G01X0029968Y-024725D02*
G01X0029968Y-024688D01*
G01X0029968Y-024688D02*
G01X0029950Y-024650D01*
G01X0029950Y-024650D02*
G01X0029931Y-024631D01*
G01X0029931Y-024631D02*
G01X0029893Y-024613D01*
G01X0029893Y-024613D02*
G01X0029818Y-024594D01*
G01X0029818Y-024594D02*
G01X0029781Y-024575D01*
G01X0029781Y-024575D02*
G01X0029762Y-024556D01*
G01X0029762Y-024556D02*
G01X0029743Y-024519D01*
G01X0029743Y-024519D02*
G01X0029743Y-024481D01*
G01X0029743Y-024481D02*
G01X0029762Y-024444D01*
G01X0029762Y-024444D02*
G01X0029781Y-024425D01*
G01X0029781Y-024425D02*
G01X0029818Y-024406D01*
G01X0029818Y-024406D02*
G01X0029912Y-024406D01*
G01X0029912Y-024406D02*
G01X0029968Y-024425D01*
G01X0030156Y-024800D02*
G01X0030231Y-024800D01*
G01X0030231Y-024800D02*
G01X0030268Y-024781D01*
G01X0030268Y-024781D02*
G01X0030287Y-024763D01*
G01X0030287Y-024763D02*
G01X0030325Y-024706D01*
G01X0030325Y-024706D02*
G01X0030343Y-024631D01*
G01X0030343Y-024631D02*
G01X0030343Y-024481D01*
G01X0030343Y-024481D02*
G01X0030325Y-024444D01*
G01X0030325Y-024444D02*
G01X0030306Y-024425D01*
G01X0030306Y-024425D02*
G01X0030268Y-024406D01*
G01X0030268Y-024406D02*
G01X0030193Y-024406D01*
G01X0030193Y-024406D02*
G01X0030156Y-024425D01*
G01X0030156Y-024425D02*
G01X0030137Y-024444D01*
G01X0030137Y-024444D02*
G01X0030118Y-024481D01*
G01X0030118Y-024481D02*
G01X0030118Y-024575D01*
G01X0030118Y-024575D02*
G01X0030137Y-024613D01*
G01X0030137Y-024613D02*
G01X0030156Y-024631D01*
G01X0030156Y-024631D02*
G01X0030193Y-024650D01*
G01X0030193Y-024650D02*
G01X0030268Y-024650D01*
G01X0030268Y-024650D02*
G01X0030306Y-024631D01*
G01X0030306Y-024631D02*
G01X0030325Y-024613D01*
G01X0030325Y-024613D02*
G01X0030343Y-024575D01*
G01X0029743Y-017281D02*
G01X0029800Y-017300D01*
G01X0029800Y-017300D02*
G01X0029893Y-017300D01*
G01X0029893Y-017300D02*
G01X0029931Y-017281D01*
G01X0029931Y-017281D02*
G01X0029950Y-017263D01*
G01X0029950Y-017263D02*
G01X0029968Y-017225D01*
G01X0029968Y-017225D02*
G01X0029968Y-017188D01*
G01X0029968Y-017188D02*
G01X0029950Y-017150D01*
G01X0029950Y-017150D02*
G01X0029931Y-017131D01*
G01X0029931Y-017131D02*
G01X0029893Y-017113D01*
G01X0029893Y-017113D02*
G01X0029818Y-017094D01*
G01X0029818Y-017094D02*
G01X0029781Y-017075D01*
G01X0029781Y-017075D02*
G01X0029762Y-017056D01*
G01X0029762Y-017056D02*
G01X0029743Y-017019D01*
G01X0029743Y-017019D02*
G01X0029743Y-016981D01*
G01X0029743Y-016981D02*
G01X0029762Y-016944D01*
G01X0029762Y-016944D02*
G01X0029781Y-016925D01*
G01X0029781Y-016925D02*
G01X0029818Y-016906D01*
G01X0029818Y-016906D02*
G01X0029912Y-016906D01*
G01X0029912Y-016906D02*
G01X0029968Y-016925D01*
G01X0030193Y-017075D02*
G01X0030156Y-017056D01*
G01X0030156Y-017056D02*
G01X0030137Y-017038D01*
G01X0030137Y-017038D02*
G01X0030118Y-017000D01*
G01X0030118Y-017000D02*
G01X0030118Y-016981D01*
G01X0030118Y-016981D02*
G01X0030137Y-016944D01*
G01X0030137Y-016944D02*
G01X0030156Y-016925D01*
G01X0030156Y-016925D02*
G01X0030193Y-016906D01*
G01X0030193Y-016906D02*
G01X0030268Y-016906D01*
G01X0030268Y-016906D02*
G01X0030306Y-016925D01*
G01X0030306Y-016925D02*
G01X0030325Y-016944D01*
G01X0030325Y-016944D02*
G01X0030343Y-016981D01*
G01X0030343Y-016981D02*
G01X0030343Y-017000D01*
G01X0030343Y-017000D02*
G01X0030325Y-017038D01*
G01X0030325Y-017038D02*
G01X0030306Y-017056D01*
G01X0030306Y-017056D02*
G01X0030268Y-017075D01*
G01X0030268Y-017075D02*
G01X0030193Y-017075D01*
G01X0030193Y-017075D02*
G01X0030156Y-017094D01*
G01X0030156Y-017094D02*
G01X0030137Y-017113D01*
G01X0030137Y-017113D02*
G01X0030118Y-017150D01*
G01X0030118Y-017150D02*
G01X0030118Y-017225D01*
G01X0030118Y-017225D02*
G01X0030137Y-017263D01*
G01X0030137Y-017263D02*
G01X0030156Y-017281D01*
G01X0030156Y-017281D02*
G01X0030193Y-017300D01*
G01X0030193Y-017300D02*
G01X0030268Y-017300D01*
G01X0030268Y-017300D02*
G01X0030306Y-017281D01*
G01X0030306Y-017281D02*
G01X0030325Y-017263D01*
G01X0030325Y-017263D02*
G01X0030343Y-017225D01*
G01X0030343Y-017225D02*
G01X0030343Y-017150D01*
G01X0030343Y-017150D02*
G01X0030325Y-017113D01*
G01X0030325Y-017113D02*
G01X0030306Y-017094D01*
G01X0030306Y-017094D02*
G01X0030268Y-017075D01*
G01X0022251Y-047281D02*
G01X0022307Y-047300D01*
G01X0022307Y-047300D02*
G01X0022401Y-047300D01*
G01X0022401Y-047300D02*
G01X0022439Y-047281D01*
G01X0022439Y-047281D02*
G01X0022457Y-047263D01*
G01X0022457Y-047263D02*
G01X0022476Y-047225D01*
G01X0022476Y-047225D02*
G01X0022476Y-047188D01*
G01X0022476Y-047188D02*
G01X0022457Y-047150D01*
G01X0022457Y-047150D02*
G01X0022439Y-047131D01*
G01X0022439Y-047131D02*
G01X0022401Y-047113D01*
G01X0022401Y-047113D02*
G01X0022326Y-047094D01*
G01X0022326Y-047094D02*
G01X0022289Y-047075D01*
G01X0022289Y-047075D02*
G01X0022270Y-047056D01*
G01X0022270Y-047056D02*
G01X0022251Y-047019D01*
G01X0022251Y-047019D02*
G01X0022251Y-046981D01*
G01X0022251Y-046981D02*
G01X0022270Y-046944D01*
G01X0022270Y-046944D02*
G01X0022289Y-046925D01*
G01X0022289Y-046925D02*
G01X0022326Y-046906D01*
G01X0022326Y-046906D02*
G01X0022420Y-046906D01*
G01X0022420Y-046906D02*
G01X0022476Y-046925D01*
G01X0022607Y-046906D02*
G01X0022870Y-046906D01*
G01X0022870Y-046906D02*
G01X0022701Y-047300D01*
G01X0021306Y-039781D02*
G01X0021363Y-039800D01*
G01X0021363Y-039800D02*
G01X0021456Y-039800D01*
G01X0021456Y-039800D02*
G01X0021494Y-039781D01*
G01X0021494Y-039781D02*
G01X0021513Y-039763D01*
G01X0021513Y-039763D02*
G01X0021531Y-039725D01*
G01X0021531Y-039725D02*
G01X0021531Y-039688D01*
G01X0021531Y-039688D02*
G01X0021513Y-039650D01*
G01X0021513Y-039650D02*
G01X0021494Y-039631D01*
G01X0021494Y-039631D02*
G01X0021456Y-039613D01*
G01X0021456Y-039613D02*
G01X0021381Y-039594D01*
G01X0021381Y-039594D02*
G01X0021344Y-039575D01*
G01X0021344Y-039575D02*
G01X0021325Y-039556D01*
G01X0021325Y-039556D02*
G01X0021306Y-039519D01*
G01X0021306Y-039519D02*
G01X0021306Y-039481D01*
G01X0021306Y-039481D02*
G01X0021325Y-039444D01*
G01X0021325Y-039444D02*
G01X0021344Y-039425D01*
G01X0021344Y-039425D02*
G01X0021381Y-039406D01*
G01X0021381Y-039406D02*
G01X0021475Y-039406D01*
G01X0021475Y-039406D02*
G01X0021531Y-039425D01*
G01X0021869Y-039406D02*
G01X0021794Y-039406D01*
G01X0021794Y-039406D02*
G01X0021756Y-039425D01*
G01X0021756Y-039425D02*
G01X0021738Y-039444D01*
G01X0021738Y-039444D02*
G01X0021700Y-039500D01*
G01X0021700Y-039500D02*
G01X0021681Y-039575D01*
G01X0021681Y-039575D02*
G01X0021681Y-039725D01*
G01X0021681Y-039725D02*
G01X0021700Y-039763D01*
G01X0021700Y-039763D02*
G01X0021719Y-039781D01*
G01X0021719Y-039781D02*
G01X0021756Y-039800D01*
G01X0021756Y-039800D02*
G01X0021831Y-039800D01*
G01X0021831Y-039800D02*
G01X0021869Y-039781D01*
G01X0021869Y-039781D02*
G01X0021888Y-039763D01*
G01X0021888Y-039763D02*
G01X0021906Y-039725D01*
G01X0021906Y-039725D02*
G01X0021906Y-039631D01*
G01X0021906Y-039631D02*
G01X0021888Y-039594D01*
G01X0021888Y-039594D02*
G01X0021869Y-039575D01*
G01X0021869Y-039575D02*
G01X0021831Y-039556D01*
G01X0021831Y-039556D02*
G01X0021756Y-039556D01*
G01X0021756Y-039556D02*
G01X0021719Y-039575D01*
G01X0021719Y-039575D02*
G01X0021700Y-039594D01*
G01X0021700Y-039594D02*
G01X0021681Y-039631D01*
G01X0020373Y-032277D02*
G01X0020430Y-032296D01*
G01X0020430Y-032296D02*
G01X0020523Y-032296D01*
G01X0020523Y-032296D02*
G01X0020561Y-032277D01*
G01X0020561Y-032277D02*
G01X0020579Y-032259D01*
G01X0020579Y-032259D02*
G01X0020598Y-032221D01*
G01X0020598Y-032221D02*
G01X0020598Y-032184D01*
G01X0020598Y-032184D02*
G01X0020579Y-032146D01*
G01X0020579Y-032146D02*
G01X0020561Y-032127D01*
G01X0020561Y-032127D02*
G01X0020523Y-032109D01*
G01X0020523Y-032109D02*
G01X0020448Y-032090D01*
G01X0020448Y-032090D02*
G01X0020411Y-032071D01*
G01X0020411Y-032071D02*
G01X0020392Y-032052D01*
G01X0020392Y-032052D02*
G01X0020373Y-032015D01*
G01X0020373Y-032015D02*
G01X0020373Y-031978D01*
G01X0020373Y-031978D02*
G01X0020392Y-031940D01*
G01X0020392Y-031940D02*
G01X0020411Y-031921D01*
G01X0020411Y-031921D02*
G01X0020448Y-031903D01*
G01X0020448Y-031903D02*
G01X0020542Y-031903D01*
G01X0020542Y-031903D02*
G01X0020598Y-031921D01*
G01X0020954Y-031903D02*
G01X0020767Y-031903D01*
G01X0020767Y-031903D02*
G01X0020748Y-032090D01*
G01X0020748Y-032090D02*
G01X0020767Y-032071D01*
G01X0020767Y-032071D02*
G01X0020804Y-032052D01*
G01X0020804Y-032052D02*
G01X0020898Y-032052D01*
G01X0020898Y-032052D02*
G01X0020936Y-032071D01*
G01X0020936Y-032071D02*
G01X0020954Y-032090D01*
G01X0020954Y-032090D02*
G01X0020973Y-032127D01*
G01X0020973Y-032127D02*
G01X0020973Y-032221D01*
G01X0020973Y-032221D02*
G01X0020954Y-032259D01*
G01X0020954Y-032259D02*
G01X0020936Y-032277D01*
G01X0020936Y-032277D02*
G01X0020898Y-032296D01*
G01X0020898Y-032296D02*
G01X0020804Y-032296D01*
G01X0020804Y-032296D02*
G01X0020767Y-032277D01*
G01X0020767Y-032277D02*
G01X0020748Y-032259D01*
G01X0022247Y-024781D02*
G01X0022304Y-024800D01*
G01X0022304Y-024800D02*
G01X0022397Y-024800D01*
G01X0022397Y-024800D02*
G01X0022435Y-024781D01*
G01X0022435Y-024781D02*
G01X0022454Y-024763D01*
G01X0022454Y-024763D02*
G01X0022472Y-024725D01*
G01X0022472Y-024725D02*
G01X0022472Y-024688D01*
G01X0022472Y-024688D02*
G01X0022454Y-024650D01*
G01X0022454Y-024650D02*
G01X0022435Y-024631D01*
G01X0022435Y-024631D02*
G01X0022397Y-024613D01*
G01X0022397Y-024613D02*
G01X0022322Y-024594D01*
G01X0022322Y-024594D02*
G01X0022285Y-024575D01*
G01X0022285Y-024575D02*
G01X0022266Y-024556D01*
G01X0022266Y-024556D02*
G01X0022247Y-024519D01*
G01X0022247Y-024519D02*
G01X0022247Y-024481D01*
G01X0022247Y-024481D02*
G01X0022266Y-024444D01*
G01X0022266Y-024444D02*
G01X0022285Y-024425D01*
G01X0022285Y-024425D02*
G01X0022322Y-024406D01*
G01X0022322Y-024406D02*
G01X0022416Y-024406D01*
G01X0022416Y-024406D02*
G01X0022472Y-024425D01*
G01X0022810Y-024538D02*
G01X0022810Y-024800D01*
G01X0022716Y-024388D02*
G01X0022622Y-024669D01*
G01X0022622Y-024669D02*
G01X0022866Y-024669D01*
G01X0022243Y-017281D02*
G01X0022300Y-017300D01*
G01X0022300Y-017300D02*
G01X0022393Y-017300D01*
G01X0022393Y-017300D02*
G01X0022431Y-017281D01*
G01X0022431Y-017281D02*
G01X0022450Y-017263D01*
G01X0022450Y-017263D02*
G01X0022468Y-017225D01*
G01X0022468Y-017225D02*
G01X0022468Y-017188D01*
G01X0022468Y-017188D02*
G01X0022450Y-017150D01*
G01X0022450Y-017150D02*
G01X0022431Y-017131D01*
G01X0022431Y-017131D02*
G01X0022393Y-017113D01*
G01X0022393Y-017113D02*
G01X0022318Y-017094D01*
G01X0022318Y-017094D02*
G01X0022281Y-017075D01*
G01X0022281Y-017075D02*
G01X0022262Y-017056D01*
G01X0022262Y-017056D02*
G01X0022243Y-017019D01*
G01X0022243Y-017019D02*
G01X0022243Y-016981D01*
G01X0022243Y-016981D02*
G01X0022262Y-016944D01*
G01X0022262Y-016944D02*
G01X0022281Y-016925D01*
G01X0022281Y-016925D02*
G01X0022318Y-016906D01*
G01X0022318Y-016906D02*
G01X0022412Y-016906D01*
G01X0022412Y-016906D02*
G01X0022468Y-016925D01*
G01X0022600Y-016906D02*
G01X0022843Y-016906D01*
G01X0022843Y-016906D02*
G01X0022712Y-017056D01*
G01X0022712Y-017056D02*
G01X0022768Y-017056D01*
G01X0022768Y-017056D02*
G01X0022806Y-017075D01*
G01X0022806Y-017075D02*
G01X0022825Y-017094D01*
G01X0022825Y-017094D02*
G01X0022843Y-017131D01*
G01X0022843Y-017131D02*
G01X0022843Y-017225D01*
G01X0022843Y-017225D02*
G01X0022825Y-017263D01*
G01X0022825Y-017263D02*
G01X0022806Y-017281D01*
G01X0022806Y-017281D02*
G01X0022768Y-017300D01*
G01X0022768Y-017300D02*
G01X0022656Y-017300D01*
G01X0022656Y-017300D02*
G01X0022618Y-017281D01*
G01X0022618Y-017281D02*
G01X0022600Y-017263D01*
G01X0014747Y-024777D02*
G01X0014804Y-024796D01*
G01X0014804Y-024796D02*
G01X0014897Y-024796D01*
G01X0014897Y-024796D02*
G01X0014935Y-024777D01*
G01X0014935Y-024777D02*
G01X0014954Y-024759D01*
G01X0014954Y-024759D02*
G01X0014972Y-024721D01*
G01X0014972Y-024721D02*
G01X0014972Y-024684D01*
G01X0014972Y-024684D02*
G01X0014954Y-024646D01*
G01X0014954Y-024646D02*
G01X0014935Y-024627D01*
G01X0014935Y-024627D02*
G01X0014897Y-024609D01*
G01X0014897Y-024609D02*
G01X0014822Y-024590D01*
G01X0014822Y-024590D02*
G01X0014785Y-024571D01*
G01X0014785Y-024571D02*
G01X0014766Y-024552D01*
G01X0014766Y-024552D02*
G01X0014747Y-024515D01*
G01X0014747Y-024515D02*
G01X0014747Y-024478D01*
G01X0014747Y-024478D02*
G01X0014766Y-024440D01*
G01X0014766Y-024440D02*
G01X0014785Y-024421D01*
G01X0014785Y-024421D02*
G01X0014822Y-024403D01*
G01X0014822Y-024403D02*
G01X0014916Y-024403D01*
G01X0014916Y-024403D02*
G01X0014972Y-024421D01*
G01X0015122Y-024440D02*
G01X0015141Y-024421D01*
G01X0015141Y-024421D02*
G01X0015178Y-024403D01*
G01X0015178Y-024403D02*
G01X0015272Y-024403D01*
G01X0015272Y-024403D02*
G01X0015310Y-024421D01*
G01X0015310Y-024421D02*
G01X0015328Y-024440D01*
G01X0015328Y-024440D02*
G01X0015347Y-024478D01*
G01X0015347Y-024478D02*
G01X0015347Y-024515D01*
G01X0015347Y-024515D02*
G01X0015328Y-024571D01*
G01X0015328Y-024571D02*
G01X0015103Y-024796D01*
G01X0015103Y-024796D02*
G01X0015347Y-024796D01*
G01X0066103Y-050110D02*
G01X0066144Y-050067D01*
G01X0066144Y-050067D02*
G01X0066183Y-049982D01*
G01X0066183Y-049982D02*
G01X0066182Y-049940D01*
G01X0066182Y-049940D02*
G01X0066173Y-049915D01*
G01X0066173Y-049915D02*
G01X0066147Y-049882D01*
G01X0066147Y-049882D02*
G01X0066113Y-049866D01*
G01X0066113Y-049866D02*
G01X0066071Y-049867D01*
G01X0066071Y-049867D02*
G01X0066046Y-049876D01*
G01X0066046Y-049876D02*
G01X0066013Y-049903D01*
G01X0066013Y-049903D02*
G01X0065965Y-049963D01*
G01X0065965Y-049963D02*
G01X0065932Y-049989D01*
G01X0065932Y-049989D02*
G01X0065907Y-049998D01*
G01X0065907Y-049998D02*
G01X0065865Y-049999D01*
G01X0065865Y-049999D02*
G01X0065831Y-049983D01*
G01X0065831Y-049983D02*
G01X0065805Y-049950D01*
G01X0065805Y-049950D02*
G01X0065796Y-049925D01*
G01X0065796Y-049925D02*
G01X0065795Y-049883D01*
G01X0065795Y-049883D02*
G01X0065834Y-049798D01*
G01X0065834Y-049798D02*
G01X0065875Y-049755D01*
G01X0065914Y-049628D02*
G01X0066017Y-049408D01*
G01X0066017Y-049408D02*
G01X0066097Y-049590D01*
G01X0066097Y-049590D02*
G01X0066121Y-049539D01*
G01X0066121Y-049539D02*
G01X0066154Y-049513D01*
G01X0066154Y-049513D02*
G01X0066179Y-049504D01*
G01X0066179Y-049504D02*
G01X0066221Y-049503D01*
G01X0066221Y-049503D02*
G01X0066305Y-049542D01*
G01X0066305Y-049542D02*
G01X0066332Y-049575D01*
G01X0066332Y-049575D02*
G01X0066341Y-049600D01*
G01X0066341Y-049600D02*
G01X0066342Y-049642D01*
G01X0066342Y-049642D02*
G01X0066294Y-049744D01*
G01X0066294Y-049744D02*
G01X0066261Y-049770D01*
G01X0066261Y-049770D02*
G01X0066236Y-049779D01*
G01X0066167Y-049085D02*
G01X0066088Y-049255D01*
G01X0066088Y-049255D02*
G01X0066250Y-049351D01*
G01X0066250Y-049351D02*
G01X0066241Y-049326D01*
G01X0066241Y-049326D02*
G01X0066240Y-049284D01*
G01X0066240Y-049284D02*
G01X0066279Y-049199D01*
G01X0066279Y-049199D02*
G01X0066312Y-049173D01*
G01X0066312Y-049173D02*
G01X0066337Y-049164D01*
G01X0066337Y-049164D02*
G01X0066379Y-049163D01*
G01X0066379Y-049163D02*
G01X0066464Y-049202D01*
G01X0066464Y-049202D02*
G01X0066490Y-049235D01*
G01X0066490Y-049235D02*
G01X0066499Y-049260D01*
G01X0066499Y-049260D02*
G01X0066500Y-049302D01*
G01X0066500Y-049302D02*
G01X0066461Y-049387D01*
G01X0066461Y-049387D02*
G01X0066428Y-049413D01*
G01X0066428Y-049413D02*
G01X0066403Y-049422D01*
G01X0012528Y-043791D02*
G01X0012134Y-043791D01*
G01X0012134Y-043791D02*
G01X0012134Y-043641D01*
G01X0012134Y-043641D02*
G01X0012153Y-043603D01*
G01X0012153Y-043603D02*
G01X0012172Y-043584D01*
G01X0012172Y-043584D02*
G01X0012209Y-043566D01*
G01X0012209Y-043566D02*
G01X0012266Y-043566D01*
G01X0012266Y-043566D02*
G01X0012303Y-043584D01*
G01X0012303Y-043584D02*
G01X0012322Y-043603D01*
G01X0012322Y-043603D02*
G01X0012341Y-043641D01*
G01X0012341Y-043641D02*
G01X0012341Y-043791D01*
G01X0012266Y-043228D02*
G01X0012528Y-043228D01*
G01X0012116Y-043322D02*
G01X0012397Y-043416D01*
G01X0012397Y-043416D02*
G01X0012397Y-043172D01*
M02*
