M48
INCH,TZ
T10C0.016
T11C0.030
T12C0.047
T13C0.061
%
T10
X012500Y-12000
X012600Y-19500
X018200Y-27000
X019000Y-41200
X019500Y-41500
X056600Y-48200
X057300Y-47900
T11
X012200Y-33500
X012200Y-34500
X012200Y-35500
X012200Y-36500
X012200Y-37500
X012200Y-38500
X012200Y-39500
X012200Y-40500
X013200Y-27500
X013200Y-28500
X013200Y-29500
X013200Y-30500
X013200Y-31500
X013200Y-32500
X013200Y-33500
X013200Y-33500
X013200Y-34500
X013200Y-34500
X013200Y-35500
X013200Y-35500
X013200Y-36500
X013200Y-36500
X013200Y-37500
X013200Y-37500
X013200Y-38500
X013200Y-38500
X013200Y-39500
X013200Y-39500
X013200Y-40500
X013200Y-40500
X013200Y-41500
X013200Y-42500
X013200Y-43500
X013200Y-44500
X013200Y-45500
X013200Y-46500
X016200Y-27500
X016200Y-28500
X016200Y-29500
X016200Y-30500
X016200Y-31500
X016200Y-32500
X016200Y-33500
X016200Y-33500
X016200Y-34500
X016200Y-34500
X016200Y-35500
X016200Y-35500
X016200Y-36500
X016200Y-36500
X016200Y-37500
X016200Y-37500
X016200Y-38500
X016200Y-38500
X016200Y-39500
X016200Y-39500
X016200Y-40500
X016200Y-40500
X016200Y-41500
X016200Y-42500
X016200Y-43500
X016200Y-44500
X016200Y-45500
X016200Y-46500
T12
X013043Y-18010
X013047Y-25506
X017043Y-18010
X017047Y-25506
X018673Y-33006
X019606Y-40510
X020543Y-18010
X020547Y-25510
X020551Y-48010
X022673Y-33006
X023606Y-40510
X024543Y-18010
X024547Y-25510
X024551Y-48010
X028043Y-18010
X028043Y-25510
X028043Y-33006
X028043Y-48010
X028047Y-40510
X032043Y-18010
X032043Y-25510
X032043Y-33006
X032043Y-48010
X032047Y-40510
X035543Y-16829
X035543Y-24329
X035543Y-39329
X035543Y-46829
X035547Y-31829
X039543Y-16829
X039543Y-24329
X039543Y-39329
X039543Y-46829
X039547Y-31829
X043043Y-16120
X043043Y-31120
X043043Y-46120
X043047Y-23620
X043047Y-38620
X047043Y-16120
X047043Y-31120
X047043Y-46120
X047047Y-23620
X047047Y-38620
X050543Y-16829
X050543Y-24329
X050543Y-46829
X050547Y-31830
X050547Y-39329
X054543Y-16829
X054543Y-24329
X054543Y-46829
X054547Y-31830
X054547Y-39329
X058039Y-17226
X058043Y-39722
X058046Y-32222
X058048Y-24721
X062039Y-17226
X062043Y-39722
X062046Y-32222
X062048Y-24721
X065543Y-39722
X065547Y-17222
X066124Y-51789
X067814Y-48163
X069543Y-39722
X069547Y-17222
X070795Y-23221
X070795Y-27221
X072923Y-54958
X074613Y-51333
X076406Y-19195
X076425Y-26695
X076425Y-34195
X076426Y-41692
X079719Y-58127
X080406Y-19195
X080425Y-26695
X080425Y-34195
X080426Y-41692
X081409Y-54502
X083923Y-26689
X083923Y-41689
X083925Y-19195
X083925Y-34195
X087923Y-26689
X087923Y-41689
X087925Y-19195
X087925Y-34195
T13
X013543Y-13760
X013547Y-21256
X014043Y-12760
X014047Y-20256
X016043Y-12760
X016047Y-20256
X016543Y-13760
X016547Y-21256
X019173Y-28756
X019673Y-27756
X020106Y-36260
X020606Y-35260
X021043Y-13760
X021047Y-21260
X021051Y-43760
X021543Y-12760
X021547Y-20260
X021551Y-42760
X021673Y-27756
X022173Y-28756
X022606Y-35260
X023106Y-36260
X023543Y-12760
X023547Y-20260
X023551Y-42760
X024043Y-13760
X024047Y-21260
X024051Y-43760
X028543Y-13760
X028543Y-21260
X028543Y-28756
X028543Y-43760
X028547Y-36260
X029043Y-12760
X029043Y-20260
X029043Y-27756
X029043Y-42760
X029047Y-35260
X031043Y-12760
X031043Y-20260
X031043Y-27756
X031043Y-42760
X031047Y-35260
X031543Y-13760
X031543Y-21260
X031543Y-28756
X031543Y-43760
X031547Y-36260
X036043Y-12579
X036043Y-20079
X036043Y-35079
X036043Y-42579
X036047Y-27579
X036543Y-11579
X036543Y-19079
X036543Y-34079
X036543Y-41579
X036547Y-26579
X038543Y-11579
X038543Y-19079
X038543Y-34079
X038543Y-41579
X038547Y-26579
X039043Y-12579
X039043Y-20079
X039043Y-35079
X039043Y-42579
X039047Y-27579
X043543Y-11870
X043543Y-26870
X043543Y-41870
X043547Y-19370
X043547Y-34370
X044043Y-10870
X044043Y-25870
X044043Y-40870
X044047Y-18370
X044047Y-33370
X046043Y-10870
X046043Y-25870
X046043Y-40870
X046047Y-18370
X046047Y-33370
X046543Y-11870
X046543Y-26870
X046543Y-41870
X046547Y-19370
X046547Y-34370
X051043Y-12579
X051043Y-20079
X051043Y-42579
X051047Y-27580
X051047Y-35079
X051543Y-11579
X051543Y-19079
X051543Y-41579
X051547Y-26580
X051547Y-34079
X053543Y-11579
X053543Y-19079
X053543Y-41579
X053547Y-26580
X053547Y-34079
X054043Y-12579
X054043Y-20079
X054043Y-42579
X054047Y-27580
X054047Y-35079
X058539Y-12976
X058543Y-35472
X058546Y-27972
X058548Y-20471
X059039Y-11976
X059043Y-34472
X059046Y-26972
X059048Y-19471
X061039Y-11976
X061043Y-34472
X061046Y-26972
X061048Y-19471
X061539Y-12976
X061543Y-35472
X061546Y-27972
X061548Y-20471
X061789Y-48663
X062483Y-49539
X062633Y-46851
X063751Y-46820
X065545Y-24221
X065545Y-26221
X066043Y-35472
X066047Y-12972
X066543Y-34472
X066545Y-23721
X066545Y-26721
X066547Y-11972
X068543Y-34472
X068547Y-11972
X068588Y-51833
X069043Y-35472
X069047Y-12972
X069283Y-52709
X069433Y-50020
X070550Y-49990
X075383Y-55002
X076078Y-55878
X076228Y-53189
X076906Y-14945
X076925Y-22445
X076925Y-29945
X076926Y-37442
X077346Y-53159
X077406Y-13945
X077425Y-21445
X077425Y-28945
X077426Y-36442
X079406Y-13945
X079425Y-21445
X079425Y-28945
X079426Y-36442
X079906Y-14945
X079925Y-22445
X079925Y-29945
X079926Y-37442
X084423Y-22439
X084423Y-37439
X084425Y-14945
X084425Y-29945
X084923Y-21439
X084923Y-36439
X084925Y-13945
X084925Y-28945
X086923Y-21439
X086923Y-36439
X086925Y-13945
X086925Y-28945
X087423Y-22439
X087423Y-37439
X087425Y-14945
X087425Y-29945
M30

