M48
INCH,TZ
T10C0.067
T11C0.157
%
T10
X013043Y-14760
X013047Y-22256
X017043Y-14760
X017047Y-22256
X018673Y-29756
X019606Y-37260
X020543Y-14760
X020547Y-22260
X020551Y-44760
X022673Y-29756
X023606Y-37260
X024543Y-14760
X024547Y-22260
X024551Y-44760
X028043Y-14760
X028043Y-22260
X028043Y-29756
X028043Y-44760
X028047Y-37260
X032043Y-14760
X032043Y-22260
X032043Y-29756
X032043Y-44760
X032047Y-37260
X035543Y-13579
X035543Y-21079
X035543Y-36079
X035543Y-43579
X035547Y-28579
X039543Y-13579
X039543Y-21079
X039543Y-36079
X039543Y-43579
X039547Y-28579
X043043Y-12870
X043043Y-27870
X043043Y-42870
X043047Y-20370
X043047Y-35370
X047043Y-12870
X047043Y-27870
X047043Y-42870
X047047Y-20370
X047047Y-35370
X050543Y-13579
X050543Y-21079
X050543Y-43579
X050547Y-28580
X050547Y-36079
X054543Y-13579
X054543Y-21079
X054543Y-43579
X054547Y-28580
X054547Y-36079
X058039Y-13976
X058043Y-36472
X058046Y-28972
X058048Y-21471
X062039Y-13976
X062043Y-36472
X062046Y-28972
X062048Y-21471
X063178Y-50415
X064869Y-46790
X065543Y-36472
X065547Y-13972
X067545Y-23221
X067545Y-27221
X069543Y-36472
X069547Y-13972
X069978Y-53584
X071668Y-49959
X076406Y-15945
X076425Y-23445
X076425Y-30945
X076426Y-38442
X076773Y-56754
X078463Y-53128
X080406Y-15945
X080425Y-23445
X080425Y-30945
X080426Y-38442
X083923Y-23439
X083923Y-38439
X083925Y-15945
X083925Y-30945
X087923Y-23439
X087923Y-38439
X087925Y-15945
X087925Y-30945
T11
X015043Y-14760
X015047Y-22256
X020673Y-29756
X021606Y-37260
X022543Y-14760
X022547Y-22260
X022551Y-44760
X030043Y-14760
X030043Y-22260
X030043Y-29756
X030043Y-44760
X030047Y-37260
X037543Y-13579
X037543Y-21079
X037543Y-36079
X037543Y-43579
X037547Y-28579
X045043Y-12870
X045043Y-27870
X045043Y-42870
X045047Y-20370
X045047Y-35370
X052543Y-13579
X052543Y-21079
X052543Y-43579
X052547Y-28580
X052547Y-36079
X060039Y-13976
X060043Y-36472
X060046Y-28972
X060048Y-21471
X064024Y-48602
X067543Y-36472
X067545Y-25221
X067547Y-13972
X070823Y-51772
X077618Y-54941
X078406Y-15945
X078425Y-23445
X078425Y-30945
X078426Y-38442
X085923Y-23439
X085923Y-38439
X085925Y-15945
X085925Y-30945
M30

