G04 This is an RS-274x file exported by *
G04 gerbv version 2.6.0 *
G04 More information is available about gerbv at *
G04 http://gerbv.gpleda.org/ *
G04 --End of header info--*
%MOIN*%
%FSLAX34Y34*%
%IPPOS*%
G04 --Define apertures--*
%ADD10C,0.0039*%
%ADD11R,0.0354X0.0374*%
%ADD12R,0.0374X0.0354*%
%ADD13R,0.0600X0.0600*%
G04 --Start main section--*
G54D11*
G01X0030667Y-040510D03*
G01X0029427Y-040510D03*
G01X0015663Y-018010D03*
G01X0014423Y-018010D03*
G54D10*
G36*
G01X0080920Y-055992D02*
G01X0080581Y-055834D01*
G01X0080731Y-055513D01*
G01X0081070Y-055671D01*
G01X0080920Y-055992D01*
G01X0080920Y-055992D01*
G37*
G36*
G01X0080396Y-057116D02*
G01X0080057Y-056958D01*
G01X0080207Y-056637D01*
G01X0080546Y-056795D01*
G01X0080396Y-057116D01*
G01X0080396Y-057116D01*
G37*
G54D11*
G01X0086543Y-041689D03*
G01X0085303Y-041689D03*
G01X0086545Y-034195D03*
G01X0085305Y-034195D03*
G01X0086543Y-026689D03*
G01X0085303Y-026689D03*
G01X0086545Y-019195D03*
G01X0085305Y-019195D03*
G54D10*
G36*
G01X0074125Y-052823D02*
G01X0073786Y-052665D01*
G01X0073936Y-052344D01*
G01X0074275Y-052502D01*
G01X0074125Y-052823D01*
G01X0074125Y-052823D01*
G37*
G36*
G01X0073601Y-053947D02*
G01X0073262Y-053789D01*
G01X0073412Y-053468D01*
G01X0073751Y-053626D01*
G01X0073601Y-053947D01*
G01X0073601Y-053947D01*
G37*
G54D11*
G01X0079046Y-041692D03*
G01X0077806Y-041692D03*
G01X0079045Y-034195D03*
G01X0077805Y-034195D03*
G01X0079045Y-026695D03*
G01X0077805Y-026695D03*
G01X0079026Y-019195D03*
G01X0077785Y-019195D03*
G01X0068163Y-039722D03*
G01X0066923Y-039722D03*
G54D12*
G01X0070795Y-024601D03*
G01X0070795Y-025841D03*
G54D11*
G01X0068167Y-017222D03*
G01X0066927Y-017222D03*
G01X0060663Y-039722D03*
G01X0059423Y-039722D03*
G01X0060666Y-032222D03*
G01X0059426Y-032222D03*
G01X0060668Y-024721D03*
G01X0059428Y-024721D03*
G01X0060659Y-017226D03*
G01X0059419Y-017226D03*
G01X0053163Y-046829D03*
G01X0051923Y-046829D03*
G01X0053167Y-039329D03*
G01X0051927Y-039329D03*
G01X0053167Y-031830D03*
G01X0051927Y-031830D03*
G01X0053163Y-024329D03*
G01X0051923Y-024329D03*
G01X0053163Y-016829D03*
G01X0051923Y-016829D03*
G01X0045663Y-046120D03*
G01X0044423Y-046120D03*
G01X0045667Y-038620D03*
G01X0044427Y-038620D03*
G01X0045663Y-031120D03*
G01X0044423Y-031120D03*
G01X0045667Y-023620D03*
G01X0044427Y-023620D03*
G01X0045663Y-016120D03*
G01X0044423Y-016120D03*
G01X0038163Y-046829D03*
G01X0036923Y-046829D03*
G01X0038163Y-039329D03*
G01X0036923Y-039329D03*
G01X0038167Y-031829D03*
G01X0036927Y-031829D03*
G01X0038163Y-024329D03*
G01X0036923Y-024329D03*
G01X0038163Y-016829D03*
G01X0036923Y-016829D03*
G01X0030663Y-048010D03*
G01X0029423Y-048010D03*
G01X0030663Y-033006D03*
G01X0029423Y-033006D03*
G01X0030663Y-025510D03*
G01X0029423Y-025510D03*
G01X0030663Y-018010D03*
G01X0029423Y-018010D03*
G01X0023171Y-048010D03*
G01X0021931Y-048010D03*
G01X0022226Y-040510D03*
G01X0020986Y-040510D03*
G01X0021293Y-033006D03*
G01X0020053Y-033006D03*
G01X0023167Y-025510D03*
G01X0021927Y-025510D03*
G01X0023163Y-018010D03*
G01X0021923Y-018010D03*
G01X0015667Y-025506D03*
G01X0014427Y-025506D03*
G54D10*
G36*
G01X0067326Y-049653D02*
G01X0066987Y-049495D01*
G01X0067137Y-049174D01*
G01X0067476Y-049332D01*
G01X0067326Y-049653D01*
G01X0067326Y-049653D01*
G37*
G36*
G01X0066802Y-050777D02*
G01X0066463Y-050619D01*
G01X0066612Y-050298D01*
G01X0066951Y-050456D01*
G01X0066802Y-050777D01*
G01X0066802Y-050777D01*
G37*
G54D13*
G01X0012200Y-028500D03*
G01X0012200Y-029500D03*
G01X0011200Y-029500D03*
G01X0011200Y-028500D03*
M02*
